<svg id="Layer_1" data-name="Layer 1" xmlns="http://www.w3.org/2000/svg" viewBox="0 0 400 300"><defs><style>.cls-1{fill:#fff;}.cls-2{fill:#f1f0f0;}</style></defs><title>placeholder</title><rect class="cls-1" width="400" height="300"/><path class="cls-2" d="M162,111.57H127.1a20.79,20.79,0,0,0,0,41.57H162a14.11,14.11,0,1,1-14.11,14.1v-5.12a3.34,3.34,0,0,0-3.34-3.34H109.66a3.34,3.34,0,0,0-3.34,3.34v5.12A20.81,20.81,0,0,0,127.1,188H162a20.79,20.79,0,0,0,0-41.57H127.1a14.11,14.11,0,1,1,14.1-14.11v5.12a3.34,3.34,0,0,0,3.34,3.34h34.89a3.33,3.33,0,0,0,3.34-3.34v-5.12A20.8,20.8,0,0,0,162,111.57ZM127.1,181.35A14.12,14.12,0,0,1,113,167.24v-1.78h28.2v1.78a20.69,20.69,0,0,0,5.54,14.11Zm49-47.22H147.88v-1.78a20.7,20.7,0,0,0-5.53-14.1H162a14.12,14.12,0,0,1,14.1,14.1Z"/><path class="cls-2" d="M293.1,176.2l-43.3-62.89a3.33,3.33,0,0,0-5.41-.13l-47.83,62.9,0,0-.13.2-.06.08c0,.07-.07.13-.1.19l-.06.11-.06.16-.06.15a.65.65,0,0,0,0,.13l-.06.18s0,.09,0,.13,0,.12,0,.19a.76.76,0,0,0,0,.15.88.88,0,0,0,0,.16v.32a1.94,1.94,0,0,0,0,.24.17.17,0,0,0,0,.07,2.38,2.38,0,0,0,.05.26.13.13,0,0,0,0,.06l.06.23,0,.08.07.19.05.12a1,1,0,0,0,.08.14l.08.16.07.11.11.17s0,0,0,0a20.92,20.92,0,0,0,16.64,8.32h.06A20.78,20.78,0,0,0,234,167.59v-1.7l10.81,0,10.81,0v1.7a20.78,20.78,0,0,0,20.72,20.84h.06a20.89,20.89,0,0,0,16.48-8.12A3.35,3.35,0,0,0,293.1,176.2Zm-16.78,5.55a14.12,14.12,0,0,1-14.06-14.14v-5.12a3.32,3.32,0,0,0-1-2.38,3.38,3.38,0,0,0-2.37-1h0l-14.16,0-14.15,0h0a3.33,3.33,0,0,0-3.34,3.35v5.12a14.11,14.11,0,0,1-14.06,14.14h0a14,14,0,0,1-9.65-3.81l43.39-57,39.2,57a14,14,0,0,1-9.75,3.91Z"/></svg>