<svg xmlns="http://www.w3.org/2000/svg">
    <symbol id="logoShape" viewBox="0 0 195 80">
        <path d="M57.94,0H21.63a21.64,21.64,0,0,0,0,43.27H57.94A14.68,14.68,0,1,1,43.26,58V52.62a3.48,3.48,0,0,0-3.47-3.48H3.48A3.48,3.48,0,0,0,0,52.62V58A21.66,21.66,0,0,0,21.63,79.58H57.94a21.64,21.64,0,0,0,0-43.27H21.63A14.68,14.68,0,1,1,36.31,21.63V27a3.48,3.48,0,0,0,3.48,3.48h36.3A3.48,3.48,0,0,0,79.57,27V21.63A21.65,21.65,0,0,0,57.94,0ZM21.63,72.63A14.7,14.7,0,0,1,7,58V56.09H36.31V58a21.52,21.52,0,0,0,5.76,14.68Zm51-49.14H43.26V21.63A21.52,21.52,0,0,0,37.5,7H57.94A14.7,14.7,0,0,1,72.62,21.63Z"/>
        <path d="M194.39,67.27,149.33,1.81a3.47,3.47,0,0,0-5.63-.14L93.92,67.15l0,0-.14.2-.06.09c0,.07-.07.13-.1.2l-.06.11a1.22,1.22,0,0,0-.07.17l-.06.15s0,.1,0,.14a1.8,1.8,0,0,1,0,.19l0,.13,0,.19a1,1,0,0,0,0,.16c0,.06,0,.11,0,.17v.33c0,.08,0,.17,0,.25a.22.22,0,0,1,0,.08,2.38,2.38,0,0,0,.05.26.13.13,0,0,1,0,.06c0,.09,0,.17.07.25l0,.08a1.67,1.67,0,0,0,.08.2.61.61,0,0,0,0,.12l.07.15.09.16a.83.83,0,0,0,.08.12,1.74,1.74,0,0,0,.11.18s0,0,0,0A21.73,21.73,0,0,0,111.22,80h.06a21.63,21.63,0,0,0,21.57-21.7V56.54l11.26,0,11.25,0V58.3A21.65,21.65,0,0,0,176.91,80H177a21.74,21.74,0,0,0,17.15-8.46A3.47,3.47,0,0,0,194.39,67.27Zm-17.46,5.78A14.7,14.7,0,0,1,162.3,58.32V53a3.48,3.48,0,0,0-3.47-3.49h0l-14.73,0-14.73,0h0A3.48,3.48,0,0,0,125.88,53l0,5.32a14.71,14.71,0,0,1-14.64,14.73h0a14.52,14.52,0,0,1-10-4L146.33,9.71,187.12,69A14.48,14.48,0,0,1,177,73.05Z"/>
    </symbol>
    <symbol id="logofa" viewBox="0 0 278 40">
        <path d="M267.44,14.7l-5.88,1.4q.31,1.47,1.37,5.79a3.12,3.12,0,0,1,.09.7c0,1-.7,1.45-2.1,1.45a2.28,2.28,0,0,1-1.83-.59,2.4,2.4,0,0,1-.43-1.62V17.36H252.6v4.47a2.13,2.13,0,0,1-.7,1.83,2.5,2.5,0,0,1-1.49.38,2.14,2.14,0,0,1-1.39-.38,2.26,2.26,0,0,1-.63-1.83V17.36h-6.06v4.47a2.4,2.4,0,0,1-.42,1.62,2.28,2.28,0,0,1-1.83.59h-5.32a2.62,2.62,0,0,1-1.7-.42,1.6,1.6,0,0,1-.42-1.25v-5h-6v5a1.49,1.49,0,0,1-.48,1.23,3,3,0,0,1-1.87.44h-8.4a2.6,2.6,0,0,1-1.7-.42,1.6,1.6,0,0,1-.43-1.25v-5h-6v5a1.52,1.52,0,0,1-.47,1.23,3,3,0,0,1-1.87.44H172.08a2,2,0,0,1-1.55-.59,2.16,2.16,0,0,1-.58-1.62V3.51h-6V29.08a6.68,6.68,0,0,1-.69,3.68,2.87,2.87,0,0,1-1.79,1A11.9,11.9,0,0,1,159,34h-1.16a7.82,7.82,0,0,1-1-.06,6.66,6.66,0,0,1-1.13-.26,3.5,3.5,0,0,1-2-1.47,4.74,4.74,0,0,1-.65-2.61,10.12,10.12,0,0,1,.07-1.2,18,18,0,0,1,1.74-5.42l-5.47-2.6a22.32,22.32,0,0,0-2.38,8.3c0,.31,0,.61,0,.9a10.78,10.78,0,0,0,1.59,5.85,9.33,9.33,0,0,0,4,3.5A12,12,0,0,0,157.84,40H159a14.67,14.67,0,0,0,5.37-.86,8.25,8.25,0,0,0,3.75-2.82,9,9,0,0,0,1.55-3.79,13.53,13.53,0,0,0,.26-2.68,8.56,8.56,0,0,0,2.15.26h32.83a10.93,10.93,0,0,0,4.44-.83,4.74,4.74,0,0,0,1.36-.81,5.07,5.07,0,0,0,1.28.81,7.87,7.87,0,0,0,1.59.57,9.74,9.74,0,0,0,2.27.26h8a10.88,10.88,0,0,0,4.43-.83,4.68,4.68,0,0,0,1.37-.81,4.81,4.81,0,0,0,1.27.81,8.1,8.1,0,0,0,1.59.57,9.74,9.74,0,0,0,2.27.26h5.32c2.54,0,4.3-.56,5.3-1.68a8.32,8.32,0,0,0,5.19,1.68,8.05,8.05,0,0,0,5-1.68,8.68,8.68,0,0,0,2.06,1.11,10.85,10.85,0,0,0,3.56.57,7.19,7.19,0,0,0,6.41-3.37,8.23,8.23,0,0,0,1.24-3.11,9.29,9.29,0,0,0,.13-1.45,6.92,6.92,0,0,0-.19-1.66C268.26,18.1,267.79,16.17,267.44,14.7Z"/>
        <rect x="271.94" y="3.55" width="6.06" height="26.53"/>
        <rect x="213.73" y="6.45" width="12.85" height="5.87"/>
        <rect x="194.91" y="34.13" width="12.85" height="5.87"/>
        <path d="M120.19,27.26q0,3.58-1.46,5.11t-4.84,1.53h-1.83v6h1.83q6.23,0,9.46-3.66,2.9-3.27,2.9-9V17.34h-6.06Z"/>
        <path d="M130.66.16a7,7,0,0,0-2.16.63,5.82,5.82,0,0,0-2,1.64,7.74,7.74,0,0,0-1.32,2.7l3.44,1a5,5,0,0,1,.62-1.38,2.32,2.32,0,0,1,.87-.78,3.33,3.33,0,0,1,1.27-.33c.5,0,1.11-.06,1.84-.06h9.05V0h-9.05A18.45,18.45,0,0,0,130.66.16Z"/>
        <rect x="131.32" y="6.23" width="6.06" height="23.82"/>
        <polygon points="18.06 16 14.15 12.1 10.31 15.97 14.17 19.87 18.06 16"/>
        <path d="M80,14.33l-5.78,1.75c.1.43.24,1.14.43,2.15l0,.35.07.35c0,.28.11.54.15.79.13.65.25,1.28.37,1.91a2.77,2.77,0,0,1,.08.61,1.45,1.45,0,0,1-.71,1.34,4.46,4.46,0,0,1-2.34.44H28.69a2.24,2.24,0,0,1-1.52-.49,1.71,1.71,0,0,1-.59-1.37V17.34h-6V28.8q0,2.73-1.05,3.81c-.83.85-2.39,1.27-4.7,1.27H12a9.65,9.65,0,0,1-1.22-.07,7.3,7.3,0,0,1-1.41-.31,4.52,4.52,0,0,1-2.51-1.84A5.77,5.77,0,0,1,6,28.44c0-.21,0-.42,0-.63a20.27,20.27,0,0,1,2.1-7.3L2.66,18A26.25,26.25,0,0,0,0,27.5c0,.31,0,.61,0,.92a11.86,11.86,0,0,0,1.76,6.49,10.41,10.41,0,0,0,4.52,3.85A13.73,13.73,0,0,0,12,39.91h2.78a15.92,15.92,0,0,0,5.45-.84,9.54,9.54,0,0,0,3.94-2.63,10.74,10.74,0,0,0,2.36-6.64,3.54,3.54,0,0,0,1,.22l.57,0H72.45c3.47,0,6-1.06,7.51-3.17a7.39,7.39,0,0,0,1.45-4.49,10.18,10.18,0,0,0-.15-1.69Q80.56,16.93,80,14.33Z"/>
        <rect x="61.63" y="33.98" width="12.85" height="5.87"/>
        <path d="M107.93,18.36a12.6,12.6,0,0,0-9.41-4,12.19,12.19,0,0,0-9.4,4.11Q85.81,22,85.78,29.17a1.33,1.33,0,0,0,0,.28c0,.08,0,.18,0,.35l0,.2h19.43a12.82,12.82,0,0,1-1.68,3.12c-1.15,1.58-3.12,2.34-5.77,2.34a6.21,6.21,0,0,1-3.53-1.1,5.75,5.75,0,0,1-.59-.46H87a10.08,10.08,0,0,0,3.26,3.76,14.43,14.43,0,0,0,8.3,2.27c4.08,0,7.26-1.25,9.45-3.72s2.75-3.66,3.32-7.77A12.07,12.07,0,0,0,107.93,18.36Zm-15.59,6.3a7.85,7.85,0,0,1,1.3-3.09,5.92,5.92,0,0,1,5-2.17,5.68,5.68,0,0,1,5,2.53,8.45,8.45,0,0,1,1.2,2.73Z"/>
    </symbol>
    <symbol id="logoen" viewBox="0 0 278 40">
        <path d="M29,21.25c-1.87-1.59-5.74-3-11.5-4.27-2.09-.48-3.75-.9-5.09-1.28a18.49,18.49,0,0,1-3.07-1.09,3.67,3.67,0,0,1-2.28-3.39A5.22,5.22,0,0,1,9.16,6.79a9.17,9.17,0,0,1,5.53-1.47,10.89,10.89,0,0,1,6.45,1.75,6.63,6.63,0,0,1,2.77,4.33h6.74a12.16,12.16,0,0,0-4.4-8.09A16.33,16.33,0,0,0,15.67,0C11,0,7.3,1.07,4.59,3.19a10.14,10.14,0,0,0-4,8.51c0,3.18,1,5.45,2.94,6.94s6.32,3,12.6,4.38c3.58.78,5.89,1.51,7.05,2.23a4.43,4.43,0,0,1,2,3.92,4.57,4.57,0,0,1-2.59,4.15,13.7,13.7,0,0,1-6.72,1.37,10.71,10.71,0,0,1-6.67-1.84,6.57,6.57,0,0,1-2.54-4.64H0a11.85,11.85,0,0,0,4.28,8.48C7.05,38.89,10.94,40,15.85,40s8.85-1,11.69-3.11a9.48,9.48,0,0,0,4.17-8.2C31.71,25.25,30.81,22.75,29,21.25Z"/>
        <rect x="120.71" y="2.11" width="6.37" height="37.83"/>
        <path d="M157.68,2.11l-13.8,37.82H151l2.64-8h16.51l2.73,8h7.35L166.42,2.11Zm-2.16,24.51,6.41-18.84,6.47,18.84Z"/>
        <polygon points="213.28 12.32 206.15 12.32 216.44 39.93 223.63 39.93 233.92 12.32 227.23 12.32 220.21 32.96 213.28 12.32"/>
        <rect x="240.41" y="12.32" width="6.37" height="27.61"/>
        <rect x="240.32" y="1.8" width="6.55" height="5.66"/>
        <path d="M56.7,26.46c0,4.75,1.16,7.24,3.45,9.72s5.55,3.75,9.77,3.75a15.27,15.27,0,0,0,8.59-2.29,10.29,10.29,0,0,0,3.37-3.79H74.93a7.54,7.54,0,0,1-.61.47,6.6,6.6,0,0,1-3.66,1.1c-2.74,0-4.75-.79-6-2.36A8.56,8.56,0,0,1,63,28.81L63,28h20.1l0-.2c0-.17,0-.28,0-.36a1.5,1.5,0,0,0,0-.29c0-4.79-1.17-8.38-3.45-10.81a12.79,12.79,0,0,0-9.73-4.14,13.21,13.21,0,0,0-9.74,4.06C57.87,18.7,56.7,22.12,56.7,26.46Zm6.69-3.81a8.6,8.6,0,0,1,1.24-2.75,5.94,5.94,0,0,1,5.15-2.55A6.16,6.16,0,0,1,75,19.54a7.56,7.56,0,0,1,1.35,3.11Z"/>
        <path d="M89,26.46c0,4.75,1.15,7.24,3.44,9.72s5.55,3.75,9.77,3.75a15.23,15.23,0,0,0,8.59-2.29,10.29,10.29,0,0,0,3.37-3.79h-7a7.54,7.54,0,0,1-.61.47,6.6,6.6,0,0,1-3.66,1.1c-2.74,0-4.74-.79-6-2.36a8.47,8.47,0,0,1-1.68-4.25L95.28,28h20.11a1.23,1.23,0,0,1,0-.2,2.12,2.12,0,0,0,0-.36,1.5,1.5,0,0,0,0-.29c0-4.79-1.17-8.38-3.45-10.81a12.79,12.79,0,0,0-9.73-4.14A13.21,13.21,0,0,0,92.5,16.3C90.2,18.7,89,22.12,89,26.46Zm6.68-3.81A8.6,8.6,0,0,1,97,19.9a6,6,0,0,1,5.16-2.55,6.18,6.18,0,0,1,5.18,2.19,7.69,7.69,0,0,1,1.34,3.11Z"/>
        <path d="M192.8,24.58q0-3.49,1.46-5c1-1,2.58-1.48,4.84-1.48h1.83V12.24H199.1q-6.22,0-9.45,3.56c-1.94,2.13-2.9,5.06-2.9,8.78V39.93h6.05Z"/>
        <path d="M50.93,34.05q-3.41,0-4.84-1.48c-1-1-1.46-2.65-1.46-5V16.78H48.2V12.32H44.63V4.45H38.57v7.87H34.9v4.46h3.67V27.59q0,5.58,2.9,8.78,3.22,3.56,9.46,3.56h1.82V34.05Z"/>
        <path d="M275.1,15.8a11.35,11.35,0,0,0-7.6-3.47v-.09h-3.68v.09a11.35,11.35,0,0,0-7.6,3.47q-2.9,3.19-2.9,8.78V39.93h6.06V24.58c0-2.33.48-4,1.46-5s2.56-1.48,4.82-1.48,3.87.49,4.82,1.48,1.46,2.65,1.46,5V39.93H278V24.58Q278,19,275.1,15.8Z"/>
    </symbol>
    <symbol id="placeholder" viewBox="0 0 600 450">
        <rect fill="#999999" class="background uk-preserve" width="600" height="450"/>
        <path fill="#ffffff" class="camera uk-preserve" d="M279.27,156l-9.72,9.72,24.83,25.48a15.47,15.47,0,0,1,5.62-.65,34.21,34.21,0,0,1,34.55,34.56,15.41,15.41,0,0,1-.64,5.61l35.2,35.2V183.64a13.85,13.85,0,0,0-13.82-13.82H334.55L320.73,156Zm-38.44.22-9.72,9.71,6,6a13.86,13.86,0,0,0-6.26,11.66v82.93a13.84,13.84,0,0,0,13.82,13.82H345.57L359.17,294l9.72-9.72Zm63.92,45.35L324.19,221C322.11,210.64,314.42,202.94,304.75,201.57Zm-33.26,4.75,7.56,7.56a22.28,22.28,0,0,0-3.24,11.23A24.5,24.5,0,0,0,300,249.3a23,23,0,0,0,11.45-3l7.34,7.35a33.44,33.44,0,0,1-18.79,6,34.21,34.21,0,0,1-34.55-34.55A33.44,33.44,0,0,1,271.49,206.32Z"/>
    </symbol>
    <symbol id="instagram" viewBox="0 0 448 512">
        <path d="M224.1 141c-63.6 0-114.9 51.3-114.9 114.9s51.3 114.9 114.9 114.9S339 319.5 339 255.9 287.7 141 224.1 141zm0 189.6c-41.1 0-74.7-33.5-74.7-74.7s33.5-74.7 74.7-74.7 74.7 33.5 74.7 74.7-33.6 74.7-74.7 74.7zm146.4-194.3c0 14.9-12 26.8-26.8 26.8-14.9 0-26.8-12-26.8-26.8s12-26.8 26.8-26.8 26.8 12 26.8 26.8zm76.1 27.2c-1.7-35.9-9.9-67.7-36.2-93.9-26.2-26.2-58-34.4-93.9-36.2-37-2.1-147.9-2.1-184.9 0-35.8 1.7-67.6 9.9-93.9 36.1s-34.4 58-36.2 93.9c-2.1 37-2.1 147.9 0 184.9 1.7 35.9 9.9 67.7 36.2 93.9s58 34.4 93.9 36.2c37 2.1 147.9 2.1 184.9 0 35.9-1.7 67.7-9.9 93.9-36.2 26.2-26.2 34.4-58 36.2-93.9 2.1-37 2.1-147.8 0-184.8zM398.8 388c-7.8 19.6-22.9 34.7-42.6 42.6-29.5 11.7-99.5 9-132.1 9s-102.7 2.6-132.1-9c-19.6-7.8-34.7-22.9-42.6-42.6-11.7-29.5-9-99.5-9-132.1s-2.6-102.7 9-132.1c7.8-19.6 22.9-34.7 42.6-42.6 29.5-11.7 99.5-9 132.1-9s102.7-2.6 132.1 9c19.6 7.8 34.7 22.9 42.6 42.6 11.7 29.5 9 99.5 9 132.1s2.7 102.7-9 132.1z"/>
    </symbol>
    <symbol id="telegram" viewBox="0 0 448 512">
        <path d="M446.7 98.6l-67.6 318.8c-5.1 22.5-18.4 28.1-37.3 17.5l-103-75.9-49.7 47.8c-5.5 5.5-10.1 10.1-20.7 10.1l7.4-104.9 190.9-172.5c8.3-7.4-1.8-11.5-12.9-4.1L117.8 284 16.2 252.2c-22.1-6.9-22.5-22.1 4.6-32.7L418.2 66.4c18.4-6.9 34.5 4.1 28.5 32.2z"/>
    </symbol>
    <symbol id="whatsapp" viewBox="0 0 448 512">
        <path d="M380.9 97.1C339 55.1 283.2 32 223.9 32c-122.4 0-222 99.6-222 222 0 39.1 10.2 77.3 29.6 111L0 480l117.7-30.9c32.4 17.7 68.9 27 106.1 27h.1c122.3 0 224.1-99.6 224.1-222 0-59.3-25.2-115-67.1-157zm-157 341.6c-33.2 0-65.7-8.9-94-25.7l-6.7-4-69.8 18.3L72 359.2l-4.4-7c-18.5-29.4-28.2-63.3-28.2-98.2 0-101.7 82.8-184.5 184.6-184.5 49.3 0 95.6 19.2 130.4 54.1 34.8 34.9 56.2 81.2 56.1 130.5 0 101.8-84.9 184.6-186.6 184.6zm101.2-138.2c-5.5-2.8-32.8-16.2-37.9-18-5.1-1.9-8.8-2.8-12.5 2.8-3.7 5.6-14.3 18-17.6 21.8-3.2 3.7-6.5 4.2-12 1.4-32.6-16.3-54-29.1-75.5-66-5.7-9.8 5.7-9.1 16.3-30.3 1.8-3.7.9-6.9-.5-9.7-1.4-2.8-12.5-30.1-17.1-41.2-4.5-10.8-9.1-9.3-12.5-9.5-3.2-.2-6.9-.2-10.6-.2-3.7 0-9.7 1.4-14.8 6.9-5.1 5.6-19.4 19-19.4 46.3 0 27.3 19.9 53.7 22.6 57.4 2.8 3.7 39.1 59.7 94.8 83.8 35.2 15.2 49 16.5 66.6 13.9 10.7-1.6 32.8-13.4 37.4-26.4 4.6-13 4.6-24.1 3.2-26.4-1.3-2.5-5-3.9-10.5-6.6z"/>
    </symbol>
    <symbol id="facebook" viewBox="0 0 320 512">
        <path d="M279.14 288l14.22-92.66h-88.91v-60.13c0-25.35 12.42-50.06 52.24-50.06h40.42V6.26S260.43 0 225.36 0c-73.22 0-121.08 44.38-121.08 124.72v70.62H22.89V288h81.39v224h100.17V288z"/>
    </symbol>
    <symbol id="twitter" viewBox="0 0 512 512">
        <path d="M459.37 151.716c.325 4.548.325 9.097.325 13.645 0 138.72-105.583 298.558-298.558 298.558-59.452 0-114.68-17.219-161.137-47.106 8.447.974 16.568 1.299 25.34 1.299 49.055 0 94.213-16.568 130.274-44.832-46.132-.975-84.792-31.188-98.112-72.772 6.498.974 12.995 1.624 19.818 1.624 9.421 0 18.843-1.3 27.614-3.573-48.081-9.747-84.143-51.98-84.143-102.985v-1.299c13.969 7.797 30.214 12.67 47.431 13.319-28.264-18.843-46.781-51.005-46.781-87.391 0-19.492 5.197-37.36 14.294-52.954 51.655 63.675 129.3 105.258 216.365 109.807-1.624-7.797-2.599-15.918-2.599-24.04 0-57.828 46.782-104.934 104.934-104.934 30.213 0 57.502 12.67 76.67 33.137 23.715-4.548 46.456-13.32 66.599-25.34-7.798 24.366-24.366 44.833-46.132 57.827 21.117-2.273 41.584-8.122 60.426-16.243-14.292 20.791-32.161 39.308-52.628 54.253z"/>
    </symbol>
    <symbol id="shopping-cart" viewBox="0 0 576 512">
        <path d="M528.12 301.319l47.273-208C578.806 78.301 567.391 64 551.99 64H159.208l-9.166-44.81C147.758 8.021 137.93 0 126.529 0H24C10.745 0 0 10.745 0 24v16c0 13.255 10.745 24 24 24h69.883l70.248 343.435C147.325 417.1 136 435.222 136 456c0 30.928 25.072 56 56 56s56-25.072 56-56c0-15.674-6.447-29.835-16.824-40h209.647C430.447 426.165 424 440.326 424 456c0 30.928 25.072 56 56 56s56-25.072 56-56c0-22.172-12.888-41.332-31.579-50.405l5.517-24.276c3.413-15.018-8.002-29.319-23.403-29.319H218.117l-6.545-32h293.145c11.206 0 20.92-7.754 23.403-18.681z"/>
    </symbol>
    <symbol id="search" viewBox="0 0 512 512">
        <path d="M505 442.7L405.3 343c-4.5-4.5-10.6-7-17-7H372c27.6-35.3 44-79.7 44-128C416 93.1 322.9 0 208 0S0 93.1 0 208s93.1 208 208 208c48.3 0 92.7-16.4 128-44v16.3c0 6.4 2.5 12.5 7 17l99.7 99.7c9.4 9.4 24.6 9.4 33.9 0l28.3-28.3c9.4-9.4 9.4-24.6.1-34zM208 336c-70.7 0-128-57.2-128-128 0-70.7 57.2-128 128-128 70.7 0 128 57.2 128 128 0 70.7-57.2 128-128 128z"/>
    </symbol>
    <symbol id="user" viewBox="0 0 448 512">
        <path d="M224 256c70.7 0 128-57.3 128-128S294.7 0 224 0 96 57.3 96 128s57.3 128 128 128zm89.6 32h-16.7c-22.2 10.2-46.9 16-72.9 16s-50.6-5.8-72.9-16h-16.7C60.2 288 0 348.2 0 422.4V464c0 26.5 21.5 48 48 48h352c26.5 0 48-21.5 48-48v-41.6c0-74.2-60.2-134.4-134.4-134.4z"/>
    </symbol>
    <symbol id="phone" viewBox="0 0 512 512">
        <path d="M493.4 24.6l-104-24c-11.3-2.6-22.9 3.3-27.5 13.9l-48 112c-4.2 9.8-1.4 21.3 6.9 28l60.6 49.6c-36 76.7-98.9 140.5-177.2 177.2l-49.6-60.6c-6.8-8.3-18.2-11.1-28-6.9l-112 48C3.9 366.5-2 378.1.6 389.4l24 104C27.1 504.2 36.7 512 48 512c256.1 0 464-207.5 464-464 0-11.2-7.7-20.9-18.6-23.4z"/>
    </symbol>
    <symbol id="bars" viewBox="0 0 448 512">
        <path d="M16 132h416c8.837 0 16-7.163 16-16V76c0-8.837-7.163-16-16-16H16C7.163 60 0 67.163 0 76v40c0 8.837 7.163 16 16 16zm0 160h416c8.837 0 16-7.163 16-16v-40c0-8.837-7.163-16-16-16H16c-8.837 0-16 7.163-16 16v40c0 8.837 7.163 16 16 16zm0 160h416c8.837 0 16-7.163 16-16v-40c0-8.837-7.163-16-16-16H16c-8.837 0-16 7.163-16 16v40c0 8.837 7.163 16 16 16z"/>
    </symbol>
    <symbol id="orders" viewBox="0 0 512 512">
        <path d="M16 128h416c8.84 0 16-7.16 16-16V48c0-8.84-7.16-16-16-16H16C7.16 32 0 39.16 0 48v64c0 8.84 7.16 16 16 16zm480 80H80c-8.84 0-16 7.16-16 16v64c0 8.84 7.16 16 16 16h416c8.84 0 16-7.16 16-16v-64c0-8.84-7.16-16-16-16zm-64 176H16c-8.84 0-16 7.16-16 16v64c0 8.84 7.16 16 16 16h416c8.84 0 16-7.16 16-16v-64c0-8.84-7.16-16-16-16z"/>
    </symbol>
    <symbol id="lock" viewBox="0 0 448 512">
        <path d="M400 224h-24v-72C376 68.2 307.8 0 224 0S72 68.2 72 152v72H48c-26.5 0-48 21.5-48 48v192c0 26.5 21.5 48 48 48h352c26.5 0 48-21.5 48-48V272c0-26.5-21.5-48-48-48zM264 392c0 22.1-17.9 40-40 40s-40-17.9-40-40v-48c0-22.1 17.9-40 40-40s40 17.9 40 40v48zm32-168H152v-72c0-39.7 32.3-72 72-72s72 32.3 72 72v72z"/>
    </symbol>
    <symbol id="map" viewBox="0 0 512 512">
        <path d="M507.31 84.69L464 41.37c-6-6-14.14-9.37-22.63-9.37H288V16c0-8.84-7.16-16-16-16h-32c-8.84 0-16 7.16-16 16v16H56c-13.25 0-24 10.75-24 24v80c0 13.25 10.75 24 24 24h385.37c8.49 0 16.62-3.37 22.63-9.37l43.31-43.31c6.25-6.26 6.25-16.38 0-22.63zM224 496c0 8.84 7.16 16 16 16h32c8.84 0 16-7.16 16-16V384h-64v112zm232-272H288v-32h-64v32H70.63c-8.49 0-16.62 3.37-22.63 9.37L4.69 276.69c-6.25 6.25-6.25 16.38 0 22.63L48 342.63c6 6 14.14 9.37 22.63 9.37H456c13.25 0 24-10.75 24-24v-80c0-13.25-10.75-24-24-24z"/>
    </symbol>
    <symbol id="bookmark" viewBox="0 0 384 512">
        <path d="M0 512V48C0 21.49 21.49 0 48 0h288c26.51 0 48 21.49 48 48v464L192 400 0 512z"/>
    </symbol>
    <symbol id="signout" viewBox="0 0 512 512">
        <path d="M497 273L329 441c-15 15-41 4.5-41-17v-96H152c-13.3 0-24-10.7-24-24v-96c0-13.3 10.7-24 24-24h136V88c0-21.4 25.9-32 41-17l168 168c9.3 9.4 9.3 24.6 0 34zM192 436v-40c0-6.6-5.4-12-12-12H96c-17.7 0-32-14.3-32-32V160c0-17.7 14.3-32 32-32h84c6.6 0 12-5.4 12-12V76c0-6.6-5.4-12-12-12H96c-53 0-96 43-96 96v192c0 53 43 96 96 96h84c6.6 0 12-5.4 12-12z"/>
    </symbol>
    <symbol id="check" viewBox="0 0 512 512">
        <path d="M173.898 439.404l-166.4-166.4c-9.997-9.997-9.997-26.206 0-36.204l36.203-36.204c9.997-9.998 26.207-9.998 36.204 0L192 312.69 432.095 72.596c9.997-9.997 26.207-9.997 36.204 0l36.203 36.204c9.997 9.997 9.997 26.206 0 36.204l-294.4 294.401c-9.998 9.997-26.207 9.997-36.204-.001z"/>
    </symbol>
    <symbol id="trash" viewBox="0 0 448 512">
        <path d="M432 32H312l-9.4-18.7A24 24 0 0 0 281.1 0H166.8a23.72 23.72 0 0 0-21.4 13.3L136 32H16A16 16 0 0 0 0 48v32a16 16 0 0 0 16 16h416a16 16 0 0 0 16-16V48a16 16 0 0 0-16-16zM53.2 467a48 48 0 0 0 47.9 45h245.8a48 48 0 0 0 47.9-45L416 128H32z"/>
    </symbol>
    <symbol id="box-open" viewBox="0 0 640 512">
        <path d="M425.7 256c-16.9 0-32.8-9-41.4-23.4L320 126l-64.2 106.6c-8.7 14.5-24.6 23.5-41.5 23.5-4.5 0-9-.6-13.3-1.9L64 215v178c0 14.7 10 27.5 24.2 31l216.2 54.1c10.2 2.5 20.9 2.5 31 0L551.8 424c14.2-3.6 24.2-16.4 24.2-31V215l-137 39.1c-4.3 1.3-8.8 1.9-13.3 1.9zm212.6-112.2L586.8 41c-3.1-6.2-9.8-9.8-16.7-8.9L320 64l91.7 152.1c3.8 6.3 11.4 9.3 18.5 7.3l197.9-56.5c9.9-2.9 14.7-13.9 10.2-23.1zM53.2 41L1.7 143.8c-4.6 9.2.3 20.2 10.1 23l197.9 56.5c7.1 2 14.7-1 18.5-7.3L320 64 69.8 32.1c-6.9-.8-13.5 2.7-16.6 8.9z"/>
    </symbol>
    <symbol id="user-plus" viewBox="0 0 640 512">
        <path d="M624 208h-64v-64c0-8.8-7.2-16-16-16h-32c-8.8 0-16 7.2-16 16v64h-64c-8.8 0-16 7.2-16 16v32c0 8.8 7.2 16 16 16h64v64c0 8.8 7.2 16 16 16h32c8.8 0 16-7.2 16-16v-64h64c8.8 0 16-7.2 16-16v-32c0-8.8-7.2-16-16-16zm-400 48c70.7 0 128-57.3 128-128S294.7 0 224 0 96 57.3 96 128s57.3 128 128 128zm89.6 32h-16.7c-22.2 10.2-46.9 16-72.9 16s-50.6-5.8-72.9-16h-16.7C60.2 288 0 348.2 0 422.4V464c0 26.5 21.5 48 48 48h352c26.5 0 48-21.5 48-48v-41.6c0-74.2-60.2-134.4-134.4-134.4z"/>
    </symbol>
    <symbol id="signin" viewBox="0 0 512 512">
        <path d="M137.2 110.3l21.9-21.9c9.3-9.3 24.5-9.4 33.9-.1L344.9 239c9.5 9.4 9.5 24.7 0 34.1L193 423.7c-9.4 9.3-24.5 9.3-33.9-.1l-21.9-21.9c-9.7-9.7-9.3-25.4.8-34.7l77.6-71.1H24c-13.3 0-24-10.7-24-24v-32c0-13.3 10.7-24 24-24h191.5l-77.6-71.1c-10-9.1-10.4-24.9-.7-34.5zM512 352V160c0-53-43-96-96-96h-84c-6.6 0-12 5.4-12 12v40c0 6.6 5.4 12 12 12h84c17.7 0 32 14.3 32 32v192c0 17.7-14.3 32-32 32h-84c-6.6 0-12 5.4-12 12v40c0 6.6 5.4 12 12 12h84c53 0 96-43 96-96z"/>
    </symbol>
    <symbol id="refresh" viewBox="0 0 512 512">
        <path d="M370.72 133.28C339.458 104.008 298.888 87.962 255.848 88c-77.458.068-144.328 53.178-162.791 126.85-1.344 5.363-6.122 9.15-11.651 9.15H24.103c-7.498 0-13.194-6.807-11.807-14.176C33.933 94.924 134.813 8 256 8c66.448 0 126.791 26.136 171.315 68.685L463.03 40.97C478.149 25.851 504 36.559 504 57.941V192c0 13.255-10.745 24-24 24H345.941c-21.382 0-32.09-25.851-16.971-40.971l41.75-41.749zM32 296h134.059c21.382 0 32.09 25.851 16.971 40.971l-41.75 41.75c31.262 29.273 71.835 45.319 114.876 45.28 77.418-.07 144.315-53.144 162.787-126.849 1.344-5.363 6.122-9.15 11.651-9.15h57.304c7.498 0 13.194 6.807 11.807 14.176C478.067 417.076 377.187 504 256 504c-66.448 0-126.791-26.136-171.315-68.685L48.97 471.03C33.851 486.149 8 475.441 8 454.059V320c0-13.255 10.745-24 24-24z"/>
    </symbol>
    <symbol id="tag" viewBox="0 0 512 512">
        <path d="M0 252.118V48C0 21.49 21.49 0 48 0h204.118a48 48 0 0 1 33.941 14.059l211.882 211.882c18.745 18.745 18.745 49.137 0 67.882L293.823 497.941c-18.745 18.745-49.137 18.745-67.882 0L14.059 286.059A48 48 0 0 1 0 252.118zM112 64c-26.51 0-48 21.49-48 48s21.49 48 48 48 48-21.49 48-48-21.49-48-48-48z"/>
    </symbol>
    <symbol id="tags" viewBox="0 0 640 512">
        <path d="M497.941 225.941L286.059 14.059A48 48 0 0 0 252.118 0H48C21.49 0 0 21.49 0 48v204.118a48 48 0 0 0 14.059 33.941l211.882 211.882c18.744 18.745 49.136 18.746 67.882 0l204.118-204.118c18.745-18.745 18.745-49.137 0-67.882zM112 160c-26.51 0-48-21.49-48-48s21.49-48 48-48 48 21.49 48 48-21.49 48-48 48zm513.941 133.823L421.823 497.941c-18.745 18.745-49.137 18.745-67.882 0l-.36-.36L527.64 323.522c16.999-16.999 26.36-39.6 26.36-63.64s-9.362-46.641-26.36-63.64L331.397 0h48.721a48 48 0 0 1 33.941 14.059l211.882 211.882c18.745 18.745 18.745 49.137 0 67.882z"/>
    </symbol>
    <symbol id="chevron-circle-up" viewBox="0 0 512 512">
        <path d="M8 256C8 119 119 8 256 8s248 111 248 248-111 248-248 248S8 393 8 256zm231-113.9L103.5 277.6c-9.4 9.4-9.4 24.6 0 33.9l17 17c9.4 9.4 24.6 9.4 33.9 0L256 226.9l101.6 101.6c9.4 9.4 24.6 9.4 33.9 0l17-17c9.4-9.4 9.4-24.6 0-33.9L273 142.1c-9.4-9.4-24.6-9.4-34 0z"/>
    </symbol>
    <symbol id="chevron-circle-down" viewBox="0 0 512 512">
        <path d="M504 256c0 137-111 248-248 248S8 393 8 256 119 8 256 8s248 111 248 248zM273 369.9l135.5-135.5c9.4-9.4 9.4-24.6 0-33.9l-17-17c-9.4-9.4-24.6-9.4-33.9 0L256 285.1 154.4 183.5c-9.4-9.4-24.6-9.4-33.9 0l-17 17c-9.4 9.4-9.4 24.6 0 33.9L239 369.9c9.4 9.4 24.6 9.4 34 0z"/>
    </symbol>
    <symbol id="envelope" viewBox="0 0 512 512">
        <path d="M502.3 190.8c3.9-3.1 9.7-.2 9.7 4.7V400c0 26.5-21.5 48-48 48H48c-26.5 0-48-21.5-48-48V195.6c0-5 5.7-7.8 9.7-4.7 22.4 17.4 52.1 39.5 154.1 113.6 21.1 15.4 56.7 47.8 92.2 47.6 35.7.3 72-32.8 92.3-47.6 102-74.1 131.6-96.3 154-113.7zM256 320c23.2.4 56.6-29.2 73.4-41.4 132.7-96.3 142.8-104.7 173.4-128.7 5.8-4.5 9.2-11.5 9.2-18.9v-19c0-26.5-21.5-48-48-48H48C21.5 64 0 85.5 0 112v19c0 7.4 3.4 14.3 9.2 18.9 30.6 23.9 40.7 32.4 173.4 128.7 16.8 12.2 50.2 41.8 73.4 41.4z"/>
    </symbol>
    <symbol id="fax" viewBox="0 0 512 512">
        <path d="M480 160V77.25a32 32 0 0 0-9.38-22.63L425.37 9.37A32 32 0 0 0 402.75 0H160a32 32 0 0 0-32 32v448a32 32 0 0 0 32 32h320a32 32 0 0 0 32-32V192a32 32 0 0 0-32-32zM288 432a16 16 0 0 1-16 16h-32a16 16 0 0 1-16-16v-32a16 16 0 0 1 16-16h32a16 16 0 0 1 16 16zm0-128a16 16 0 0 1-16 16h-32a16 16 0 0 1-16-16v-32a16 16 0 0 1 16-16h32a16 16 0 0 1 16 16zm128 128a16 16 0 0 1-16 16h-32a16 16 0 0 1-16-16v-32a16 16 0 0 1 16-16h32a16 16 0 0 1 16 16zm0-128a16 16 0 0 1-16 16h-32a16 16 0 0 1-16-16v-32a16 16 0 0 1 16-16h32a16 16 0 0 1 16 16zm0-112H192V64h160v48a16 16 0 0 0 16 16h48zM64 128H32a32 32 0 0 0-32 32v320a32 32 0 0 0 32 32h32a32 32 0 0 0 32-32V160a32 32 0 0 0-32-32z"/>
    </symbol>
    <symbol id="mobile" viewBox="0 0 320 512">
        <path d="M272 0H48C21.5 0 0 21.5 0 48v416c0 26.5 21.5 48 48 48h224c26.5 0 48-21.5 48-48V48c0-26.5-21.5-48-48-48zM160 480c-17.7 0-32-14.3-32-32s14.3-32 32-32 32 14.3 32 32-14.3 32-32 32z"/>
    </symbol>
    <symbol id="info-circle" viewBox="0 0 512 512">
        <path d="M256 8C119.043 8 8 119.083 8 256c0 136.997 111.043 248 248 248s248-111.003 248-248C504 119.083 392.957 8 256 8zm0 110c23.196 0 42 18.804 42 42s-18.804 42-42 42-42-18.804-42-42 18.804-42 42-42zm56 254c0 6.627-5.373 12-12 12h-88c-6.627 0-12-5.373-12-12v-24c0-6.627 5.373-12 12-12h12v-64h-12c-6.627 0-12-5.373-12-12v-24c0-6.627 5.373-12 12-12h64c6.627 0 12 5.373 12 12v100h12c6.627 0 12 5.373 12 12v24z"/>
    </symbol>
    <symbol id="user-circle" viewBox="0 0 496 512">
        <path d="M248 8C111 8 0 119 0 256s111 248 248 248 248-111 248-248S385 8 248 8zm0 96c48.6 0 88 39.4 88 88s-39.4 88-88 88-88-39.4-88-88 39.4-88 88-88zm0 344c-58.7 0-111.3-26.6-146.5-68.2 18.8-35.4 55.6-59.8 98.5-59.8 2.4 0 4.8.4 7.1 1.1 13 4.2 26.6 6.9 40.9 6.9 14.3 0 28-2.7 40.9-6.9 2.3-.7 4.7-1.1 7.1-1.1 42.9 0 79.7 24.4 98.5 59.8C359.3 421.4 306.7 448 248 448z"/>
    </symbol>
    <symbol id="check-circle" viewBox="0 0 512 512">
        <path d="M504 256c0 136.967-111.033 248-248 248S8 392.967 8 256 119.033 8 256 8s248 111.033 248 248zM227.314 387.314l184-184c6.248-6.248 6.248-16.379 0-22.627l-22.627-22.627c-6.248-6.249-16.379-6.249-22.628 0L216 308.118l-70.059-70.059c-6.248-6.248-16.379-6.248-22.628 0l-22.627 22.627c-6.248 6.248-6.248 16.379 0 22.627l104 104c6.249 6.249 16.379 6.249 22.628.001z"/>
    </symbol>
    <symbol id="accounttype0" viewBox="0 0 640 512">
        <path d="M96 224c35.3 0 64-28.7 64-64s-28.7-64-64-64-64 28.7-64 64 28.7 64 64 64zm448 0c35.3 0 64-28.7 64-64s-28.7-64-64-64-64 28.7-64 64 28.7 64 64 64zm32 32h-64c-17.6 0-33.5 7.1-45.1 18.6 40.3 22.1 68.9 62 75.1 109.4h66c17.7 0 32-14.3 32-32v-32c0-35.3-28.7-64-64-64zm-256 0c61.9 0 112-50.1 112-112S381.9 32 320 32 208 82.1 208 144s50.1 112 112 112zm76.8 32h-8.3c-20.8 10-43.9 16-68.5 16s-47.6-6-68.5-16h-8.3C179.6 288 128 339.6 128 403.2V432c0 26.5 21.5 48 48 48h288c26.5 0 48-21.5 48-48v-28.8c0-63.6-51.6-115.2-115.2-115.2zm-223.7-13.4C161.5 263.1 145.6 256 128 256H64c-35.3 0-64 28.7-64 64v32c0 17.7 14.3 32 32 32h65.9c6.3-47.4 34.9-87.3 75.2-109.4z"/>
    </symbol>
    <symbol id="accounttype1" viewBox="0 0 448 512">
        <path d="M436 480h-20V24c0-13.255-10.745-24-24-24H56C42.745 0 32 10.745 32 24v456H12c-6.627 0-12 5.373-12 12v20h448v-20c0-6.627-5.373-12-12-12zM128 76c0-6.627 5.373-12 12-12h40c6.627 0 12 5.373 12 12v40c0 6.627-5.373 12-12 12h-40c-6.627 0-12-5.373-12-12V76zm0 96c0-6.627 5.373-12 12-12h40c6.627 0 12 5.373 12 12v40c0 6.627-5.373 12-12 12h-40c-6.627 0-12-5.373-12-12v-40zm52 148h-40c-6.627 0-12-5.373-12-12v-40c0-6.627 5.373-12 12-12h40c6.627 0 12 5.373 12 12v40c0 6.627-5.373 12-12 12zm76 160h-64v-84c0-6.627 5.373-12 12-12h40c6.627 0 12 5.373 12 12v84zm64-172c0 6.627-5.373 12-12 12h-40c-6.627 0-12-5.373-12-12v-40c0-6.627 5.373-12 12-12h40c6.627 0 12 5.373 12 12v40zm0-96c0 6.627-5.373 12-12 12h-40c-6.627 0-12-5.373-12-12v-40c0-6.627 5.373-12 12-12h40c6.627 0 12 5.373 12 12v40zm0-96c0 6.627-5.373 12-12 12h-40c-6.627 0-12-5.373-12-12V76c0-6.627 5.373-12 12-12h40c6.627 0 12 5.373 12 12v40z"/>
    </symbol>
    <symbol id="cooperationtype0" viewBox="0 0 640 512">
        <path d="M96 224c35.3 0 64-28.7 64-64s-28.7-64-64-64-64 28.7-64 64 28.7 64 64 64zm448 0c35.3 0 64-28.7 64-64s-28.7-64-64-64-64 28.7-64 64 28.7 64 64 64zm32 32h-64c-17.6 0-33.5 7.1-45.1 18.6 40.3 22.1 68.9 62 75.1 109.4h66c17.7 0 32-14.3 32-32v-32c0-35.3-28.7-64-64-64zm-256 0c61.9 0 112-50.1 112-112S381.9 32 320 32 208 82.1 208 144s50.1 112 112 112zm76.8 32h-8.3c-20.8 10-43.9 16-68.5 16s-47.6-6-68.5-16h-8.3C179.6 288 128 339.6 128 403.2V432c0 26.5 21.5 48 48 48h288c26.5 0 48-21.5 48-48v-28.8c0-63.6-51.6-115.2-115.2-115.2zm-223.7-13.4C161.5 263.1 145.6 256 128 256H64c-35.3 0-64 28.7-64 64v32c0 17.7 14.3 32 32 32h65.9c6.3-47.4 34.9-87.3 75.2-109.4z"/>
    </symbol>
    <symbol id="cooperationtype1" viewBox="0 0 448 512">
        <path d="M436 480h-20V24c0-13.255-10.745-24-24-24H56C42.745 0 32 10.745 32 24v456H12c-6.627 0-12 5.373-12 12v20h448v-20c0-6.627-5.373-12-12-12zM128 76c0-6.627 5.373-12 12-12h40c6.627 0 12 5.373 12 12v40c0 6.627-5.373 12-12 12h-40c-6.627 0-12-5.373-12-12V76zm0 96c0-6.627 5.373-12 12-12h40c6.627 0 12 5.373 12 12v40c0 6.627-5.373 12-12 12h-40c-6.627 0-12-5.373-12-12v-40zm52 148h-40c-6.627 0-12-5.373-12-12v-40c0-6.627 5.373-12 12-12h40c6.627 0 12 5.373 12 12v40c0 6.627-5.373 12-12 12zm76 160h-64v-84c0-6.627 5.373-12 12-12h40c6.627 0 12 5.373 12 12v84zm64-172c0 6.627-5.373 12-12 12h-40c-6.627 0-12-5.373-12-12v-40c0-6.627 5.373-12 12-12h40c6.627 0 12 5.373 12 12v40zm0-96c0 6.627-5.373 12-12 12h-40c-6.627 0-12-5.373-12-12v-40c0-6.627 5.373-12 12-12h40c6.627 0 12 5.373 12 12v40zm0-96c0 6.627-5.373 12-12 12h-40c-6.627 0-12-5.373-12-12V76c0-6.627 5.373-12 12-12h40c6.627 0 12 5.373 12 12v40z"/>
    </symbol>
    <symbol id="user-check" viewBox="0 0 640 512">
        <path d="M636.6 159.6a12 12 0 0 1-.1 16.8L495.2 316.6a11.86 11.86 0 0 1-16.8-.1l-81.7-82.3a11.86 11.86 0 0 1 .1-16.8l28.1-27.9a11.86 11.86 0 0 1 16.8.1l45.5 45.8 104.8-104a11.86 11.86 0 0 1 16.8.1z" class="uk-text-success"/>
        <path d="M224 256A128 128 0 1 0 96 128a128 128 0 0 0 128 128zm89.6 32h-16.7a174.08 174.08 0 0 1-145.8 0h-16.7A134.43 134.43 0 0 0 0 422.4V464a48 48 0 0 0 48 48h352a48 48 0 0 0 48-48v-41.6A134.43 134.43 0 0 0 313.6 288z" class="uk-text-secondary"/>
    </symbol>
    <symbol id="filter" viewBox="0 0 512 512">
        <path d="M487.976 0H24.028C2.71 0-8.047 25.866 7.058 40.971L192 225.941V432c0 7.831 3.821 15.17 10.237 19.662l80 55.98C298.02 518.69 320 507.493 320 487.98V225.941l184.947-184.97C520.021 25.896 509.338 0 487.976 0z"/>
    </symbol>
    <symbol id="times-circle" viewBox="0 0 512 512">
        <path d="M256 8C119 8 8 119 8 256s111 248 248 248 248-111 248-248S393 8 256 8zm121.6 313.1c4.7 4.7 4.7 12.3 0 17L338 377.6c-4.7 4.7-12.3 4.7-17 0L256 312l-65.1 65.6c-4.7 4.7-12.3 4.7-17 0L134.4 338c-4.7-4.7-4.7-12.3 0-17l65.6-65-65.6-65.1c-4.7-4.7-4.7-12.3 0-17l39.6-39.6c4.7-4.7 12.3-4.7 17 0l65 65.7 65.1-65.6c4.7-4.7 12.3-4.7 17 0l39.6 39.6c4.7 4.7 4.7 12.3 0 17L312 256l65.6 65.1z"/>
    </symbol>
    <symbol id="home" viewBox="0 0 576 512">
        <path d="M280.37 148.26L96 300.11V464a16 16 0 0 0 16 16l112.06-.29a16 16 0 0 0 15.92-16V368a16 16 0 0 1 16-16h64a16 16 0 0 1 16 16v95.64a16 16 0 0 0 16 16.05L464 480a16 16 0 0 0 16-16V300L295.67 148.26a12.19 12.19 0 0 0-15.3 0zM571.6 251.47L488 182.56V44.05a12 12 0 0 0-12-12h-56a12 12 0 0 0-12 12v72.61L318.47 43a48 48 0 0 0-61 0L4.34 251.47a12 12 0 0 0-1.6 16.9l25.5 31A12 12 0 0 0 45.15 301l235.22-193.74a12.19 12.19 0 0 1 15.3 0L530.9 301a12 12 0 0 0 16.9-1.6l25.5-31a12 12 0 0 0-1.7-16.93z"/>
    </symbol>
    <symbol id="chevron-right" viewBox="0 0 320 512">
        <path d="M285.476 272.971L91.132 467.314c-9.373 9.373-24.569 9.373-33.941 0l-22.667-22.667c-9.357-9.357-9.375-24.522-.04-33.901L188.505 256 34.484 101.255c-9.335-9.379-9.317-24.544.04-33.901l22.667-22.667c9.373-9.373 24.569-9.373 33.941 0L285.475 239.03c9.373 9.372 9.373 24.568.001 33.941z"/>
    </symbol>
    <symbol id="file-search" viewBox="0 0 640 512">
        <path d="M300.59 257.71a160.1 160.1 0 0 0 83.41 209v21.45A23.94 23.94 0 0 1 360 512H23.88A23.94 23.94 0 0 1 0 488V23.88A23.94 23.94 0 0 1 24 0h232v112a16 16 0 0 0 16 16h112v45.33a160.34 160.34 0 0 0-83.41 84.38z" class="uk-text-lightgray"/>
        <path d="M384 121.9a23.9 23.9 0 0 0-7-16.9L279.1 7a24 24 0 0 0-17-7H256v112a16 16 0 0 0 16 16h112zm251.31 340.16l-77.41-77.41A126.65 126.65 0 0 0 576 320a128 128 0 1 0-128 128c23.7 0 45.61-6.88 64.65-18.11l77.41 77.42a16 16 0 0 0 22.63 0l22.62-22.62a16 16 0 0 0 0-22.63zM448 384a64 64 0 1 1 64-64 64 64 0 0 1-64 64z" class="uk-text-gray"/>
    </symbol>
    <symbol id="shopping-cart-duotone" viewBox="0 0 576 512">
        <path d="M552 64H159.21l52.36 256h293.15a24 24 0 0 0 23.4-18.68l47.27-208a24 24 0 0 0-18.08-28.72A23.69 23.69 0 0 0 552 64z" class="uk-text-lightgray"/>
        <path d="M218.12 352h268.42a24 24 0 0 1 23.4 29.32l-5.52 24.28a56 56 0 1 1-63.6 10.4H231.18a56 56 0 1 1-67.05-8.57L93.88 64H24A24 24 0 0 1 0 40V24A24 24 0 0 1 24 0h102.53A24 24 0 0 1 150 19.19z" class="uk-text-gray"/>
    </symbol>
    <symbol id="plus-circle" viewBox="0 0 512 512">
        <path d="M256 8C119 8 8 119 8 256s111 248 248 248 248-111 248-248S393 8 256 8zm144 276c0 6.6-5.4 12-12 12h-92v92c0 6.6-5.4 12-12 12h-56c-6.6 0-12-5.4-12-12v-92h-92c-6.6 0-12-5.4-12-12v-56c0-6.6 5.4-12 12-12h92v-92c0-6.6 5.4-12 12-12h56c6.6 0 12 5.4 12 12v92h92c6.6 0 12 5.4 12 12v56z"/>
    </symbol>
    <symbol id="minus-circle" viewBox="0 0 512 512">
        <path d="M256 8C119 8 8 119 8 256s111 248 248 248 248-111 248-248S393 8 256 8zM124 296c-6.6 0-12-5.4-12-12v-56c0-6.6 5.4-12 12-12h264c6.6 0 12 5.4 12 12v56c0 6.6-5.4 12-12 12H124z"/>
    </symbol>
    <symbol id="ellipsis-v" viewBox="0 0 192 512">
        <path d="M96 184c39.8 0 72 32.2 72 72s-32.2 72-72 72-72-32.2-72-72 32.2-72 72-72zM24 80c0 39.8 32.2 72 72 72s72-32.2 72-72S135.8 8 96 8 24 40.2 24 80zm0 352c0 39.8 32.2 72 72 72s72-32.2 72-72-32.2-72-72-72-72 32.2-72 72z"/>
    </symbol>
    <symbol id="ellipsis-h" viewBox="0 0 512 512">
        <path d="M328 256c0 39.8-32.2 72-72 72s-72-32.2-72-72 32.2-72 72-72 72 32.2 72 72zm104-72c-39.8 0-72 32.2-72 72s32.2 72 72 72 72-32.2 72-72-32.2-72-72-72zm-352 0c-39.8 0-72 32.2-72 72s32.2 72 72 72 72-32.2 72-72-32.2-72-72-72z"/>
    </symbol>
    <symbol id="map-marked-alt" viewBox="0 0 576 512">
        <path d="M554.06 161.16L416 224v288l139.88-55.95A32 32 0 0 0 576 426.34V176a16 16 0 0 0-21.94-14.84zM20.12 216A32 32 0 0 0 0 245.66V496a16 16 0 0 0 21.94 14.86L160 448V214.92a302.84 302.84 0 0 1-21.25-46.42zM288 359.67a47.78 47.78 0 0 1-36.51-17C231.83 319.51 210.92 293.09 192 266v182l192 64V266c-18.92 27.09-39.82 53.52-59.49 76.72A47.8 47.8 0 0 1 288 359.67z" class="uk-text-lightgray"/>
        <path d="M288 0a126 126 0 0 0-126 126c0 56.26 82.35 158.8 113.9 196a15.77 15.77 0 0 0 24.2 0C331.65 284.8 414 182.26 414 126A126 126 0 0 0 288 0zm0 168a42 42 0 1 1 42-42 42 42 0 0 1-42 42z" class="uk-text-gray"/>
    </symbol>
    <symbol id="box-open" viewBox="0 0 640 512">
        <path d="M439 254.14L576 215v178a32.07 32.07 0 0 1-24.2 31l-216.4 54.1a65 65 0 0 1-31 0L88.24 424A31.9 31.9 0 0 1 64 393V215l137 39.2a46 46 0 0 0 13.3 1.9 48.64 48.64 0 0 0 41.5-23.5L320 126l64.3 106.6a48.47 48.47 0 0 0 41.4 23.4 46 46 0 0 0 13.3-1.86z" class="uk-text-lightgray"/>
        <path d="M638.34 143.84L586.84 41a16.33 16.33 0 0 0-16.7-8.9L320 64l91.7 152.1a16.44 16.44 0 0 0 18.5 7.3l197.9-56.5a16.47 16.47 0 0 0 10.24-23.06zM53.24 41L1.74 143.84a16.3 16.3 0 0 0 10.1 23l197.9 56.5a16.44 16.44 0 0 0 18.5-7.3L320 64 69.84 32.14A16.34 16.34 0 0 0 53.24 41z" class="uk-text-gray"/>
    </symbol>
    <symbol id="receipt" viewBox="0 0 384 512">
        <path d="M358.4 3.2L320 48 265.6 3.2a15.9 15.9 0 0 0-19.2 0L192 48 137.6 3.2a15.9 15.9 0 0 0-19.2 0L64 48 25.6 3.2C15-4.7 0 2.8 0 16v480c0 13.2 15 20.7 25.6 12.8L64 464l54.4 44.8a15.9 15.9 0 0 0 19.2 0L192 464l54.4 44.8a15.9 15.9 0 0 0 19.2 0L320 464l38.4 44.8c10.5 7.9 25.6.4 25.6-12.8V16c0-13.2-15-20.7-25.6-12.8zM320 360c0 4.4-3.6 8-8 8H72c-4.4 0-8-3.6-8-8v-16c0-4.4 3.6-8 8-8h240c4.4 0 8 3.6 8 8v16zm0-96c0 4.4-3.6 8-8 8H72c-4.4 0-8-3.6-8-8v-16c0-4.4 3.6-8 8-8h240c4.4 0 8 3.6 8 8v16zm0-96c0 4.4-3.6 8-8 8H72c-4.4 0-8-3.6-8-8v-16c0-4.4 3.6-8 8-8h240c4.4 0 8 3.6 8 8v16z"/>
    </symbol>
    <symbol id="truck" viewBox="0 0 640 512">
        <path d="M624 352h-16V243.9c0-12.7-5.1-24.9-14.1-33.9L494 110.1c-9-9-21.2-14.1-33.9-14.1H416V48c0-26.5-21.5-48-48-48H48C21.5 0 0 21.5 0 48v320c0 26.5 21.5 48 48 48h16c0 53 43 96 96 96s96-43 96-96h128c0 53 43 96 96 96s96-43 96-96h48c8.8 0 16-7.2 16-16v-32c0-8.8-7.2-16-16-16zM160 464c-26.5 0-48-21.5-48-48s21.5-48 48-48 48 21.5 48 48-21.5 48-48 48zm320 0c-26.5 0-48-21.5-48-48s21.5-48 48-48 48 21.5 48 48-21.5 48-48 48zm80-208H416V144h44.1l99.9 99.9V256z"/>
    </symbol>
    <symbol id="shipping-fast" viewBox="0 0 640 512">
        <path d="M624 352h-16V243.9c0-12.7-5.1-24.9-14.1-33.9L494 110.1c-9-9-21.2-14.1-33.9-14.1H416V48c0-26.5-21.5-48-48-48H112C85.5 0 64 21.5 64 48v48H8c-4.4 0-8 3.6-8 8v16c0 4.4 3.6 8 8 8h272c4.4 0 8 3.6 8 8v16c0 4.4-3.6 8-8 8H40c-4.4 0-8 3.6-8 8v16c0 4.4 3.6 8 8 8h208c4.4 0 8 3.6 8 8v16c0 4.4-3.6 8-8 8H8c-4.4 0-8 3.6-8 8v16c0 4.4 3.6 8 8 8h208c4.4 0 8 3.6 8 8v16c0 4.4-3.6 8-8 8H64v128c0 53 43 96 96 96s96-43 96-96h128c0 53 43 96 96 96s96-43 96-96h48c8.8 0 16-7.2 16-16v-32c0-8.8-7.2-16-16-16zM160 464c-26.5 0-48-21.5-48-48s21.5-48 48-48 48 21.5 48 48-21.5 48-48 48zm320 0c-26.5 0-48-21.5-48-48s21.5-48 48-48 48 21.5 48 48-21.5 48-48 48zm80-208H416V144h44.1l99.9 99.9V256z"/>
    </symbol>
    <symbol id="clipboard-check" viewBox="0 0 384 512">
        <path d="M336 64h-80c0-35.3-28.7-64-64-64s-64 28.7-64 64H48C21.5 64 0 85.5 0 112v352c0 26.5 21.5 48 48 48h288c26.5 0 48-21.5 48-48V112c0-26.5-21.5-48-48-48zM192 40c13.3 0 24 10.7 24 24s-10.7 24-24 24-24-10.7-24-24 10.7-24 24-24zm121.2 231.8l-143 141.8c-4.7 4.7-12.3 4.6-17-.1l-82.6-83.3c-4.7-4.7-4.6-12.3.1-17L99.1 285c4.7-4.7 12.3-4.6 17 .1l46 46.4 106-105.2c4.7-4.7 12.3-4.6 17 .1l28.2 28.4c4.7 4.8 4.6 12.3-.1 17z"/>
    </symbol>
    <symbol id="shipping-3" viewBox="0 0 384 512">
        <path d="M0 479.9c0 17.7 14.3 32 32 32s32-14.3 32-32v-74.5C48 391.7.6 350.8 0 350.3v129.6zM368 96H208c-8.8 0-16 7.2-16 16v112h-25.4l-33.3-61.8c-11.1-21.1-32.8-34.2-56.6-34.2H48c-26.5 0-48 21.5-48 48v103c0 18.7 8.2 36.4 22.4 48.6l76 65.1 14.1 92.5c1 5.7 10.1 30.7 36.8 26.3 17.4-2.9 29.2-19.4 26.3-36.8l-14.1-92.5c-2.5-14.8-10.1-28.3-21.5-38.1l-44-37.7v-78.3l32 59.9h240c8.8 0 16-7.2 16-16V112c0-8.9-7.2-16-16-16zM80 96c26.5 0 48-21.5 48-48S106.5 0 80 0 32 21.5 32 48s21.5 48 48 48z"/>
    </symbol>
    <symbol id="shippingmethodbanktransfer" viewBox="0 0 576 512">
        <path d="M0 432c0 26.5 21.5 48 48 48h480c26.5 0 48-21.5 48-48V256H0v176zm192-68c0-6.6 5.4-12 12-12h136c6.6 0 12 5.4 12 12v40c0 6.6-5.4 12-12 12H204c-6.6 0-12-5.4-12-12v-40zm-128 0c0-6.6 5.4-12 12-12h72c6.6 0 12 5.4 12 12v40c0 6.6-5.4 12-12 12H76c-6.6 0-12-5.4-12-12v-40zM576 80v48H0V80c0-26.5 21.5-48 48-48h480c26.5 0 48 21.5 48 48z"/>
    </symbol>
    <symbol id="shippingmethodcollectondelivery" viewBox="0 0 512 512">
        <path d="M461.2 128H80c-8.84 0-16-7.16-16-16s7.16-16 16-16h384c8.84 0 16-7.16 16-16 0-26.51-21.49-48-48-48H64C28.65 32 0 60.65 0 96v320c0 35.35 28.65 64 64 64h397.2c28.02 0 50.8-21.53 50.8-48V176c0-26.47-22.78-48-50.8-48zM416 336c-17.67 0-32-14.33-32-32s14.33-32 32-32 32 14.33 32 32-14.33 32-32 32z"/>
    </symbol>
    <symbol id="shipping-2" viewBox="0 0 199.62 182.6">
        <path d="M142.8,35c-31.2,19.4-57,35.5-57.4,35.8-.8.9,7.4,15,8.4,14.4.4-.2,19-11.7,41.4-25.5s40.9-25.1,41.1-25.1c.6,0-4.3,25.5-5.9,30.5-4.3,13.5-13.1,26.8-23.4,35.4-6.1,5.1-30.5,20.7-35.1,22.5-5.7,2.1-7.6.2-25-26.6C69.7,70,65.8,65.6,56,60.6c-15-7.5-27.9-6.5-46.1,3.6L0,69.8,10.3,84.9c5.7,8.4,19.7,29,31.1,45.9,22.8,33.8,28.5,40.2,40.3,45.8s14.8,5.9,60.5,6H184l-9.7-14.7c-5.3-8.2-12.5-19.3-16.1-24.8s-6.6-10.1-6.7-10.3-3.5,1.8-7.3,4.3l-7.1,4.7,2.6,4.2c1.4,2.2,4.8,7.3,7.5,11.3s4.8,7.3,4.8,7.5-12.9.1-28.7-.2l-28.8-.5-6-3.1A49.36,49.36,0,0,1,78,153c-4.1-4.4-51.2-73.2-52.6-76.8-.4-1,.7-1.7,4.3-2.5,10.4-2.2,21.4,1.4,27.4,9,2,2.4,10.2,14.7,18.4,27.2,8.4,12.9,16.3,24,18.2,25.4,5.3,4.1,14,6.3,19.7,5.1,4.6-1,31.2-16.3,40.1-23,14.9-11.5,27.3-28.9,33-46.7C187.9,66.3,200.2.3,199.6,0,199.6,0,174,15.7,142.8,35Z"/>
    </symbol>
    <symbol id="shipping-1" viewBox="0 0 640 512">
        <path d="M624 352h-16V243.9c0-12.7-5.1-24.9-14.1-33.9L494 110.1c-9-9-21.2-14.1-33.9-14.1H416V48c0-26.5-21.5-48-48-48H48C21.5 0 0 21.5 0 48v320c0 26.5 21.5 48 48 48h16c0 53 43 96 96 96s96-43 96-96h128c0 53 43 96 96 96s96-43 96-96h48c8.8 0 16-7.2 16-16v-32c0-8.8-7.2-16-16-16zM160 464c-26.5 0-48-21.5-48-48s21.5-48 48-48 48 21.5 48 48-21.5 48-48 48zm320 0c-26.5 0-48-21.5-48-48s21.5-48 48-48 48 21.5 48 48-21.5 48-48 48zm80-208H416V144h44.1l99.9 99.9V256z"/>
    </symbol>
    <symbol id="shipping-4" viewBox="0 0 640 512">
        <path d="M512.9 192c-14.9-.1-29.1 2.3-42.4 6.9L437.6 144H520c13.3 0 24-10.7 24-24V88c0-13.3-10.7-24-24-24h-45.3c-6.8 0-13.3 2.9-17.8 7.9l-37.5 41.7-22.8-38C392.2 68.4 384.4 64 376 64h-80c-8.8 0-16 7.2-16 16v16c0 8.8 7.2 16 16 16h66.4l19.2 32H227.9c-17.7-23.1-44.9-40-99.9-40H72.5C59 104 47.7 115 48 128.5c.2 13 10.9 23.5 24 23.5h56c24.5 0 38.7 10.9 47.8 24.8l-11.3 20.5c-13-3.9-26.9-5.7-41.3-5.2C55.9 194.5 1.6 249.6 0 317c-1.6 72.1 56.3 131 128 131 59.6 0 109.7-40.8 124-96h84.2c13.7 0 24.6-11.4 24-25.1-2.1-47.1 17.5-93.7 56.2-125l12.5 20.8c-27.6 23.7-45.1 58.9-44.8 98.2.5 69.6 57.2 126.5 126.8 127.1 71.6.7 129.8-57.5 129.2-129.1-.7-69.6-57.6-126.4-127.2-126.9zM128 400c-44.1 0-80-35.9-80-80s35.9-80 80-80c4.2 0 8.4.3 12.5 1L99 316.4c-8.8 16 2.8 35.6 21 35.6h81.3c-12.4 28.2-40.6 48-73.3 48zm463.9-75.6c-2.2 40.6-35 73.4-75.5 75.5-46.1 2.5-84.4-34.3-84.4-79.9 0-21.4 8.4-40.8 22.1-55.1l49.4 82.4c4.5 7.6 14.4 10 22 5.5l13.7-8.2c7.6-4.5 10-14.4 5.5-22l-48.6-80.9c5.2-1.1 10.5-1.6 15.9-1.6 45.6-.1 82.3 38.2 79.9 84.3z"/>
    </symbol>
    <symbol id="shippingmethodpas" viewBox="0 0 496 512">
        <path d="M242.16 240.67L27.98 301.55c-15.17 4.31-16.95 25.1-2.73 31.92l68.47 32.89-89.17 89.17c-6.07 6.06-6.07 15.9 0 21.96l21.96 21.96c6.07 6.06 15.9 6.06 21.96 0l89.17-89.17 32.89 68.47c6.83 14.22 27.61 12.44 31.92-2.73l60.87-214.18c3.68-12.91-8.25-24.83-21.16-21.17zm40.91 68.76l-20.79 73.13C326.16 375.37 376 321.8 376 256c0-70.69-57.31-128-128-128-65.8 0-119.38 49.84-126.56 113.72l73.13-20.78C206.02 203.54 225.66 192 248 192c35.29 0 64 28.71 64 64 0 22.34-11.54 41.98-28.93 53.43zM248 8C111.03 8 0 119.03 0 256c0 8.39.44 16.67 1.26 24.85 5.22-4.39 11.05-8.11 17.98-10.08l44.87-12.75c-.01-.68-.1-1.33-.1-2.01 0-101.69 82.29-184 184-184 101.69 0 184 82.29 184 184 0 101.69-82.29 184-184 184-.68 0-1.34-.09-2.01-.1l-12.75 44.87c-1.97 6.94-5.69 12.77-10.06 17.98 8.17.81 16.45 1.25 24.83 1.25 136.97 0 248-111.03 248-248S384.97 8 248 8z"/>
    </symbol>
    <symbol id="box-check" viewBox="0 0 640 512">
        <path d="M448 128c-106 0-192 86-192 192s86 192 192 192 192-86 192-192-86-192-192-192zm114.1 147.8l-131 130a11 11 0 0 1-15.6-.1l-75.7-76.3a11 11 0 0 1 .1-15.6l26-25.8a11 11 0 0 1 15.6.1l42.1 42.5 97.2-96.4a11 11 0 0 1 15.6.1l25.8 26a11 11 0 0 1-.1 15.5z" class="uk-text-lightgray"/>
        <path d="M240 0H98.6a47.87 47.87 0 0 0-45.5 32.8L2.5 184.6c-.8 2.4-.8 4.9-1.2 7.4H240zm208 80a221.93 221.93 0 0 1 27.2 1.7l-16.3-48.8A47.83 47.83 0 0 0 413.4 0H272v157.4C315.9 109.9 378.4 80 448 80zM208 320a238.53 238.53 0 0 1 20.2-96H0v240a48 48 0 0 0 48 48h256.6C246.1 468.2 208 398.6 208 320zm354.2-59.7l-25.8-26a11 11 0 0 0-15.6-.1l-97.2 96.4-42.1-42.5a11 11 0 0 0-15.6-.1l-26 25.8a11 11 0 0 0-.1 15.6l75.7 76.3a11 11 0 0 0 15.6.1l131-130a11 11 0 0 0 .1-15.5z" class="uk-text-success"/>
    </symbol>
    <symbol id="calendar" viewBox="0 0 448 512">
        <path d="M12 192h424c6.6 0 12 5.4 12 12v260c0 26.5-21.5 48-48 48H48c-26.5 0-48-21.5-48-48V204c0-6.6 5.4-12 12-12zm436-44v-36c0-26.5-21.5-48-48-48h-48V12c0-6.6-5.4-12-12-12h-40c-6.6 0-12 5.4-12 12v52H160V12c0-6.6-5.4-12-12-12h-40c-6.6 0-12 5.4-12 12v52H48C21.5 64 0 85.5 0 112v36c0 6.6 5.4 12 12 12h424c6.6 0 12-5.4 12-12z"/>
    </symbol>
    <symbol id="calendar-alt" viewBox="0 0 448 512">
        <path d="M0 464c0 26.5 21.5 48 48 48h352c26.5 0 48-21.5 48-48V192H0v272zm320-196c0-6.6 5.4-12 12-12h40c6.6 0 12 5.4 12 12v40c0 6.6-5.4 12-12 12h-40c-6.6 0-12-5.4-12-12v-40zm0 128c0-6.6 5.4-12 12-12h40c6.6 0 12 5.4 12 12v40c0 6.6-5.4 12-12 12h-40c-6.6 0-12-5.4-12-12v-40zM192 268c0-6.6 5.4-12 12-12h40c6.6 0 12 5.4 12 12v40c0 6.6-5.4 12-12 12h-40c-6.6 0-12-5.4-12-12v-40zm0 128c0-6.6 5.4-12 12-12h40c6.6 0 12 5.4 12 12v40c0 6.6-5.4 12-12 12h-40c-6.6 0-12-5.4-12-12v-40zM64 268c0-6.6 5.4-12 12-12h40c6.6 0 12 5.4 12 12v40c0 6.6-5.4 12-12 12H76c-6.6 0-12-5.4-12-12v-40zm0 128c0-6.6 5.4-12 12-12h40c6.6 0 12 5.4 12 12v40c0 6.6-5.4 12-12 12H76c-6.6 0-12-5.4-12-12v-40zM400 64h-48V16c0-8.8-7.2-16-16-16h-32c-8.8 0-16 7.2-16 16v48H160V16c0-8.8-7.2-16-16-16h-32c-8.8 0-16 7.2-16 16v48H48C21.5 64 0 85.5 0 112v48h448v-48c0-26.5-21.5-48-48-48z"/>
    </symbol>
    <symbol id="status-pending" viewBox="0 0 384 512">
        <path d="M360 0H24C10.745 0 0 10.745 0 24v16c0 13.255 10.745 24 24 24 0 90.965 51.016 167.734 120.842 192C75.016 280.266 24 357.035 24 448c-13.255 0-24 10.745-24 24v16c0 13.255 10.745 24 24 24h336c13.255 0 24-10.745 24-24v-16c0-13.255-10.745-24-24-24 0-90.965-51.016-167.734-120.842-192C308.984 231.734 360 154.965 360 64c13.255 0 24-10.745 24-24V24c0-13.255-10.745-24-24-24zm-75.078 384H99.08c17.059-46.797 52.096-80 92.92-80 40.821 0 75.862 33.196 92.922 80zm.019-256H99.078C91.988 108.548 88 86.748 88 64h208c0 22.805-3.987 44.587-11.059 64z"/>
    </symbol>
    <symbol id="status-cancelled" viewBox="0 0 512 512">
        <path d="M256 8C119.034 8 8 119.033 8 256s111.034 248 248 248 248-111.034 248-248S392.967 8 256 8zm130.108 117.892c65.448 65.448 70 165.481 20.677 235.637L150.47 105.216c70.204-49.356 170.226-44.735 235.638 20.676zM125.892 386.108c-65.448-65.448-70-165.481-20.677-235.637L361.53 406.784c-70.203 49.356-170.226 44.736-235.638-20.676z"/>
    </symbol>
    <symbol id="status-refunded" viewBox="0 0 512 512">
        <path d="M256.455 8c66.269.119 126.437 26.233 170.859 68.685l35.715-35.715C478.149 25.851 504 36.559 504 57.941V192c0 13.255-10.745 24-24 24H345.941c-21.382 0-32.09-25.851-16.971-40.971l41.75-41.75c-30.864-28.899-70.801-44.907-113.23-45.273-92.398-.798-170.283 73.977-169.484 169.442C88.764 348.009 162.184 424 256 424c41.127 0 79.997-14.678 110.629-41.556 4.743-4.161 11.906-3.908 16.368.553l39.662 39.662c4.872 4.872 4.631 12.815-.482 17.433C378.202 479.813 319.926 504 256 504 119.034 504 8.001 392.967 8 256.002 7.999 119.193 119.646 7.755 256.455 8z"/>
    </symbol>
    <symbol id="status-shipped" viewBox="0 0 640 512">
        <path d="M240 0H98.6c-20.7 0-39 13.2-45.5 32.8L2.5 184.6c-.8 2.4-.8 4.9-1.2 7.4H240V0zm235.2 81.7l-16.3-48.8C452.4 13.2 434.1 0 413.4 0H272v157.4C315.9 109.9 378.4 80 448 80c9.2 0 18.3.6 27.2 1.7zM208 320c0-34.1 7.3-66.6 20.2-96H0v240c0 26.5 21.5 48 48 48h256.6C246.1 468.2 208 398.6 208 320zm240-192c-106 0-192 86-192 192s86 192 192 192 192-86 192-192-86-192-192-192zm114.1 147.8l-131 130c-4.3 4.3-11.3 4.3-15.6-.1l-75.7-76.3c-4.3-4.3-4.2-11.3.1-15.6l26-25.8c4.3-4.3 11.3-4.2 15.6.1l42.1 42.5 97.2-96.4c4.3-4.3 11.3-4.2 15.6.1l25.8 26c4.2 4.3 4.2 11.3-.1 15.5z"/>
    </symbol>
    <symbol id="user-lock" viewBox="0 0 640 512">
        <path d="M608 288h-32v-80a80 80 0 0 0-160 0v80h-32a32 32 0 0 0-32 32v160a32 32 0 0 0 32 32h224a32 32 0 0 0 32-32V320a32 32 0 0 0-32-32zM496 432a32 32 0 1 1 32-32 32 32 0 0 1-32 32zm32-144h-64v-80a32 32 0 0 1 64 0z" class="uk-text-muted"/>
        <path d="M224 256A128 128 0 1 0 96 128a128 128 0 0 0 128 128zm96 64a63.08 63.08 0 0 1 8.1-30.5c-4.8-.5-9.5-1.5-14.5-1.5h-16.7a174.08 174.08 0 0 1-145.8 0h-16.7A134.43 134.43 0 0 0 0 422.4V464a48 48 0 0 0 48 48h280.9a63.54 63.54 0 0 1-8.9-32z" class="uk-text-lightgray"/>
    </symbol>
    <symbol id="comments-alt" viewBox="0 0 576 512">
        <path d="M352 287.9H162.3L79.5 350a9.7 9.7 0 0 1-15.5-7.8V288a64.06 64.06 0 0 1-64-64V64A64.06 64.06 0 0 1 64 0h288a64.06 64.06 0 0 1 64 64v160a63.91 63.91 0 0 1-64 63.9z" class="uk-text-lightgray"/>
        <path d="M576 224v160a64.06 64.06 0 0 1-64 64h-32v54.3a9.7 9.7 0 0 1-15.5 7.8L381.7 448H256a64.06 64.06 0 0 1-64-64v-64h160a96.15 96.15 0 0 0 96-96v-64h64a64.06 64.06 0 0 1 64 64z" class="uk-text-muted"/>
    </symbol>
    <symbol id="share" viewBox="0 0 448 512">
        <path d="M352 320c-22.608 0-43.387 7.819-59.79 20.895l-102.486-64.054a96.551 96.551 0 0 0 0-41.683l102.486-64.054C308.613 184.181 329.392 192 352 192c53.019 0 96-42.981 96-96S405.019 0 352 0s-96 42.981-96 96c0 7.158.79 14.13 2.276 20.841L155.79 180.895C139.387 167.819 118.608 160 96 160c-53.019 0-96 42.981-96 96s42.981 96 96 96c22.608 0 43.387-7.819 59.79-20.895l102.486 64.054A96.301 96.301 0 0 0 256 416c0 53.019 42.981 96 96 96s96-42.981 96-96-42.981-96-96-96z"/>
    </symbol>
    <symbol id="download" viewBox="0 0 512 512">
        <path d="M320 24v168h87.7c17.8 0 26.7 21.5 14.1 34.1L269.7 378.3a19.37 19.37 0 0 1-27.3 0L90.1 226.1c-12.6-12.6-3.7-34.1 14.1-34.1H192V24a23.94 23.94 0 0 1 24-24h80a23.94 23.94 0 0 1 24 24z" class="uk-text-lightgray"/>
        <path d="M488 352H341.3l-49 49a51.24 51.24 0 0 1-72.6 0l-49-49H24a23.94 23.94 0 0 0-24 24v112a23.94 23.94 0 0 0 24 24h464a23.94 23.94 0 0 0 24-24V376a23.94 23.94 0 0 0-24-24zm-120 96a16 16 0 1 1 16-16 16 16 0 0 1-16 16zm64 0a16 16 0 1 1 16-16 16 16 0 0 1-16 16z" class="uk-text-muted"/>
    </symbol>
    <symbol id="video" viewBox="0 0 576 512">
        <path d="M525.6 410.2L416 334.7V177.3l109.6-75.6c21.3-14.6 50.4.4 50.4 25.8v256.9c0 25.5-29.2 40.4-50.4 25.8z" class="uk-text-lightgray"/>
        <path d="M0 400.2V111.8A47.8 47.8 0 0 1 47.8 64h288.4a47.8 47.8 0 0 1 47.8 47.8v288.4a47.8 47.8 0 0 1-47.8 47.8H47.8A47.8 47.8 0 0 1 0 400.2z" class="uk-text-muted"/>
    </symbol>
    <symbol id="expand" viewBox="0 0 448 512">
        <path d="M0 180V56c0-13.3 10.7-24 24-24h124c6.6 0 12 5.4 12 12v40c0 6.6-5.4 12-12 12H64v84c0 6.6-5.4 12-12 12H12c-6.6 0-12-5.4-12-12zM288 44v40c0 6.6 5.4 12 12 12h84v84c0 6.6 5.4 12 12 12h40c6.6 0 12-5.4 12-12V56c0-13.3-10.7-24-24-24H300c-6.6 0-12 5.4-12 12zm148 276h-40c-6.6 0-12 5.4-12 12v84h-84c-6.6 0-12 5.4-12 12v40c0 6.6 5.4 12 12 12h124c13.3 0 24-10.7 24-24V332c0-6.6-5.4-12-12-12zM160 468v-40c0-6.6-5.4-12-12-12H64v-84c0-6.6-5.4-12-12-12H12c-6.6 0-12 5.4-12 12v124c0 13.3 10.7 24 24 24h124c6.6 0 12-5.4 12-12z"/>
    </symbol>
    <!-- FAQ -->
    <symbol id="authentication" viewBox="0 0 640 512">
        <path d="M608 288h-32v-80a80 80 0 0 0-160 0v80h-32a32 32 0 0 0-32 32v160a32 32 0 0 0 32 32h224a32 32 0 0 0 32-32V320a32 32 0 0 0-32-32zM496 432a32 32 0 1 1 32-32 32 32 0 0 1-32 32zm32-144h-64v-80a32 32 0 0 1 64 0z" class="uk-text-accent"/>
        <path d="M224 256A128 128 0 1 0 96 128a128 128 0 0 0 128 128zm96 64a63.08 63.08 0 0 1 8.1-30.5c-4.8-.5-9.5-1.5-14.5-1.5h-16.7a174.08 174.08 0 0 1-145.8 0h-16.7A134.43 134.43 0 0 0 0 422.4V464a48 48 0 0 0 48 48h280.9a63.54 63.54 0 0 1-8.9-32z" class="uk-text-secondary"/>
    </symbol>
    <symbol id="order-placement" viewBox="0 0 576 512">
        <path d="M552 64H159.21l52.36 256h293.15a24 24 0 0 0 23.4-18.68l47.27-208a24 24 0 0 0-18.08-28.72A23.69 23.69 0 0 0 552 64z" class="uk-text-accent"/>
        <path d="M218.12 352h268.42a24 24 0 0 1 23.4 29.32l-5.52 24.28a56 56 0 1 1-63.6 10.4H231.18a56 56 0 1 1-67.05-8.57L93.88 64H24A24 24 0 0 1 0 40V24A24 24 0 0 1 24 0h102.53A24 24 0 0 1 150 19.19z" class="uk-text-secondary"/>
    </symbol>
    <symbol id="shipping" viewBox="0 0 640 512">
        <path d="M464 352a80 80 0 1 0 80 80 80 80 0 0 0-80-80zm-288 0a80 80 0 1 0 80 80 80 80 0 0 0-80-80zm72-208h-24V88a8 8 0 0 0-8-8h-16a8 8 0 0 0-8 8v80a8 8 0 0 0 8 8h48a8 8 0 0 0 8-8v-16a8 8 0 0 0-8-8z" class="uk-text-secondary"/>
        <path d="M624 352h-16V243.9a48 48 0 0 0-14.1-33.9L494 110.1A48 48 0 0 0 460.1 96H416V48a48 48 0 0 0-48-48H48A48 48 0 0 0 0 48v320a48 48 0 0 0 48 48h18.16C74 361.93 119.78 320 176 320s102.54 41.86 110.38 96h67.24c7.85-54.14 54.1-96 110.38-96s102 41.93 109.84 96H624a16 16 0 0 0 16-16v-32a16 16 0 0 0-16-16zm-416-80a112 112 0 1 1 112-112 111.94 111.94 0 0 1-112 112zm352-16H416V144h44.1l99.9 99.9z" class="uk-text-accent"/>
    </symbol>
    <symbol id="product-return" viewBox="0 0 640 512">
        <path d="M96 192H48c-21.36 0-32-25.9-17-41l80-80a24 24 0 0 1 34 0l80 80c15.11 15.1 4.35 41-17 41h-48v160h202.08a18.9 18.9 0 0 1 17.67 12.08 55.89 55.89 0 0 0 12.68 19.52c11.95 11.95 3.49 32.4-13.43 32.4H120a24 24 0 0 1-24-24z" class="uk-text-secondary"/>
        <path d="M609 361l-80 80a24 24 0 0 1-33.94 0l-80-80c-15.11-15.11-4.34-41 17-41h48V160H278a18.91 18.91 0 0 1-17.68-12.08 55.72 55.72 0 0 0-12.67-19.52c-12-12-3.49-32.4 13.42-32.4H520a24 24 0 0 1 24 24v200h48c21.39 0 32.06 25.9 17 41z" class="uk-text-accent"/>
    </symbol>
    <symbol id="gift-cards" viewBox="0 0 512 512">
        <path d="M224 320v160H64a32 32 0 0 1-32-32V320zm0-160H32a32 32 0 0 0-32 32v80a16 16 0 0 0 16 16h208zm256 0H288v128h208a16 16 0 0 0 16-16v-80a32 32 0 0 0-32-32zM288 480h160a32 32 0 0 0 32-32V320H288z" class="uk-text-accent"/>
        <path d="M224 480h64V320h-64zM359.54 32c-41.82 0-68.86 21.3-103.54 68.3-34.68-47-61.72-68.3-103.54-68.3C103.71 32 64 71.5 64 120a85.65 85.65 0 0 0 10.15 40h78.21a40 40 0 1 1 0-80c20 0 34.78 3.3 86.55 80H224v128h64V160h-15c51.67-76.5 66-80 86.55-80a40 40 0 1 1 0 80h78.31A86.86 86.86 0 0 0 448 120c0-48.5-39.71-88-88.46-88z" class="uk-text-secondary"/>
    </symbol>
    <symbol id="misc" viewBox="0 0 384 512">
        <path d="M182.43 373.46a69.27 69.27 0 1 0 69.28 69.27 69.28 69.28 0 0 0-69.28-69.27z" class="uk-text-secondary"/>
        <path d="M367.92 153.6c0 116-125.27 117.77-125.27 160.63V320a24 24 0 0 1-24 24h-72.47a24 24 0 0 1-24-24v-9.79c0-61.83 46.87-86.54 82.3-106.4 30.38-17 49-28.62 49-51.17 0-29.83-38-49.63-68.82-49.63-39.12 0-57.75 18.07-82.75 49.45a24 24 0 0 1-33.26 4.15L25.51 123.9A24 24 0 0 1 20.34 91c40.59-58.3 92.28-91 172.1-91 84.88 0 175.49 66.26 175.48 153.6z" class="uk-text-accent"/>
    </symbol>
    <!-- Categories -->
    <symbol id="pipes" viewBox="0 0 48 48">
        <path d="M13.33,48a13.34,13.34,0,1,1,9.43-3.91h0A13.25,13.25,0,0,1,13.33,48Zm0-24.39a11.05,11.05,0,1,0,7.81,18.86h0a11.05,11.05,0,0,0-7.81-18.86Z"/>
        <path d="M43.29,23.1a1.1,1.1,0,0,1-.81-.34,1.13,1.13,0,0,1,0-1.61A11.05,11.05,0,0,0,26.85,5.52a1.14,1.14,0,0,1-1.61-1.61A13.34,13.34,0,0,1,48,13.34a13.21,13.21,0,0,1-3.91,9.42A1.1,1.1,0,0,1,43.29,23.1Z"/>
        <path d="M4.71,27.19a1.14,1.14,0,0,1-.81-2L25.24,3.91a1.14,1.14,0,1,1,1.61,1.61L5.52,26.86A1.17,1.17,0,0,1,4.71,27.19Z"/>
        <path d="M22,44.44a1.15,1.15,0,0,1-.81-2L42.48,21.15a1.14,1.14,0,0,1,1.61,1.61L22.76,44.1A1.18,1.18,0,0,1,22,44.44Z"/>
        <path d="M13.33,43.43a8.76,8.76,0,1,1,6.2-2.56h0A8.74,8.74,0,0,1,13.33,43.43Zm0-15.23a6.47,6.47,0,1,0,4.58,1.89A6.46,6.46,0,0,0,13.33,28.2Zm5.39,11.86Z"/>
    </symbol>
    <symbol id="round-bars" viewBox="0 0 48 48">
        <path d="M5.71,48a5.72,5.72,0,1,1,4-9.75,5.71,5.71,0,0,1-4,9.75Zm0-9.14a3.43,3.43,0,1,0,2.43,5.85h0a3.43,3.43,0,0,0-2.43-5.85Z"/>
        <path d="M45.52,10.09a1.15,1.15,0,0,1-.81-1.95,3.43,3.43,0,0,0-4.85-4.85,1.13,1.13,0,0,1-1.61,0,1.14,1.14,0,0,1,0-1.62,5.71,5.71,0,0,1,9.75,4,5.65,5.65,0,0,1-1.67,4A1.14,1.14,0,0,1,45.52,10.09Z"/>
        <path d="M2.48,40.2a1.18,1.18,0,0,1-.81-.34,1.15,1.15,0,0,1,0-1.61L38.25,1.67a1.14,1.14,0,0,1,1.61,1.62L3.29,39.86A1.16,1.16,0,0,1,2.48,40.2Z"/>
        <path d="M9,46.66a1.14,1.14,0,0,1-.81-1.95L44.71,8.14a1.14,1.14,0,0,1,1.62,1.61L9.75,46.33A1.13,1.13,0,0,1,9,46.66Z"/>
        <path d="M15.62,40.76a1.14,1.14,0,0,1-1.14-1.14c0-5.43-2-8.76-3.43-8.76a1.15,1.15,0,1,1,0-2.29c3.26,0,5.71,4.75,5.71,11A1.14,1.14,0,0,1,15.62,40.76Z"/>
        <path d="M21.71,34.67a1.15,1.15,0,0,1-1.14-1.15c0-5.42-2-8.76-3.43-8.76a1.14,1.14,0,0,1,0-2.28c3.26,0,5.72,4.75,5.72,11A1.15,1.15,0,0,1,21.71,34.67Z"/>
        <path d="M27.81,28.57a1.14,1.14,0,0,1-1.14-1.14c0-5.43-2-8.76-3.43-8.76a1.15,1.15,0,0,1,0-2.29c3.26,0,5.71,4.75,5.71,11.05A1.14,1.14,0,0,1,27.81,28.57Z"/>
        <path d="M33.9,22.48a1.15,1.15,0,0,1-1.14-1.15c0-5.43-2-8.76-3.43-8.76a1.14,1.14,0,1,1,0-2.28c3.26,0,5.72,4.75,5.72,11A1.15,1.15,0,0,1,33.9,22.48Z"/>
        <path d="M40,16.38a1.14,1.14,0,0,1-1.14-1.14c0-5.43-2-8.76-3.43-8.76a1.15,1.15,0,0,1,0-2.29c3.26,0,5.71,4.75,5.71,11.05A1.14,1.14,0,0,1,40,16.38Z"/>
    </symbol>
    <symbol id="profiles" viewBox="0 0 48 48">
        <path d="M1.14,48A1.14,1.14,0,0,1,0,46.86V22.48a1.15,1.15,0,0,1,1.14-1.15,1.16,1.16,0,0,1,1.15,1.15V46.86A1.15,1.15,0,0,1,1.14,48Z"/>
        <path d="M25.52,48H1.14a1.15,1.15,0,0,1,0-2.29H25.52a1.15,1.15,0,1,1,0,2.29Z"/>
        <path d="M1.14,23.62a1.15,1.15,0,0,1-.81-1.95L21.67.33A1.14,1.14,0,0,1,23.28,2L2,23.28A1.1,1.1,0,0,1,1.14,23.62Z"/>
        <path d="M25.52,48a1.13,1.13,0,0,1-.8-.33,1.14,1.14,0,0,1,0-1.62L46.05,24.72a1.14,1.14,0,0,1,1.62,1.61L26.33,47.67A1.13,1.13,0,0,1,25.52,48Z"/>
        <path d="M25.52,23.62H1.14a1.15,1.15,0,0,1,0-2.29H25.52a1.15,1.15,0,1,1,0,2.29Z"/>
        <path d="M25.52,48a1.14,1.14,0,0,1-1.14-1.14V22.48a1.15,1.15,0,1,1,2.29,0V46.86A1.15,1.15,0,0,1,25.52,48Z"/>
        <path d="M21,43.43H5.71a1.14,1.14,0,0,1-1.14-1.14V27.05A1.15,1.15,0,0,1,5.71,25.9H21a1.16,1.16,0,0,1,1.15,1.15V42.29A1.15,1.15,0,0,1,21,43.43ZM6.86,41.14h13V28.19H6.86Z"/>
        <path d="M46.86,26.67a1.15,1.15,0,0,1-1.15-1.15V1.14a1.15,1.15,0,0,1,2.29,0V25.52A1.14,1.14,0,0,1,46.86,26.67Z"/>
        <path d="M46.86,2.29H22.48a1.15,1.15,0,1,1,0-2.29H46.86a1.15,1.15,0,0,1,0,2.29Z"/>
        <path d="M25.52,23.62a1.1,1.1,0,0,1-.8-.34,1.13,1.13,0,0,1,0-1.61L46.05.33a1.16,1.16,0,0,1,1.62,0,1.16,1.16,0,0,1,0,1.62L26.33,23.28A1.1,1.1,0,0,1,25.52,23.62Z"/>
    </symbol>
    <symbol id="steel-sheets" viewBox="0 0 42 48">
        <path d="M37.75,48H4.15A1.14,1.14,0,0,1,3,46.86V7.24A1.14,1.14,0,0,1,4.15,6.1h33.6a1.14,1.14,0,0,1,1.14,1.14V46.86A1.14,1.14,0,0,1,37.75,48ZM5.29,45.71H36.6V8.38H5.29Z" transform="translate(-3)"/>
        <path d="M10.25,8.38A1.14,1.14,0,0,1,9.11,7.24V1.14a1.15,1.15,0,0,1,2.29,0v6.1A1.14,1.14,0,0,1,10.25,8.38Z" transform="translate(-3)"/>
        <path d="M43.85,2.29H10.25a1.15,1.15,0,0,1,0-2.29h33.6a1.15,1.15,0,1,1,0,2.29Z" transform="translate(-3)"/>
        <path d="M43.85,45h-6.1a1.14,1.14,0,1,1,0-2.28h6.1a1.14,1.14,0,1,1,0,2.28Z" transform="translate(-3)"/>
        <path d="M43.85,45a1.14,1.14,0,0,1-1.14-1.14V1.14a1.15,1.15,0,0,1,2.29,0V43.81A1.14,1.14,0,0,1,43.85,45Z" transform="translate(-3)"/>
        <path d="M27.05,18.29a1.18,1.18,0,0,1-.81-.34,1.16,1.16,0,0,1,0-1.62l6.11-6.09A1.15,1.15,0,0,1,34,11.86L27.86,18A1.14,1.14,0,0,1,27.05,18.29Z" transform="translate(-3)"/>
        <path d="M24,15.24a1.15,1.15,0,0,1-.81-2l3-3a1.15,1.15,0,0,1,1.62,1.62l-3.05,3A1.12,1.12,0,0,1,24,15.24Z" transform="translate(-3)"/>
    </symbol>
    <symbol id="fittings" viewBox="0 0 48 48">
        <path d="M45.33,34.29a1.15,1.15,0,0,1-1.14-1.15V7.24a1.15,1.15,0,0,1,2.29,0v25.9A1.16,1.16,0,0,1,45.33,34.29Z"/>
        <path d="M36.19,34.29a1.15,1.15,0,0,1-1.14-1.15V7.24a1.14,1.14,0,0,1,2.28,0v25.9A1.15,1.15,0,0,1,36.19,34.29Z"/>
        <path d="M17.9,34.29a1.15,1.15,0,0,1-1.14-1.15V28.57a1.15,1.15,0,0,1,2.29,0v4.57A1.15,1.15,0,0,1,17.9,34.29Z"/>
        <path d="M27.05,34.29a1.16,1.16,0,0,1-1.15-1.15V28.57a1.15,1.15,0,0,1,2.29,0v4.57A1.15,1.15,0,0,1,27.05,34.29Z"/>
        <path d="M7.24,17.52A1.14,1.14,0,0,1,6.1,16.38V4.19a1.14,1.14,0,1,1,2.28,0V16.38A1.14,1.14,0,0,1,7.24,17.52Z"/>
        <path d="M46.86,2.29H34.67a1.16,1.16,0,0,1-1.15-1.15A1.15,1.15,0,0,1,34.67,0H46.86a1.15,1.15,0,0,1,0,2.29Z"/>
        <path d="M7.24,5.33H1.14a1.14,1.14,0,0,1,0-2.28h6.1a1.14,1.14,0,0,1,0,2.28Z"/>
        <path d="M7.24,17.52H1.14a1.14,1.14,0,0,1,0-2.28h6.1a1.14,1.14,0,1,1,0,2.28Z"/>
        <path d="M1.14,17.52A1.14,1.14,0,0,1,0,16.38V4.19a1.15,1.15,0,0,1,2.29,0V16.38A1.15,1.15,0,0,1,1.14,17.52Z"/>
        <path d="M46.86,8.38H34.67a1.14,1.14,0,1,1,0-2.28H46.86a1.14,1.14,0,0,1,0,2.28Z"/>
        <path d="M34.67,8.38a1.15,1.15,0,0,1-1.15-1.14V1.14a1.15,1.15,0,0,1,2.29,0v6.1A1.14,1.14,0,0,1,34.67,8.38Z"/>
        <path d="M46.86,8.38a1.15,1.15,0,0,1-1.15-1.14V1.14a1.15,1.15,0,0,1,2.29,0v6.1A1.14,1.14,0,0,1,46.86,8.38Z"/>
        <path d="M31.62,38.86a5.73,5.73,0,0,1-5.72-5.72,1.15,1.15,0,0,1,2.29,0,3.43,3.43,0,1,0,6.86,0,1.14,1.14,0,0,1,2.28,0A5.72,5.72,0,0,1,31.62,38.86Z"/>
        <path d="M31.62,48A14.88,14.88,0,0,1,16.76,33.14a1.15,1.15,0,0,1,2.29,0,12.57,12.57,0,0,0,25.14,0,1.15,1.15,0,0,1,2.29,0A14.88,14.88,0,0,1,31.62,48Z"/>
        <path d="M14.86,6.86H7.24a1.15,1.15,0,0,1,0-2.29h7.62a1.15,1.15,0,0,1,0,2.29Z"/>
        <path d="M14.86,16H7.24a1.15,1.15,0,0,1,0-2.29h7.62a1.15,1.15,0,0,1,0,2.29Z"/>
        <path d="M27.05,19.05A1.15,1.15,0,0,1,25.9,17.9a11,11,0,0,0-11-11,1.15,1.15,0,1,1,0-2.29A13.35,13.35,0,0,1,28.19,17.9,1.14,1.14,0,0,1,27.05,19.05Z"/>
        <path d="M17.9,19.05a1.14,1.14,0,0,1-1.14-1.15,1.9,1.9,0,0,0-1.9-1.9,1.15,1.15,0,1,1,0-2.29,4.2,4.2,0,0,1,4.19,4.19A1.14,1.14,0,0,1,17.9,19.05Z"/>
        <path d="M28.57,23.62H16.38a1.15,1.15,0,0,1,0-2.29H28.57a1.15,1.15,0,0,1,0,2.29Z"/>
        <path d="M28.57,29.71H16.38a1.14,1.14,0,1,1,0-2.28H28.57a1.14,1.14,0,0,1,0,2.28Z"/>
        <path d="M16.38,29.71a1.14,1.14,0,0,1-1.14-1.14V22.48a1.14,1.14,0,1,1,2.28,0v6.09A1.14,1.14,0,0,1,16.38,29.71Z"/>
        <path d="M28.57,29.71a1.14,1.14,0,0,1-1.14-1.14V22.48a1.14,1.14,0,1,1,2.28,0v6.09A1.14,1.14,0,0,1,28.57,29.71Z"/>
        <path d="M17.9,23.62a1.14,1.14,0,0,1-1.14-1.14V17.9a1.15,1.15,0,0,1,2.29,0v4.58A1.14,1.14,0,0,1,17.9,23.62Z"/>
        <path d="M27.05,23.62a1.15,1.15,0,0,1-1.15-1.14V17.9a1.15,1.15,0,0,1,2.29,0v4.58A1.14,1.14,0,0,1,27.05,23.62Z"/>
    </symbol>
    <symbol id="valves" viewBox="0 0 48 48">
        <path d="M1.14,48A1.14,1.14,0,0,1,0,46.86V16.38a1.15,1.15,0,0,1,2.29,0V46.86A1.15,1.15,0,0,1,1.14,48Z"/>
        <path d="M16.38,48a1.14,1.14,0,0,1-1.14-1.14v-3a1.14,1.14,0,0,1,2.28,0v3A1.14,1.14,0,0,1,16.38,48Z"/>
        <path d="M43.81,29.71H36.19a1.14,1.14,0,0,1,0-2.28h7.62a1.14,1.14,0,0,1,0,2.28Z"/>
        <path d="M36.19,34.29a1.15,1.15,0,0,1-1.14-1.15V28.57a1.14,1.14,0,1,1,2.28,0v4.57A1.15,1.15,0,0,1,36.19,34.29Z"/>
        <path d="M43.81,34.29a1.15,1.15,0,0,1-1.14-1.15V28.57a1.14,1.14,0,1,1,2.28,0v4.57A1.15,1.15,0,0,1,43.81,34.29Z"/>
        <path d="M43.81,34.29H36.19a1.15,1.15,0,0,1,0-2.29h7.62a1.15,1.15,0,0,1,0,2.29Z"/>
        <path d="M46.86,26.67a1.15,1.15,0,0,1-1.15-1.15V19.43a1.15,1.15,0,0,1,2.29,0v6.09A1.14,1.14,0,0,1,46.86,26.67Z"/>
        <path d="M19.43,20.57a4.2,4.2,0,0,1-4.19-4.19,1.14,1.14,0,0,1,2.28,0,1.92,1.92,0,0,0,1.91,1.91,1.14,1.14,0,0,1,0,2.28Z"/>
        <path d="M46.86,20.57H19.43a1.14,1.14,0,0,1,0-2.28H46.86a1.14,1.14,0,0,1,0,2.28Z"/>
        <path d="M16.38,17.52H1.14a1.14,1.14,0,0,1,0-2.28H16.38a1.14,1.14,0,1,1,0,2.28Z"/>
        <path d="M16.38,14.48a1.15,1.15,0,0,1-1.14-1.15c0-2.21,2.44-4.08,7.07-5.41A58.54,58.54,0,0,1,37.71,6.1a1.14,1.14,0,1,1,0,2.28,56.29,56.29,0,0,0-14.77,1.74c-4.28,1.22-5.42,2.6-5.42,3.21A1.15,1.15,0,0,1,16.38,14.48Z"/>
        <path d="M37.71,8.38a1.14,1.14,0,0,1,0-2.28,1.92,1.92,0,0,0,1.91-1.91,1.14,1.14,0,1,1,2.28,0A4.2,4.2,0,0,1,37.71,8.38Z"/>
        <path d="M1.14,11.43A1.14,1.14,0,0,1,0,10.29C0,8.22,1.33,6.45,3.94,5a32.78,32.78,0,0,1,9.21-2.94C21.88.36,33,0,40.76,0a1.15,1.15,0,0,1,0,2.29c-11,0-20.4.7-27.17,2-7.29,1.43-11.3,3.55-11.3,6A1.15,1.15,0,0,1,1.14,11.43Z"/>
        <path d="M1.14,17.52A1.14,1.14,0,0,1,0,16.38V10.29a1.15,1.15,0,1,1,2.29,0v6.09A1.15,1.15,0,0,1,1.14,17.52Z"/>
        <path d="M43.81,29.71a1.14,1.14,0,0,1,0-2.28,1.91,1.91,0,0,0,1.9-1.91,1.15,1.15,0,0,1,2.29,0A4.2,4.2,0,0,1,43.81,29.71Z"/>
        <path d="M16.38,17.52a1.14,1.14,0,0,1-1.14-1.14v-3a1.14,1.14,0,0,1,2.28,0v3A1.14,1.14,0,0,1,16.38,17.52Z"/>
        <path d="M16.38,48H1.14a1.15,1.15,0,0,1,0-2.29H16.38a1.15,1.15,0,0,1,0,2.29Z"/>
        <path d="M16.38,45a1.14,1.14,0,0,1-1.14-1.14c0-4.44,2.22-8.59,6.24-11.68a24.16,24.16,0,0,1,14.71-4.7,1.14,1.14,0,0,1,0,2.28c-10.29,0-18.67,6.33-18.67,14.1A1.14,1.14,0,0,1,16.38,45Z"/>
        <path d="M40.76,5.33a1.14,1.14,0,0,1-1.14-1.14V1.14a1.14,1.14,0,0,1,2.28,0V4.19A1.14,1.14,0,0,1,40.76,5.33Z"/>
    </symbol>
</svg>