<svg xmlns="http://www.w3.org/2000/svg">
    <symbol id="logoShape" viewBox="0 0 195 80">
        <path d="M57.94,0H21.63a21.64,21.64,0,0,0,0,43.27H57.94A14.68,14.68,0,1,1,43.26,58V52.62a3.48,3.48,0,0,0-3.47-3.48H3.48A3.48,3.48,0,0,0,0,52.62V58A21.66,21.66,0,0,0,21.63,79.58H57.94a21.64,21.64,0,0,0,0-43.27H21.63A14.68,14.68,0,1,1,36.31,21.63V27a3.48,3.48,0,0,0,3.48,3.48h36.3A3.48,3.48,0,0,0,79.57,27V21.63A21.65,21.65,0,0,0,57.94,0ZM21.63,72.63A14.7,14.7,0,0,1,7,58V56.09H36.31V58a21.52,21.52,0,0,0,5.76,14.68Zm51-49.14H43.26V21.63A21.52,21.52,0,0,0,37.5,7H57.94A14.7,14.7,0,0,1,72.62,21.63Z"/>
        <path d="M194.39,67.27,149.33,1.81a3.47,3.47,0,0,0-5.63-.14L93.92,67.15l0,0-.14.2-.06.09c0,.07-.07.13-.1.2l-.06.11a1.22,1.22,0,0,0-.07.17l-.06.15s0,.1,0,.14a1.8,1.8,0,0,1,0,.19l0,.13,0,.19a1,1,0,0,0,0,.16c0,.06,0,.11,0,.17v.33c0,.08,0,.17,0,.25a.22.22,0,0,1,0,.08,2.38,2.38,0,0,0,.05.26.13.13,0,0,1,0,.06c0,.09,0,.17.07.25l0,.08a1.67,1.67,0,0,0,.08.2.61.61,0,0,0,0,.12l.07.15.09.16a.83.83,0,0,0,.08.12,1.74,1.74,0,0,0,.11.18s0,0,0,0A21.73,21.73,0,0,0,111.22,80h.06a21.63,21.63,0,0,0,21.57-21.7V56.54l11.26,0,11.25,0V58.3A21.65,21.65,0,0,0,176.91,80H177a21.74,21.74,0,0,0,17.15-8.46A3.47,3.47,0,0,0,194.39,67.27Zm-17.46,5.78A14.7,14.7,0,0,1,162.3,58.32V53a3.48,3.48,0,0,0-3.47-3.49h0l-14.73,0-14.73,0h0A3.48,3.48,0,0,0,125.88,53l0,5.32a14.71,14.71,0,0,1-14.64,14.73h0a14.52,14.52,0,0,1-10-4L146.33,9.71,187.12,69A14.48,14.48,0,0,1,177,73.05Z"/>
    </symbol>
    <symbol id="logofa" viewBox="0 0 278 40">
        <path d="M267.44,14.7l-5.88,1.4q.31,1.47,1.37,5.79a3.12,3.12,0,0,1,.09.7c0,1-.7,1.45-2.1,1.45a2.28,2.28,0,0,1-1.83-.59,2.4,2.4,0,0,1-.43-1.62V17.36H252.6v4.47a2.13,2.13,0,0,1-.7,1.83,2.5,2.5,0,0,1-1.49.38,2.14,2.14,0,0,1-1.39-.38,2.26,2.26,0,0,1-.63-1.83V17.36h-6.06v4.47a2.4,2.4,0,0,1-.42,1.62,2.28,2.28,0,0,1-1.83.59h-5.32a2.62,2.62,0,0,1-1.7-.42,1.6,1.6,0,0,1-.42-1.25v-5h-6v5a1.49,1.49,0,0,1-.48,1.23,3,3,0,0,1-1.87.44h-8.4a2.6,2.6,0,0,1-1.7-.42,1.6,1.6,0,0,1-.43-1.25v-5h-6v5a1.52,1.52,0,0,1-.47,1.23,3,3,0,0,1-1.87.44H172.08a2,2,0,0,1-1.55-.59,2.16,2.16,0,0,1-.58-1.62V3.51h-6V29.08a6.68,6.68,0,0,1-.69,3.68,2.87,2.87,0,0,1-1.79,1A11.9,11.9,0,0,1,159,34h-1.16a7.82,7.82,0,0,1-1-.06,6.66,6.66,0,0,1-1.13-.26,3.5,3.5,0,0,1-2-1.47,4.74,4.74,0,0,1-.65-2.61,10.12,10.12,0,0,1,.07-1.2,18,18,0,0,1,1.74-5.42l-5.47-2.6a22.32,22.32,0,0,0-2.38,8.3c0,.31,0,.61,0,.9a10.78,10.78,0,0,0,1.59,5.85,9.33,9.33,0,0,0,4,3.5A12,12,0,0,0,157.84,40H159a14.67,14.67,0,0,0,5.37-.86,8.25,8.25,0,0,0,3.75-2.82,9,9,0,0,0,1.55-3.79,13.53,13.53,0,0,0,.26-2.68,8.56,8.56,0,0,0,2.15.26h32.83a10.93,10.93,0,0,0,4.44-.83,4.74,4.74,0,0,0,1.36-.81,5.07,5.07,0,0,0,1.28.81,7.87,7.87,0,0,0,1.59.57,9.74,9.74,0,0,0,2.27.26h8a10.88,10.88,0,0,0,4.43-.83,4.68,4.68,0,0,0,1.37-.81,4.81,4.81,0,0,0,1.27.81,8.1,8.1,0,0,0,1.59.57,9.74,9.74,0,0,0,2.27.26h5.32c2.54,0,4.3-.56,5.3-1.68a8.32,8.32,0,0,0,5.19,1.68,8.05,8.05,0,0,0,5-1.68,8.68,8.68,0,0,0,2.06,1.11,10.85,10.85,0,0,0,3.56.57,7.19,7.19,0,0,0,6.41-3.37,8.23,8.23,0,0,0,1.24-3.11,9.29,9.29,0,0,0,.13-1.45,6.92,6.92,0,0,0-.19-1.66C268.26,18.1,267.79,16.17,267.44,14.7Z"/>
        <rect x="271.94" y="3.55" width="6.06" height="26.53"/>
        <rect x="213.73" y="6.45" width="12.85" height="5.87"/>
        <rect x="194.91" y="34.13" width="12.85" height="5.87"/>
        <path d="M120.19,27.26q0,3.58-1.46,5.11t-4.84,1.53h-1.83v6h1.83q6.23,0,9.46-3.66,2.9-3.27,2.9-9V17.34h-6.06Z"/>
        <path d="M130.66.16a7,7,0,0,0-2.16.63,5.82,5.82,0,0,0-2,1.64,7.74,7.74,0,0,0-1.32,2.7l3.44,1a5,5,0,0,1,.62-1.38,2.32,2.32,0,0,1,.87-.78,3.33,3.33,0,0,1,1.27-.33c.5,0,1.11-.06,1.84-.06h9.05V0h-9.05A18.45,18.45,0,0,0,130.66.16Z"/>
        <rect x="131.32" y="6.23" width="6.06" height="23.82"/>
        <polygon points="18.06 16 14.15 12.1 10.31 15.97 14.17 19.87 18.06 16"/>
        <path d="M80,14.33l-5.78,1.75c.1.43.24,1.14.43,2.15l0,.35.07.35c0,.28.11.54.15.79.13.65.25,1.28.37,1.91a2.77,2.77,0,0,1,.08.61,1.45,1.45,0,0,1-.71,1.34,4.46,4.46,0,0,1-2.34.44H28.69a2.24,2.24,0,0,1-1.52-.49,1.71,1.71,0,0,1-.59-1.37V17.34h-6V28.8q0,2.73-1.05,3.81c-.83.85-2.39,1.27-4.7,1.27H12a9.65,9.65,0,0,1-1.22-.07,7.3,7.3,0,0,1-1.41-.31,4.52,4.52,0,0,1-2.51-1.84A5.77,5.77,0,0,1,6,28.44c0-.21,0-.42,0-.63a20.27,20.27,0,0,1,2.1-7.3L2.66,18A26.25,26.25,0,0,0,0,27.5c0,.31,0,.61,0,.92a11.86,11.86,0,0,0,1.76,6.49,10.41,10.41,0,0,0,4.52,3.85A13.73,13.73,0,0,0,12,39.91h2.78a15.92,15.92,0,0,0,5.45-.84,9.54,9.54,0,0,0,3.94-2.63,10.74,10.74,0,0,0,2.36-6.64,3.54,3.54,0,0,0,1,.22l.57,0H72.45c3.47,0,6-1.06,7.51-3.17a7.39,7.39,0,0,0,1.45-4.49,10.18,10.18,0,0,0-.15-1.69Q80.56,16.93,80,14.33Z"/>
        <rect x="61.63" y="33.98" width="12.85" height="5.87"/>
        <path d="M107.93,18.36a12.6,12.6,0,0,0-9.41-4,12.19,12.19,0,0,0-9.4,4.11Q85.81,22,85.78,29.17a1.33,1.33,0,0,0,0,.28c0,.08,0,.18,0,.35l0,.2h19.43a12.82,12.82,0,0,1-1.68,3.12c-1.15,1.58-3.12,2.34-5.77,2.34a6.21,6.21,0,0,1-3.53-1.1,5.75,5.75,0,0,1-.59-.46H87a10.08,10.08,0,0,0,3.26,3.76,14.43,14.43,0,0,0,8.3,2.27c4.08,0,7.26-1.25,9.45-3.72s2.75-3.66,3.32-7.77A12.07,12.07,0,0,0,107.93,18.36Zm-15.59,6.3a7.85,7.85,0,0,1,1.3-3.09,5.92,5.92,0,0,1,5-2.17,5.68,5.68,0,0,1,5,2.53,8.45,8.45,0,0,1,1.2,2.73Z"/>
    </symbol>
    <symbol id="logoen" viewBox="0 0 278 40">
        <path d="M29,21.25c-1.87-1.59-5.74-3-11.5-4.27-2.09-.48-3.75-.9-5.09-1.28a18.49,18.49,0,0,1-3.07-1.09,3.67,3.67,0,0,1-2.28-3.39A5.22,5.22,0,0,1,9.16,6.79a9.17,9.17,0,0,1,5.53-1.47,10.89,10.89,0,0,1,6.45,1.75,6.63,6.63,0,0,1,2.77,4.33h6.74a12.16,12.16,0,0,0-4.4-8.09A16.33,16.33,0,0,0,15.67,0C11,0,7.3,1.07,4.59,3.19a10.14,10.14,0,0,0-4,8.51c0,3.18,1,5.45,2.94,6.94s6.32,3,12.6,4.38c3.58.78,5.89,1.51,7.05,2.23a4.43,4.43,0,0,1,2,3.92,4.57,4.57,0,0,1-2.59,4.15,13.7,13.7,0,0,1-6.72,1.37,10.71,10.71,0,0,1-6.67-1.84,6.57,6.57,0,0,1-2.54-4.64H0a11.85,11.85,0,0,0,4.28,8.48C7.05,38.89,10.94,40,15.85,40s8.85-1,11.69-3.11a9.48,9.48,0,0,0,4.17-8.2C31.71,25.25,30.81,22.75,29,21.25Z"/>
        <rect x="120.71" y="2.11" width="6.37" height="37.83"/>
        <path d="M157.68,2.11l-13.8,37.82H151l2.64-8h16.51l2.73,8h7.35L166.42,2.11Zm-2.16,24.51,6.41-18.84,6.47,18.84Z"/>
        <polygon points="213.28 12.32 206.15 12.32 216.44 39.93 223.63 39.93 233.92 12.32 227.23 12.32 220.21 32.96 213.28 12.32"/>
        <rect x="240.41" y="12.32" width="6.37" height="27.61"/>
        <rect x="240.32" y="1.8" width="6.55" height="5.66"/>
        <path d="M56.7,26.46c0,4.75,1.16,7.24,3.45,9.72s5.55,3.75,9.77,3.75a15.27,15.27,0,0,0,8.59-2.29,10.29,10.29,0,0,0,3.37-3.79H74.93a7.54,7.54,0,0,1-.61.47,6.6,6.6,0,0,1-3.66,1.1c-2.74,0-4.75-.79-6-2.36A8.56,8.56,0,0,1,63,28.81L63,28h20.1l0-.2c0-.17,0-.28,0-.36a1.5,1.5,0,0,0,0-.29c0-4.79-1.17-8.38-3.45-10.81a12.79,12.79,0,0,0-9.73-4.14,13.21,13.21,0,0,0-9.74,4.06C57.87,18.7,56.7,22.12,56.7,26.46Zm6.69-3.81a8.6,8.6,0,0,1,1.24-2.75,5.94,5.94,0,0,1,5.15-2.55A6.16,6.16,0,0,1,75,19.54a7.56,7.56,0,0,1,1.35,3.11Z"/>
        <path d="M89,26.46c0,4.75,1.15,7.24,3.44,9.72s5.55,3.75,9.77,3.75a15.23,15.23,0,0,0,8.59-2.29,10.29,10.29,0,0,0,3.37-3.79h-7a7.54,7.54,0,0,1-.61.47,6.6,6.6,0,0,1-3.66,1.1c-2.74,0-4.74-.79-6-2.36a8.47,8.47,0,0,1-1.68-4.25L95.28,28h20.11a1.23,1.23,0,0,1,0-.2,2.12,2.12,0,0,0,0-.36,1.5,1.5,0,0,0,0-.29c0-4.79-1.17-8.38-3.45-10.81a12.79,12.79,0,0,0-9.73-4.14A13.21,13.21,0,0,0,92.5,16.3C90.2,18.7,89,22.12,89,26.46Zm6.68-3.81A8.6,8.6,0,0,1,97,19.9a6,6,0,0,1,5.16-2.55,6.18,6.18,0,0,1,5.18,2.19,7.69,7.69,0,0,1,1.34,3.11Z"/>
        <path d="M192.8,24.58q0-3.49,1.46-5c1-1,2.58-1.48,4.84-1.48h1.83V12.24H199.1q-6.22,0-9.45,3.56c-1.94,2.13-2.9,5.06-2.9,8.78V39.93h6.05Z"/>
        <path d="M50.93,34.05q-3.41,0-4.84-1.48c-1-1-1.46-2.65-1.46-5V16.78H48.2V12.32H44.63V4.45H38.57v7.87H34.9v4.46h3.67V27.59q0,5.58,2.9,8.78,3.22,3.56,9.46,3.56h1.82V34.05Z"/>
        <path d="M275.1,15.8a11.35,11.35,0,0,0-7.6-3.47v-.09h-3.68v.09a11.35,11.35,0,0,0-7.6,3.47q-2.9,3.19-2.9,8.78V39.93h6.06V24.58c0-2.33.48-4,1.46-5s2.56-1.48,4.82-1.48,3.87.49,4.82,1.48,1.46,2.65,1.46,5V39.93H278V24.58Q278,19,275.1,15.8Z"/>
    </symbol>
    <symbol id="instagram" viewBox="0 0 448 512">
        <path d="M224.1 141c-63.6 0-114.9 51.3-114.9 114.9s51.3 114.9 114.9 114.9S339 319.5 339 255.9 287.7 141 224.1 141zm0 189.6c-41.1 0-74.7-33.5-74.7-74.7s33.5-74.7 74.7-74.7 74.7 33.5 74.7 74.7-33.6 74.7-74.7 74.7zm146.4-194.3c0 14.9-12 26.8-26.8 26.8-14.9 0-26.8-12-26.8-26.8s12-26.8 26.8-26.8 26.8 12 26.8 26.8zm76.1 27.2c-1.7-35.9-9.9-67.7-36.2-93.9-26.2-26.2-58-34.4-93.9-36.2-37-2.1-147.9-2.1-184.9 0-35.8 1.7-67.6 9.9-93.9 36.1s-34.4 58-36.2 93.9c-2.1 37-2.1 147.9 0 184.9 1.7 35.9 9.9 67.7 36.2 93.9s58 34.4 93.9 36.2c37 2.1 147.9 2.1 184.9 0 35.9-1.7 67.7-9.9 93.9-36.2 26.2-26.2 34.4-58 36.2-93.9 2.1-37 2.1-147.8 0-184.8zM398.8 388c-7.8 19.6-22.9 34.7-42.6 42.6-29.5 11.7-99.5 9-132.1 9s-102.7 2.6-132.1-9c-19.6-7.8-34.7-22.9-42.6-42.6-11.7-29.5-9-99.5-9-132.1s-2.6-102.7 9-132.1c7.8-19.6 22.9-34.7 42.6-42.6 29.5-11.7 99.5-9 132.1-9s102.7-2.6 132.1 9c19.6 7.8 34.7 22.9 42.6 42.6 11.7 29.5 9 99.5 9 132.1s2.7 102.7-9 132.1z"/>
    </symbol>
    <symbol id="telegram" viewBox="0 0 448 512">
        <path d="M446.7 98.6l-67.6 318.8c-5.1 22.5-18.4 28.1-37.3 17.5l-103-75.9-49.7 47.8c-5.5 5.5-10.1 10.1-20.7 10.1l7.4-104.9 190.9-172.5c8.3-7.4-1.8-11.5-12.9-4.1L117.8 284 16.2 252.2c-22.1-6.9-22.5-22.1 4.6-32.7L418.2 66.4c18.4-6.9 34.5 4.1 28.5 32.2z"/>
    </symbol>
    <symbol id="whatsapp" viewBox="0 0 448 512">
        <path d="M380.9 97.1C339 55.1 283.2 32 223.9 32c-122.4 0-222 99.6-222 222 0 39.1 10.2 77.3 29.6 111L0 480l117.7-30.9c32.4 17.7 68.9 27 106.1 27h.1c122.3 0 224.1-99.6 224.1-222 0-59.3-25.2-115-67.1-157zm-157 341.6c-33.2 0-65.7-8.9-94-25.7l-6.7-4-69.8 18.3L72 359.2l-4.4-7c-18.5-29.4-28.2-63.3-28.2-98.2 0-101.7 82.8-184.5 184.6-184.5 49.3 0 95.6 19.2 130.4 54.1 34.8 34.9 56.2 81.2 56.1 130.5 0 101.8-84.9 184.6-186.6 184.6zm101.2-138.2c-5.5-2.8-32.8-16.2-37.9-18-5.1-1.9-8.8-2.8-12.5 2.8-3.7 5.6-14.3 18-17.6 21.8-3.2 3.7-6.5 4.2-12 1.4-32.6-16.3-54-29.1-75.5-66-5.7-9.8 5.7-9.1 16.3-30.3 1.8-3.7.9-6.9-.5-9.7-1.4-2.8-12.5-30.1-17.1-41.2-4.5-10.8-9.1-9.3-12.5-9.5-3.2-.2-6.9-.2-10.6-.2-3.7 0-9.7 1.4-14.8 6.9-5.1 5.6-19.4 19-19.4 46.3 0 27.3 19.9 53.7 22.6 57.4 2.8 3.7 39.1 59.7 94.8 83.8 35.2 15.2 49 16.5 66.6 13.9 10.7-1.6 32.8-13.4 37.4-26.4 4.6-13 4.6-24.1 3.2-26.4-1.3-2.5-5-3.9-10.5-6.6z"/>
    </symbol>
    <symbol id="shopping-bag" viewBox="0 0 448 512">
        <path d="M352 160v-32C352 57.42 294.579 0 224 0 153.42 0 96 57.42 96 128v32H0v272c0 44.183 35.817 80 80 80h288c44.183 0 80-35.817 80-80V160h-96zm-192-32c0-35.29 28.71-64 64-64s64 28.71 64 64v32H160v-32zm160 120c-13.255 0-24-10.745-24-24s10.745-24 24-24 24 10.745 24 24-10.745 24-24 24zm-192 0c-13.255 0-24-10.745-24-24s10.745-24 24-24 24 10.745 24 24-10.745 24-24 24z"/>
    </symbol>
    <symbol id="shopping-basket" viewBox="0 0 576 512">
        <path d="M576 216v16c0 13.255-10.745 24-24 24h-8l-26.113 182.788C514.509 462.435 494.257 480 470.37 480H105.63c-23.887 0-44.139-17.565-47.518-41.212L32 256h-8c-13.255 0-24-10.745-24-24v-16c0-13.255 10.745-24 24-24h67.341l106.78-146.821c10.395-14.292 30.407-17.453 44.701-7.058 14.293 10.395 17.453 30.408 7.058 44.701L170.477 192h235.046L326.12 82.821c-10.395-14.292-7.234-34.306 7.059-44.701 14.291-10.395 34.306-7.235 44.701 7.058L484.659 192H552c13.255 0 24 10.745 24 24zM312 392V280c0-13.255-10.745-24-24-24s-24 10.745-24 24v112c0 13.255 10.745 24 24 24s24-10.745 24-24zm112 0V280c0-13.255-10.745-24-24-24s-24 10.745-24 24v112c0 13.255 10.745 24 24 24s24-10.745 24-24zm-224 0V280c0-13.255-10.745-24-24-24s-24 10.745-24 24v112c0 13.255 10.745 24 24 24s24-10.745 24-24z"/>
    </symbol>
    <symbol id="search" viewBox="0 0 512 512">
        <path d="M505 442.7L405.3 343c-4.5-4.5-10.6-7-17-7H372c27.6-35.3 44-79.7 44-128C416 93.1 322.9 0 208 0S0 93.1 0 208s93.1 208 208 208c48.3 0 92.7-16.4 128-44v16.3c0 6.4 2.5 12.5 7 17l99.7 99.7c9.4 9.4 24.6 9.4 33.9 0l28.3-28.3c9.4-9.4 9.4-24.6.1-34zM208 336c-70.7 0-128-57.2-128-128 0-70.7 57.2-128 128-128 70.7 0 128 57.2 128 128 0 70.7-57.2 128-128 128z"/>
    </symbol>
    <symbol id="user" viewBox="0 0 448 512">
        <path d="M224 256c70.7 0 128-57.3 128-128S294.7 0 224 0 96 57.3 96 128s57.3 128 128 128zm89.6 32h-16.7c-22.2 10.2-46.9 16-72.9 16s-50.6-5.8-72.9-16h-16.7C60.2 288 0 348.2 0 422.4V464c0 26.5 21.5 48 48 48h352c26.5 0 48-21.5 48-48v-41.6c0-74.2-60.2-134.4-134.4-134.4z"/>
    </symbol>
    <symbol id="phone" viewBox="0 0 512 512">
        <path d="M493.4 24.6l-104-24c-11.3-2.6-22.9 3.3-27.5 13.9l-48 112c-4.2 9.8-1.4 21.3 6.9 28l60.6 49.6c-36 76.7-98.9 140.5-177.2 177.2l-49.6-60.6c-6.8-8.3-18.2-11.1-28-6.9l-112 48C3.9 366.5-2 378.1.6 389.4l24 104C27.1 504.2 36.7 512 48 512c256.1 0 464-207.5 464-464 0-11.2-7.7-20.9-18.6-23.4z"/>
    </symbol>
    <symbol id="bars" viewBox="0 0 448 512">
        <path d="M16 132h416c8.837 0 16-7.163 16-16V76c0-8.837-7.163-16-16-16H16C7.163 60 0 67.163 0 76v40c0 8.837 7.163 16 16 16zm0 160h416c8.837 0 16-7.163 16-16v-40c0-8.837-7.163-16-16-16H16c-8.837 0-16 7.163-16 16v40c0 8.837 7.163 16 16 16zm0 160h416c8.837 0 16-7.163 16-16v-40c0-8.837-7.163-16-16-16H16c-8.837 0-16 7.163-16 16v40c0 8.837 7.163 16 16 16z"/>
    </symbol>
    <symbol id="orders" viewBox="0 0 512 512">
        <path d="M16 128h416c8.84 0 16-7.16 16-16V48c0-8.84-7.16-16-16-16H16C7.16 32 0 39.16 0 48v64c0 8.84 7.16 16 16 16zm480 80H80c-8.84 0-16 7.16-16 16v64c0 8.84 7.16 16 16 16h416c8.84 0 16-7.16 16-16v-64c0-8.84-7.16-16-16-16zm-64 176H16c-8.84 0-16 7.16-16 16v64c0 8.84 7.16 16 16 16h416c8.84 0 16-7.16 16-16v-64c0-8.84-7.16-16-16-16z"/>
    </symbol>
    <symbol id="lock" viewBox="0 0 448 512">
        <path d="M400 224h-24v-72C376 68.2 307.8 0 224 0S72 68.2 72 152v72H48c-26.5 0-48 21.5-48 48v192c0 26.5 21.5 48 48 48h352c26.5 0 48-21.5 48-48V272c0-26.5-21.5-48-48-48zM264 392c0 22.1-17.9 40-40 40s-40-17.9-40-40v-48c0-22.1 17.9-40 40-40s40 17.9 40 40v48zm32-168H152v-72c0-39.7 32.3-72 72-72s72 32.3 72 72v72z"/>
    </symbol>
    <symbol id="map" viewBox="0 0 512 512">
        <path d="M507.31 84.69L464 41.37c-6-6-14.14-9.37-22.63-9.37H288V16c0-8.84-7.16-16-16-16h-32c-8.84 0-16 7.16-16 16v16H56c-13.25 0-24 10.75-24 24v80c0 13.25 10.75 24 24 24h385.37c8.49 0 16.62-3.37 22.63-9.37l43.31-43.31c6.25-6.26 6.25-16.38 0-22.63zM224 496c0 8.84 7.16 16 16 16h32c8.84 0 16-7.16 16-16V384h-64v112zm232-272H288v-32h-64v32H70.63c-8.49 0-16.62 3.37-22.63 9.37L4.69 276.69c-6.25 6.25-6.25 16.38 0 22.63L48 342.63c6 6 14.14 9.37 22.63 9.37H456c13.25 0 24-10.75 24-24v-80c0-13.25-10.75-24-24-24z"/>
    </symbol>
    <symbol id="bookmark" viewBox="0 0 384 512">
        <path d="M0 512V48C0 21.49 21.49 0 48 0h288c26.51 0 48 21.49 48 48v464L192 400 0 512z"/>
    </symbol>
    <symbol id="signout" viewBox="0 0 512 512">
        <path d="M497 273L329 441c-15 15-41 4.5-41-17v-96H152c-13.3 0-24-10.7-24-24v-96c0-13.3 10.7-24 24-24h136V88c0-21.4 25.9-32 41-17l168 168c9.3 9.4 9.3 24.6 0 34zM192 436v-40c0-6.6-5.4-12-12-12H96c-17.7 0-32-14.3-32-32V160c0-17.7 14.3-32 32-32h84c6.6 0 12-5.4 12-12V76c0-6.6-5.4-12-12-12H96c-53 0-96 43-96 96v192c0 53 43 96 96 96h84c6.6 0 12-5.4 12-12z"/>
    </symbol>
    <symbol id="check" viewBox="0 0 512 512">
        <path d="M173.898 439.404l-166.4-166.4c-9.997-9.997-9.997-26.206 0-36.204l36.203-36.204c9.997-9.998 26.207-9.998 36.204 0L192 312.69 432.095 72.596c9.997-9.997 26.207-9.997 36.204 0l36.203 36.204c9.997 9.997 9.997 26.206 0 36.204l-294.4 294.401c-9.998 9.997-26.207 9.997-36.204-.001z"/>
    </symbol>
    <symbol id="trash" viewBox="0 0 448 512">
        <path d="M432 32H312l-9.4-18.7A24 24 0 0 0 281.1 0H166.8a23.72 23.72 0 0 0-21.4 13.3L136 32H16A16 16 0 0 0 0 48v32a16 16 0 0 0 16 16h416a16 16 0 0 0 16-16V48a16 16 0 0 0-16-16zM53.2 467a48 48 0 0 0 47.9 45h245.8a48 48 0 0 0 47.9-45L416 128H32z"/>
    </symbol>
    <symbol id="box-open" viewBox="0 0 640 512">
        <path d="M425.7 256c-16.9 0-32.8-9-41.4-23.4L320 126l-64.2 106.6c-8.7 14.5-24.6 23.5-41.5 23.5-4.5 0-9-.6-13.3-1.9L64 215v178c0 14.7 10 27.5 24.2 31l216.2 54.1c10.2 2.5 20.9 2.5 31 0L551.8 424c14.2-3.6 24.2-16.4 24.2-31V215l-137 39.1c-4.3 1.3-8.8 1.9-13.3 1.9zm212.6-112.2L586.8 41c-3.1-6.2-9.8-9.8-16.7-8.9L320 64l91.7 152.1c3.8 6.3 11.4 9.3 18.5 7.3l197.9-56.5c9.9-2.9 14.7-13.9 10.2-23.1zM53.2 41L1.7 143.8c-4.6 9.2.3 20.2 10.1 23l197.9 56.5c7.1 2 14.7-1 18.5-7.3L320 64 69.8 32.1c-6.9-.8-13.5 2.7-16.6 8.9z"/>
    </symbol>
    <symbol id="user-plus" viewBox="0 0 640 512">
        <path d="M624 208h-64v-64c0-8.8-7.2-16-16-16h-32c-8.8 0-16 7.2-16 16v64h-64c-8.8 0-16 7.2-16 16v32c0 8.8 7.2 16 16 16h64v64c0 8.8 7.2 16 16 16h32c8.8 0 16-7.2 16-16v-64h64c8.8 0 16-7.2 16-16v-32c0-8.8-7.2-16-16-16zm-400 48c70.7 0 128-57.3 128-128S294.7 0 224 0 96 57.3 96 128s57.3 128 128 128zm89.6 32h-16.7c-22.2 10.2-46.9 16-72.9 16s-50.6-5.8-72.9-16h-16.7C60.2 288 0 348.2 0 422.4V464c0 26.5 21.5 48 48 48h352c26.5 0 48-21.5 48-48v-41.6c0-74.2-60.2-134.4-134.4-134.4z"/>
    </symbol>
    <symbol id="signin" viewBox="0 0 512 512">
        <path d="M137.2 110.3l21.9-21.9c9.3-9.3 24.5-9.4 33.9-.1L344.9 239c9.5 9.4 9.5 24.7 0 34.1L193 423.7c-9.4 9.3-24.5 9.3-33.9-.1l-21.9-21.9c-9.7-9.7-9.3-25.4.8-34.7l77.6-71.1H24c-13.3 0-24-10.7-24-24v-32c0-13.3 10.7-24 24-24h191.5l-77.6-71.1c-10-9.1-10.4-24.9-.7-34.5zM512 352V160c0-53-43-96-96-96h-84c-6.6 0-12 5.4-12 12v40c0 6.6 5.4 12 12 12h84c17.7 0 32 14.3 32 32v192c0 17.7-14.3 32-32 32h-84c-6.6 0-12 5.4-12 12v40c0 6.6 5.4 12 12 12h84c53 0 96-43 96-96z"/>
    </symbol>
    <symbol id="refresh" viewBox="0 0 512 512">
        <path d="M370.72 133.28C339.458 104.008 298.888 87.962 255.848 88c-77.458.068-144.328 53.178-162.791 126.85-1.344 5.363-6.122 9.15-11.651 9.15H24.103c-7.498 0-13.194-6.807-11.807-14.176C33.933 94.924 134.813 8 256 8c66.448 0 126.791 26.136 171.315 68.685L463.03 40.97C478.149 25.851 504 36.559 504 57.941V192c0 13.255-10.745 24-24 24H345.941c-21.382 0-32.09-25.851-16.971-40.971l41.75-41.749zM32 296h134.059c21.382 0 32.09 25.851 16.971 40.971l-41.75 41.75c31.262 29.273 71.835 45.319 114.876 45.28 77.418-.07 144.315-53.144 162.787-126.849 1.344-5.363 6.122-9.15 11.651-9.15h57.304c7.498 0 13.194 6.807 11.807 14.176C478.067 417.076 377.187 504 256 504c-66.448 0-126.791-26.136-171.315-68.685L48.97 471.03C33.851 486.149 8 475.441 8 454.059V320c0-13.255 10.745-24 24-24z"/>
    </symbol>
    <symbol id="tag" viewBox="0 0 512 512">
        <path d="M0 252.118V48C0 21.49 21.49 0 48 0h204.118a48 48 0 0 1 33.941 14.059l211.882 211.882c18.745 18.745 18.745 49.137 0 67.882L293.823 497.941c-18.745 18.745-49.137 18.745-67.882 0L14.059 286.059A48 48 0 0 1 0 252.118zM112 64c-26.51 0-48 21.49-48 48s21.49 48 48 48 48-21.49 48-48-21.49-48-48-48z"/>
    </symbol>
    <symbol id="tags" viewBox="0 0 640 512">
        <path d="M497.941 225.941L286.059 14.059A48 48 0 0 0 252.118 0H48C21.49 0 0 21.49 0 48v204.118a48 48 0 0 0 14.059 33.941l211.882 211.882c18.744 18.745 49.136 18.746 67.882 0l204.118-204.118c18.745-18.745 18.745-49.137 0-67.882zM112 160c-26.51 0-48-21.49-48-48s21.49-48 48-48 48 21.49 48 48-21.49 48-48 48zm513.941 133.823L421.823 497.941c-18.745 18.745-49.137 18.745-67.882 0l-.36-.36L527.64 323.522c16.999-16.999 26.36-39.6 26.36-63.64s-9.362-46.641-26.36-63.64L331.397 0h48.721a48 48 0 0 1 33.941 14.059l211.882 211.882c18.745 18.745 18.745 49.137 0 67.882z"/>
    </symbol>
    <symbol id="chevron-circle-up" viewBox="0 0 512 512">
        <path d="M8 256C8 119 119 8 256 8s248 111 248 248-111 248-248 248S8 393 8 256zm231-113.9L103.5 277.6c-9.4 9.4-9.4 24.6 0 33.9l17 17c9.4 9.4 24.6 9.4 33.9 0L256 226.9l101.6 101.6c9.4 9.4 24.6 9.4 33.9 0l17-17c9.4-9.4 9.4-24.6 0-33.9L273 142.1c-9.4-9.4-24.6-9.4-34 0z"/>
    </symbol>
    <symbol id="envelope" viewBox="0 0 512 512">
        <path d="M502.3 190.8c3.9-3.1 9.7-.2 9.7 4.7V400c0 26.5-21.5 48-48 48H48c-26.5 0-48-21.5-48-48V195.6c0-5 5.7-7.8 9.7-4.7 22.4 17.4 52.1 39.5 154.1 113.6 21.1 15.4 56.7 47.8 92.2 47.6 35.7.3 72-32.8 92.3-47.6 102-74.1 131.6-96.3 154-113.7zM256 320c23.2.4 56.6-29.2 73.4-41.4 132.7-96.3 142.8-104.7 173.4-128.7 5.8-4.5 9.2-11.5 9.2-18.9v-19c0-26.5-21.5-48-48-48H48C21.5 64 0 85.5 0 112v19c0 7.4 3.4 14.3 9.2 18.9 30.6 23.9 40.7 32.4 173.4 128.7 16.8 12.2 50.2 41.8 73.4 41.4z"/>
    </symbol>
    <symbol id="fax" viewBox="0 0 512 512">
        <path d="M480 160V77.25a32 32 0 0 0-9.38-22.63L425.37 9.37A32 32 0 0 0 402.75 0H160a32 32 0 0 0-32 32v448a32 32 0 0 0 32 32h320a32 32 0 0 0 32-32V192a32 32 0 0 0-32-32zM288 432a16 16 0 0 1-16 16h-32a16 16 0 0 1-16-16v-32a16 16 0 0 1 16-16h32a16 16 0 0 1 16 16zm0-128a16 16 0 0 1-16 16h-32a16 16 0 0 1-16-16v-32a16 16 0 0 1 16-16h32a16 16 0 0 1 16 16zm128 128a16 16 0 0 1-16 16h-32a16 16 0 0 1-16-16v-32a16 16 0 0 1 16-16h32a16 16 0 0 1 16 16zm0-128a16 16 0 0 1-16 16h-32a16 16 0 0 1-16-16v-32a16 16 0 0 1 16-16h32a16 16 0 0 1 16 16zm0-112H192V64h160v48a16 16 0 0 0 16 16h48zM64 128H32a32 32 0 0 0-32 32v320a32 32 0 0 0 32 32h32a32 32 0 0 0 32-32V160a32 32 0 0 0-32-32z"/>
    </symbol>
    <symbol id="mobile" viewBox="0 0 320 512">
        <path d="M272 0H48C21.5 0 0 21.5 0 48v416c0 26.5 21.5 48 48 48h224c26.5 0 48-21.5 48-48V48c0-26.5-21.5-48-48-48zM160 480c-17.7 0-32-14.3-32-32s14.3-32 32-32 32 14.3 32 32-14.3 32-32 32z"/>
    </symbol>
</svg>