<svg xmlns="http://www.w3.org/2000/svg">
    <symbol id="logoShape" viewBox="0 0 195 80">
        <path d="M57.94,0H21.63a21.64,21.64,0,0,0,0,43.27H57.94A14.68,14.68,0,1,1,43.26,58V52.62a3.48,3.48,0,0,0-3.47-3.48H3.48A3.48,3.48,0,0,0,0,52.62V58A21.66,21.66,0,0,0,21.63,79.58H57.94a21.64,21.64,0,0,0,0-43.27H21.63A14.68,14.68,0,1,1,36.31,21.63V27a3.48,3.48,0,0,0,3.48,3.48h36.3A3.48,3.48,0,0,0,79.57,27V21.63A21.65,21.65,0,0,0,57.94,0ZM21.63,72.63A14.7,14.7,0,0,1,7,58V56.09H36.31V58a21.52,21.52,0,0,0,5.76,14.68Zm51-49.14H43.26V21.63A21.52,21.52,0,0,0,37.5,7H57.94A14.7,14.7,0,0,1,72.62,21.63Z"/>
        <path d="M194.39,67.27,149.33,1.81a3.47,3.47,0,0,0-5.63-.14L93.92,67.15l0,0-.14.2-.06.09c0,.07-.07.13-.1.2l-.06.11a1.22,1.22,0,0,0-.07.17l-.06.15s0,.1,0,.14a1.8,1.8,0,0,1,0,.19l0,.13,0,.19a1,1,0,0,0,0,.16c0,.06,0,.11,0,.17v.33c0,.08,0,.17,0,.25a.22.22,0,0,1,0,.08,2.38,2.38,0,0,0,.05.26.13.13,0,0,1,0,.06c0,.09,0,.17.07.25l0,.08a1.67,1.67,0,0,0,.08.2.61.61,0,0,0,0,.12l.07.15.09.16a.83.83,0,0,0,.08.12,1.74,1.74,0,0,0,.11.18s0,0,0,0A21.73,21.73,0,0,0,111.22,80h.06a21.63,21.63,0,0,0,21.57-21.7V56.54l11.26,0,11.25,0V58.3A21.65,21.65,0,0,0,176.91,80H177a21.74,21.74,0,0,0,17.15-8.46A3.47,3.47,0,0,0,194.39,67.27Zm-17.46,5.78A14.7,14.7,0,0,1,162.3,58.32V53a3.48,3.48,0,0,0-3.47-3.49h0l-14.73,0-14.73,0h0A3.48,3.48,0,0,0,125.88,53l0,5.32a14.71,14.71,0,0,1-14.64,14.73h0a14.52,14.52,0,0,1-10-4L146.33,9.71,187.12,69A14.48,14.48,0,0,1,177,73.05Z"/>
    </symbol>
    <symbol id="logofa" viewBox="0 0 278 40">
        <path d="M267.44,14.7l-5.88,1.4q.31,1.47,1.37,5.79a3.12,3.12,0,0,1,.09.7c0,1-.7,1.45-2.1,1.45a2.28,2.28,0,0,1-1.83-.59,2.4,2.4,0,0,1-.43-1.62V17.36H252.6v4.47a2.13,2.13,0,0,1-.7,1.83,2.5,2.5,0,0,1-1.49.38,2.14,2.14,0,0,1-1.39-.38,2.26,2.26,0,0,1-.63-1.83V17.36h-6.06v4.47a2.4,2.4,0,0,1-.42,1.62,2.28,2.28,0,0,1-1.83.59h-5.32a2.62,2.62,0,0,1-1.7-.42,1.6,1.6,0,0,1-.42-1.25v-5h-6v5a1.49,1.49,0,0,1-.48,1.23,3,3,0,0,1-1.87.44h-8.4a2.6,2.6,0,0,1-1.7-.42,1.6,1.6,0,0,1-.43-1.25v-5h-6v5a1.52,1.52,0,0,1-.47,1.23,3,3,0,0,1-1.87.44H172.08a2,2,0,0,1-1.55-.59,2.16,2.16,0,0,1-.58-1.62V3.51h-6V29.08a6.68,6.68,0,0,1-.69,3.68,2.87,2.87,0,0,1-1.79,1A11.9,11.9,0,0,1,159,34h-1.16a7.82,7.82,0,0,1-1-.06,6.66,6.66,0,0,1-1.13-.26,3.5,3.5,0,0,1-2-1.47,4.74,4.74,0,0,1-.65-2.61,10.12,10.12,0,0,1,.07-1.2,18,18,0,0,1,1.74-5.42l-5.47-2.6a22.32,22.32,0,0,0-2.38,8.3c0,.31,0,.61,0,.9a10.78,10.78,0,0,0,1.59,5.85,9.33,9.33,0,0,0,4,3.5A12,12,0,0,0,157.84,40H159a14.67,14.67,0,0,0,5.37-.86,8.25,8.25,0,0,0,3.75-2.82,9,9,0,0,0,1.55-3.79,13.53,13.53,0,0,0,.26-2.68,8.56,8.56,0,0,0,2.15.26h32.83a10.93,10.93,0,0,0,4.44-.83,4.74,4.74,0,0,0,1.36-.81,5.07,5.07,0,0,0,1.28.81,7.87,7.87,0,0,0,1.59.57,9.74,9.74,0,0,0,2.27.26h8a10.88,10.88,0,0,0,4.43-.83,4.68,4.68,0,0,0,1.37-.81,4.81,4.81,0,0,0,1.27.81,8.1,8.1,0,0,0,1.59.57,9.74,9.74,0,0,0,2.27.26h5.32c2.54,0,4.3-.56,5.3-1.68a8.32,8.32,0,0,0,5.19,1.68,8.05,8.05,0,0,0,5-1.68,8.68,8.68,0,0,0,2.06,1.11,10.85,10.85,0,0,0,3.56.57,7.19,7.19,0,0,0,6.41-3.37,8.23,8.23,0,0,0,1.24-3.11,9.29,9.29,0,0,0,.13-1.45,6.92,6.92,0,0,0-.19-1.66C268.26,18.1,267.79,16.17,267.44,14.7Z"/>
        <rect x="271.94" y="3.55" width="6.06" height="26.53"/>
        <rect x="213.73" y="6.45" width="12.85" height="5.87"/>
        <rect x="194.91" y="34.13" width="12.85" height="5.87"/>
        <path d="M120.19,27.26q0,3.58-1.46,5.11t-4.84,1.53h-1.83v6h1.83q6.23,0,9.46-3.66,2.9-3.27,2.9-9V17.34h-6.06Z"/>
        <path d="M130.66.16a7,7,0,0,0-2.16.63,5.82,5.82,0,0,0-2,1.64,7.74,7.74,0,0,0-1.32,2.7l3.44,1a5,5,0,0,1,.62-1.38,2.32,2.32,0,0,1,.87-.78,3.33,3.33,0,0,1,1.27-.33c.5,0,1.11-.06,1.84-.06h9.05V0h-9.05A18.45,18.45,0,0,0,130.66.16Z"/>
        <rect x="131.32" y="6.23" width="6.06" height="23.82"/>
        <polygon points="18.06 16 14.15 12.1 10.31 15.97 14.17 19.87 18.06 16"/>
        <path d="M80,14.33l-5.78,1.75c.1.43.24,1.14.43,2.15l0,.35.07.35c0,.28.11.54.15.79.13.65.25,1.28.37,1.91a2.77,2.77,0,0,1,.08.61,1.45,1.45,0,0,1-.71,1.34,4.46,4.46,0,0,1-2.34.44H28.69a2.24,2.24,0,0,1-1.52-.49,1.71,1.71,0,0,1-.59-1.37V17.34h-6V28.8q0,2.73-1.05,3.81c-.83.85-2.39,1.27-4.7,1.27H12a9.65,9.65,0,0,1-1.22-.07,7.3,7.3,0,0,1-1.41-.31,4.52,4.52,0,0,1-2.51-1.84A5.77,5.77,0,0,1,6,28.44c0-.21,0-.42,0-.63a20.27,20.27,0,0,1,2.1-7.3L2.66,18A26.25,26.25,0,0,0,0,27.5c0,.31,0,.61,0,.92a11.86,11.86,0,0,0,1.76,6.49,10.41,10.41,0,0,0,4.52,3.85A13.73,13.73,0,0,0,12,39.91h2.78a15.92,15.92,0,0,0,5.45-.84,9.54,9.54,0,0,0,3.94-2.63,10.74,10.74,0,0,0,2.36-6.64,3.54,3.54,0,0,0,1,.22l.57,0H72.45c3.47,0,6-1.06,7.51-3.17a7.39,7.39,0,0,0,1.45-4.49,10.18,10.18,0,0,0-.15-1.69Q80.56,16.93,80,14.33Z"/>
        <rect x="61.63" y="33.98" width="12.85" height="5.87"/>
        <path d="M107.93,18.36a12.6,12.6,0,0,0-9.41-4,12.19,12.19,0,0,0-9.4,4.11Q85.81,22,85.78,29.17a1.33,1.33,0,0,0,0,.28c0,.08,0,.18,0,.35l0,.2h19.43a12.82,12.82,0,0,1-1.68,3.12c-1.15,1.58-3.12,2.34-5.77,2.34a6.21,6.21,0,0,1-3.53-1.1,5.75,5.75,0,0,1-.59-.46H87a10.08,10.08,0,0,0,3.26,3.76,14.43,14.43,0,0,0,8.3,2.27c4.08,0,7.26-1.25,9.45-3.72s2.75-3.66,3.32-7.77A12.07,12.07,0,0,0,107.93,18.36Zm-15.59,6.3a7.85,7.85,0,0,1,1.3-3.09,5.92,5.92,0,0,1,5-2.17,5.68,5.68,0,0,1,5,2.53,8.45,8.45,0,0,1,1.2,2.73Z"/>
    </symbol>
    <symbol id="logoen" viewBox="0 0 278 40">
        <path d="M29,21.25c-1.87-1.59-5.74-3-11.5-4.27-2.09-.48-3.75-.9-5.09-1.28a18.49,18.49,0,0,1-3.07-1.09,3.67,3.67,0,0,1-2.28-3.39A5.22,5.22,0,0,1,9.16,6.79a9.17,9.17,0,0,1,5.53-1.47,10.89,10.89,0,0,1,6.45,1.75,6.63,6.63,0,0,1,2.77,4.33h6.74a12.16,12.16,0,0,0-4.4-8.09A16.33,16.33,0,0,0,15.67,0C11,0,7.3,1.07,4.59,3.19a10.14,10.14,0,0,0-4,8.51c0,3.18,1,5.45,2.94,6.94s6.32,3,12.6,4.38c3.58.78,5.89,1.51,7.05,2.23a4.43,4.43,0,0,1,2,3.92,4.57,4.57,0,0,1-2.59,4.15,13.7,13.7,0,0,1-6.72,1.37,10.71,10.71,0,0,1-6.67-1.84,6.57,6.57,0,0,1-2.54-4.64H0a11.85,11.85,0,0,0,4.28,8.48C7.05,38.89,10.94,40,15.85,40s8.85-1,11.69-3.11a9.48,9.48,0,0,0,4.17-8.2C31.71,25.25,30.81,22.75,29,21.25Z"/>
        <rect x="120.71" y="2.11" width="6.37" height="37.83"/>
        <path d="M157.68,2.11l-13.8,37.82H151l2.64-8h16.51l2.73,8h7.35L166.42,2.11Zm-2.16,24.51,6.41-18.84,6.47,18.84Z"/>
        <polygon points="213.28 12.32 206.15 12.32 216.44 39.93 223.63 39.93 233.92 12.32 227.23 12.32 220.21 32.96 213.28 12.32"/>
        <rect x="240.41" y="12.32" width="6.37" height="27.61"/>
        <rect x="240.32" y="1.8" width="6.55" height="5.66"/>
        <path d="M56.7,26.46c0,4.75,1.16,7.24,3.45,9.72s5.55,3.75,9.77,3.75a15.27,15.27,0,0,0,8.59-2.29,10.29,10.29,0,0,0,3.37-3.79H74.93a7.54,7.54,0,0,1-.61.47,6.6,6.6,0,0,1-3.66,1.1c-2.74,0-4.75-.79-6-2.36A8.56,8.56,0,0,1,63,28.81L63,28h20.1l0-.2c0-.17,0-.28,0-.36a1.5,1.5,0,0,0,0-.29c0-4.79-1.17-8.38-3.45-10.81a12.79,12.79,0,0,0-9.73-4.14,13.21,13.21,0,0,0-9.74,4.06C57.87,18.7,56.7,22.12,56.7,26.46Zm6.69-3.81a8.6,8.6,0,0,1,1.24-2.75,5.94,5.94,0,0,1,5.15-2.55A6.16,6.16,0,0,1,75,19.54a7.56,7.56,0,0,1,1.35,3.11Z"/>
        <path d="M89,26.46c0,4.75,1.15,7.24,3.44,9.72s5.55,3.75,9.77,3.75a15.23,15.23,0,0,0,8.59-2.29,10.29,10.29,0,0,0,3.37-3.79h-7a7.54,7.54,0,0,1-.61.47,6.6,6.6,0,0,1-3.66,1.1c-2.74,0-4.74-.79-6-2.36a8.47,8.47,0,0,1-1.68-4.25L95.28,28h20.11a1.23,1.23,0,0,1,0-.2,2.12,2.12,0,0,0,0-.36,1.5,1.5,0,0,0,0-.29c0-4.79-1.17-8.38-3.45-10.81a12.79,12.79,0,0,0-9.73-4.14A13.21,13.21,0,0,0,92.5,16.3C90.2,18.7,89,22.12,89,26.46Zm6.68-3.81A8.6,8.6,0,0,1,97,19.9a6,6,0,0,1,5.16-2.55,6.18,6.18,0,0,1,5.18,2.19,7.69,7.69,0,0,1,1.34,3.11Z"/>
        <path d="M192.8,24.58q0-3.49,1.46-5c1-1,2.58-1.48,4.84-1.48h1.83V12.24H199.1q-6.22,0-9.45,3.56c-1.94,2.13-2.9,5.06-2.9,8.78V39.93h6.05Z"/>
        <path d="M50.93,34.05q-3.41,0-4.84-1.48c-1-1-1.46-2.65-1.46-5V16.78H48.2V12.32H44.63V4.45H38.57v7.87H34.9v4.46h3.67V27.59q0,5.58,2.9,8.78,3.22,3.56,9.46,3.56h1.82V34.05Z"/>
        <path d="M275.1,15.8a11.35,11.35,0,0,0-7.6-3.47v-.09h-3.68v.09a11.35,11.35,0,0,0-7.6,3.47q-2.9,3.19-2.9,8.78V39.93h6.06V24.58c0-2.33.48-4,1.46-5s2.56-1.48,4.82-1.48,3.87.49,4.82,1.48,1.46,2.65,1.46,5V39.93H278V24.58Q278,19,275.1,15.8Z"/>
    </symbol>
    <symbol id="instagram" viewBox="0 0 448 512">
        <path d="M224.1 141c-63.6 0-114.9 51.3-114.9 114.9s51.3 114.9 114.9 114.9S339 319.5 339 255.9 287.7 141 224.1 141zm0 189.6c-41.1 0-74.7-33.5-74.7-74.7s33.5-74.7 74.7-74.7 74.7 33.5 74.7 74.7-33.6 74.7-74.7 74.7zm146.4-194.3c0 14.9-12 26.8-26.8 26.8-14.9 0-26.8-12-26.8-26.8s12-26.8 26.8-26.8 26.8 12 26.8 26.8zm76.1 27.2c-1.7-35.9-9.9-67.7-36.2-93.9-26.2-26.2-58-34.4-93.9-36.2-37-2.1-147.9-2.1-184.9 0-35.8 1.7-67.6 9.9-93.9 36.1s-34.4 58-36.2 93.9c-2.1 37-2.1 147.9 0 184.9 1.7 35.9 9.9 67.7 36.2 93.9s58 34.4 93.9 36.2c37 2.1 147.9 2.1 184.9 0 35.9-1.7 67.7-9.9 93.9-36.2 26.2-26.2 34.4-58 36.2-93.9 2.1-37 2.1-147.8 0-184.8zM398.8 388c-7.8 19.6-22.9 34.7-42.6 42.6-29.5 11.7-99.5 9-132.1 9s-102.7 2.6-132.1-9c-19.6-7.8-34.7-22.9-42.6-42.6-11.7-29.5-9-99.5-9-132.1s-2.6-102.7 9-132.1c7.8-19.6 22.9-34.7 42.6-42.6 29.5-11.7 99.5-9 132.1-9s102.7-2.6 132.1 9c19.6 7.8 34.7 22.9 42.6 42.6 11.7 29.5 9 99.5 9 132.1s2.7 102.7-9 132.1z"/>
    </symbol>
    <symbol id="telegram" viewBox="0 0 448 512">
        <path d="M446.7 98.6l-67.6 318.8c-5.1 22.5-18.4 28.1-37.3 17.5l-103-75.9-49.7 47.8c-5.5 5.5-10.1 10.1-20.7 10.1l7.4-104.9 190.9-172.5c8.3-7.4-1.8-11.5-12.9-4.1L117.8 284 16.2 252.2c-22.1-6.9-22.5-22.1 4.6-32.7L418.2 66.4c18.4-6.9 34.5 4.1 28.5 32.2z"/>
    </symbol>
    <symbol id="whatsapp" viewBox="0 0 448 512">
        <path d="M380.9 97.1C339 55.1 283.2 32 223.9 32c-122.4 0-222 99.6-222 222 0 39.1 10.2 77.3 29.6 111L0 480l117.7-30.9c32.4 17.7 68.9 27 106.1 27h.1c122.3 0 224.1-99.6 224.1-222 0-59.3-25.2-115-67.1-157zm-157 341.6c-33.2 0-65.7-8.9-94-25.7l-6.7-4-69.8 18.3L72 359.2l-4.4-7c-18.5-29.4-28.2-63.3-28.2-98.2 0-101.7 82.8-184.5 184.6-184.5 49.3 0 95.6 19.2 130.4 54.1 34.8 34.9 56.2 81.2 56.1 130.5 0 101.8-84.9 184.6-186.6 184.6zm101.2-138.2c-5.5-2.8-32.8-16.2-37.9-18-5.1-1.9-8.8-2.8-12.5 2.8-3.7 5.6-14.3 18-17.6 21.8-3.2 3.7-6.5 4.2-12 1.4-32.6-16.3-54-29.1-75.5-66-5.7-9.8 5.7-9.1 16.3-30.3 1.8-3.7.9-6.9-.5-9.7-1.4-2.8-12.5-30.1-17.1-41.2-4.5-10.8-9.1-9.3-12.5-9.5-3.2-.2-6.9-.2-10.6-.2-3.7 0-9.7 1.4-14.8 6.9-5.1 5.6-19.4 19-19.4 46.3 0 27.3 19.9 53.7 22.6 57.4 2.8 3.7 39.1 59.7 94.8 83.8 35.2 15.2 49 16.5 66.6 13.9 10.7-1.6 32.8-13.4 37.4-26.4 4.6-13 4.6-24.1 3.2-26.4-1.3-2.5-5-3.9-10.5-6.6z"/>
    </symbol>
    <symbol id="facebook" viewBox="0 0 320 512">
        <path d="M279.14 288l14.22-92.66h-88.91v-60.13c0-25.35 12.42-50.06 52.24-50.06h40.42V6.26S260.43 0 225.36 0c-73.22 0-121.08 44.38-121.08 124.72v70.62H22.89V288h81.39v224h100.17V288z"/>
    </symbol>
    <symbol id="twitter" viewBox="0 0 512 512">
        <path d="M459.37 151.716c.325 4.548.325 9.097.325 13.645 0 138.72-105.583 298.558-298.558 298.558-59.452 0-114.68-17.219-161.137-47.106 8.447.974 16.568 1.299 25.34 1.299 49.055 0 94.213-16.568 130.274-44.832-46.132-.975-84.792-31.188-98.112-72.772 6.498.974 12.995 1.624 19.818 1.624 9.421 0 18.843-1.3 27.614-3.573-48.081-9.747-84.143-51.98-84.143-102.985v-1.299c13.969 7.797 30.214 12.67 47.431 13.319-28.264-18.843-46.781-51.005-46.781-87.391 0-19.492 5.197-37.36 14.294-52.954 51.655 63.675 129.3 105.258 216.365 109.807-1.624-7.797-2.599-15.918-2.599-24.04 0-57.828 46.782-104.934 104.934-104.934 30.213 0 57.502 12.67 76.67 33.137 23.715-4.548 46.456-13.32 66.599-25.34-7.798 24.366-24.366 44.833-46.132 57.827 21.117-2.273 41.584-8.122 60.426-16.243-14.292 20.791-32.161 39.308-52.628 54.253z"/>
    </symbol>
    <symbol id="shopping-cart" viewBox="0 0 576 512">
        <path d="M528.12 301.319l47.273-208C578.806 78.301 567.391 64 551.99 64H159.208l-9.166-44.81C147.758 8.021 137.93 0 126.529 0H24C10.745 0 0 10.745 0 24v16c0 13.255 10.745 24 24 24h69.883l70.248 343.435C147.325 417.1 136 435.222 136 456c0 30.928 25.072 56 56 56s56-25.072 56-56c0-15.674-6.447-29.835-16.824-40h209.647C430.447 426.165 424 440.326 424 456c0 30.928 25.072 56 56 56s56-25.072 56-56c0-22.172-12.888-41.332-31.579-50.405l5.517-24.276c3.413-15.018-8.002-29.319-23.403-29.319H218.117l-6.545-32h293.145c11.206 0 20.92-7.754 23.403-18.681z"/>
    </symbol>
    <symbol id="search" viewBox="0 0 512 512">
        <path d="M505 442.7L405.3 343c-4.5-4.5-10.6-7-17-7H372c27.6-35.3 44-79.7 44-128C416 93.1 322.9 0 208 0S0 93.1 0 208s93.1 208 208 208c48.3 0 92.7-16.4 128-44v16.3c0 6.4 2.5 12.5 7 17l99.7 99.7c9.4 9.4 24.6 9.4 33.9 0l28.3-28.3c9.4-9.4 9.4-24.6.1-34zM208 336c-70.7 0-128-57.2-128-128 0-70.7 57.2-128 128-128 70.7 0 128 57.2 128 128 0 70.7-57.2 128-128 128z"/>
    </symbol>
    <symbol id="user" viewBox="0 0 448 512">
        <path d="M224 256c70.7 0 128-57.3 128-128S294.7 0 224 0 96 57.3 96 128s57.3 128 128 128zm89.6 32h-16.7c-22.2 10.2-46.9 16-72.9 16s-50.6-5.8-72.9-16h-16.7C60.2 288 0 348.2 0 422.4V464c0 26.5 21.5 48 48 48h352c26.5 0 48-21.5 48-48v-41.6c0-74.2-60.2-134.4-134.4-134.4z"/>
    </symbol>
    <symbol id="phone" viewBox="0 0 512 512">
        <path d="M493.4 24.6l-104-24c-11.3-2.6-22.9 3.3-27.5 13.9l-48 112c-4.2 9.8-1.4 21.3 6.9 28l60.6 49.6c-36 76.7-98.9 140.5-177.2 177.2l-49.6-60.6c-6.8-8.3-18.2-11.1-28-6.9l-112 48C3.9 366.5-2 378.1.6 389.4l24 104C27.1 504.2 36.7 512 48 512c256.1 0 464-207.5 464-464 0-11.2-7.7-20.9-18.6-23.4z"/>
    </symbol>
    <symbol id="bars" viewBox="0 0 448 512">
        <path d="M16 132h416c8.837 0 16-7.163 16-16V76c0-8.837-7.163-16-16-16H16C7.163 60 0 67.163 0 76v40c0 8.837 7.163 16 16 16zm0 160h416c8.837 0 16-7.163 16-16v-40c0-8.837-7.163-16-16-16H16c-8.837 0-16 7.163-16 16v40c0 8.837 7.163 16 16 16zm0 160h416c8.837 0 16-7.163 16-16v-40c0-8.837-7.163-16-16-16H16c-8.837 0-16 7.163-16 16v40c0 8.837 7.163 16 16 16z"/>
    </symbol>
    <symbol id="orders" viewBox="0 0 512 512">
        <path d="M16 128h416c8.84 0 16-7.16 16-16V48c0-8.84-7.16-16-16-16H16C7.16 32 0 39.16 0 48v64c0 8.84 7.16 16 16 16zm480 80H80c-8.84 0-16 7.16-16 16v64c0 8.84 7.16 16 16 16h416c8.84 0 16-7.16 16-16v-64c0-8.84-7.16-16-16-16zm-64 176H16c-8.84 0-16 7.16-16 16v64c0 8.84 7.16 16 16 16h416c8.84 0 16-7.16 16-16v-64c0-8.84-7.16-16-16-16z"/>
    </symbol>
    <symbol id="lock" viewBox="0 0 448 512">
        <path d="M400 224h-24v-72C376 68.2 307.8 0 224 0S72 68.2 72 152v72H48c-26.5 0-48 21.5-48 48v192c0 26.5 21.5 48 48 48h352c26.5 0 48-21.5 48-48V272c0-26.5-21.5-48-48-48zM264 392c0 22.1-17.9 40-40 40s-40-17.9-40-40v-48c0-22.1 17.9-40 40-40s40 17.9 40 40v48zm32-168H152v-72c0-39.7 32.3-72 72-72s72 32.3 72 72v72z"/>
    </symbol>
    <symbol id="map" viewBox="0 0 512 512">
        <path d="M507.31 84.69L464 41.37c-6-6-14.14-9.37-22.63-9.37H288V16c0-8.84-7.16-16-16-16h-32c-8.84 0-16 7.16-16 16v16H56c-13.25 0-24 10.75-24 24v80c0 13.25 10.75 24 24 24h385.37c8.49 0 16.62-3.37 22.63-9.37l43.31-43.31c6.25-6.26 6.25-16.38 0-22.63zM224 496c0 8.84 7.16 16 16 16h32c8.84 0 16-7.16 16-16V384h-64v112zm232-272H288v-32h-64v32H70.63c-8.49 0-16.62 3.37-22.63 9.37L4.69 276.69c-6.25 6.25-6.25 16.38 0 22.63L48 342.63c6 6 14.14 9.37 22.63 9.37H456c13.25 0 24-10.75 24-24v-80c0-13.25-10.75-24-24-24z"/>
    </symbol>
    <symbol id="bookmark" viewBox="0 0 384 512">
        <path d="M0 512V48C0 21.49 21.49 0 48 0h288c26.51 0 48 21.49 48 48v464L192 400 0 512z"/>
    </symbol>
    <symbol id="signout" viewBox="0 0 512 512">
        <path d="M497 273L329 441c-15 15-41 4.5-41-17v-96H152c-13.3 0-24-10.7-24-24v-96c0-13.3 10.7-24 24-24h136V88c0-21.4 25.9-32 41-17l168 168c9.3 9.4 9.3 24.6 0 34zM192 436v-40c0-6.6-5.4-12-12-12H96c-17.7 0-32-14.3-32-32V160c0-17.7 14.3-32 32-32h84c6.6 0 12-5.4 12-12V76c0-6.6-5.4-12-12-12H96c-53 0-96 43-96 96v192c0 53 43 96 96 96h84c6.6 0 12-5.4 12-12z"/>
    </symbol>
    <symbol id="check" viewBox="0 0 512 512">
        <path d="M173.898 439.404l-166.4-166.4c-9.997-9.997-9.997-26.206 0-36.204l36.203-36.204c9.997-9.998 26.207-9.998 36.204 0L192 312.69 432.095 72.596c9.997-9.997 26.207-9.997 36.204 0l36.203 36.204c9.997 9.997 9.997 26.206 0 36.204l-294.4 294.401c-9.998 9.997-26.207 9.997-36.204-.001z"/>
    </symbol>
    <symbol id="trash" viewBox="0 0 448 512">
        <path d="M432 32H312l-9.4-18.7A24 24 0 0 0 281.1 0H166.8a23.72 23.72 0 0 0-21.4 13.3L136 32H16A16 16 0 0 0 0 48v32a16 16 0 0 0 16 16h416a16 16 0 0 0 16-16V48a16 16 0 0 0-16-16zM53.2 467a48 48 0 0 0 47.9 45h245.8a48 48 0 0 0 47.9-45L416 128H32z"/>
    </symbol>
    <symbol id="box-open" viewBox="0 0 640 512">
        <path d="M425.7 256c-16.9 0-32.8-9-41.4-23.4L320 126l-64.2 106.6c-8.7 14.5-24.6 23.5-41.5 23.5-4.5 0-9-.6-13.3-1.9L64 215v178c0 14.7 10 27.5 24.2 31l216.2 54.1c10.2 2.5 20.9 2.5 31 0L551.8 424c14.2-3.6 24.2-16.4 24.2-31V215l-137 39.1c-4.3 1.3-8.8 1.9-13.3 1.9zm212.6-112.2L586.8 41c-3.1-6.2-9.8-9.8-16.7-8.9L320 64l91.7 152.1c3.8 6.3 11.4 9.3 18.5 7.3l197.9-56.5c9.9-2.9 14.7-13.9 10.2-23.1zM53.2 41L1.7 143.8c-4.6 9.2.3 20.2 10.1 23l197.9 56.5c7.1 2 14.7-1 18.5-7.3L320 64 69.8 32.1c-6.9-.8-13.5 2.7-16.6 8.9z"/>
    </symbol>
    <symbol id="user-plus" viewBox="0 0 640 512">
        <path d="M624 208h-64v-64c0-8.8-7.2-16-16-16h-32c-8.8 0-16 7.2-16 16v64h-64c-8.8 0-16 7.2-16 16v32c0 8.8 7.2 16 16 16h64v64c0 8.8 7.2 16 16 16h32c8.8 0 16-7.2 16-16v-64h64c8.8 0 16-7.2 16-16v-32c0-8.8-7.2-16-16-16zm-400 48c70.7 0 128-57.3 128-128S294.7 0 224 0 96 57.3 96 128s57.3 128 128 128zm89.6 32h-16.7c-22.2 10.2-46.9 16-72.9 16s-50.6-5.8-72.9-16h-16.7C60.2 288 0 348.2 0 422.4V464c0 26.5 21.5 48 48 48h352c26.5 0 48-21.5 48-48v-41.6c0-74.2-60.2-134.4-134.4-134.4z"/>
    </symbol>
    <symbol id="signin" viewBox="0 0 512 512">
        <path d="M137.2 110.3l21.9-21.9c9.3-9.3 24.5-9.4 33.9-.1L344.9 239c9.5 9.4 9.5 24.7 0 34.1L193 423.7c-9.4 9.3-24.5 9.3-33.9-.1l-21.9-21.9c-9.7-9.7-9.3-25.4.8-34.7l77.6-71.1H24c-13.3 0-24-10.7-24-24v-32c0-13.3 10.7-24 24-24h191.5l-77.6-71.1c-10-9.1-10.4-24.9-.7-34.5zM512 352V160c0-53-43-96-96-96h-84c-6.6 0-12 5.4-12 12v40c0 6.6 5.4 12 12 12h84c17.7 0 32 14.3 32 32v192c0 17.7-14.3 32-32 32h-84c-6.6 0-12 5.4-12 12v40c0 6.6 5.4 12 12 12h84c53 0 96-43 96-96z"/>
    </symbol>
    <symbol id="refresh" viewBox="0 0 512 512">
        <path d="M370.72 133.28C339.458 104.008 298.888 87.962 255.848 88c-77.458.068-144.328 53.178-162.791 126.85-1.344 5.363-6.122 9.15-11.651 9.15H24.103c-7.498 0-13.194-6.807-11.807-14.176C33.933 94.924 134.813 8 256 8c66.448 0 126.791 26.136 171.315 68.685L463.03 40.97C478.149 25.851 504 36.559 504 57.941V192c0 13.255-10.745 24-24 24H345.941c-21.382 0-32.09-25.851-16.971-40.971l41.75-41.749zM32 296h134.059c21.382 0 32.09 25.851 16.971 40.971l-41.75 41.75c31.262 29.273 71.835 45.319 114.876 45.28 77.418-.07 144.315-53.144 162.787-126.849 1.344-5.363 6.122-9.15 11.651-9.15h57.304c7.498 0 13.194 6.807 11.807 14.176C478.067 417.076 377.187 504 256 504c-66.448 0-126.791-26.136-171.315-68.685L48.97 471.03C33.851 486.149 8 475.441 8 454.059V320c0-13.255 10.745-24 24-24z"/>
    </symbol>
    <symbol id="tag" viewBox="0 0 512 512">
        <path d="M0 252.118V48C0 21.49 21.49 0 48 0h204.118a48 48 0 0 1 33.941 14.059l211.882 211.882c18.745 18.745 18.745 49.137 0 67.882L293.823 497.941c-18.745 18.745-49.137 18.745-67.882 0L14.059 286.059A48 48 0 0 1 0 252.118zM112 64c-26.51 0-48 21.49-48 48s21.49 48 48 48 48-21.49 48-48-21.49-48-48-48z"/>
    </symbol>
    <symbol id="tags" viewBox="0 0 640 512">
        <path d="M497.941 225.941L286.059 14.059A48 48 0 0 0 252.118 0H48C21.49 0 0 21.49 0 48v204.118a48 48 0 0 0 14.059 33.941l211.882 211.882c18.744 18.745 49.136 18.746 67.882 0l204.118-204.118c18.745-18.745 18.745-49.137 0-67.882zM112 160c-26.51 0-48-21.49-48-48s21.49-48 48-48 48 21.49 48 48-21.49 48-48 48zm513.941 133.823L421.823 497.941c-18.745 18.745-49.137 18.745-67.882 0l-.36-.36L527.64 323.522c16.999-16.999 26.36-39.6 26.36-63.64s-9.362-46.641-26.36-63.64L331.397 0h48.721a48 48 0 0 1 33.941 14.059l211.882 211.882c18.745 18.745 18.745 49.137 0 67.882z"/>
    </symbol>
    <symbol id="chevron-circle-up" viewBox="0 0 512 512">
        <path d="M8 256C8 119 119 8 256 8s248 111 248 248-111 248-248 248S8 393 8 256zm231-113.9L103.5 277.6c-9.4 9.4-9.4 24.6 0 33.9l17 17c9.4 9.4 24.6 9.4 33.9 0L256 226.9l101.6 101.6c9.4 9.4 24.6 9.4 33.9 0l17-17c9.4-9.4 9.4-24.6 0-33.9L273 142.1c-9.4-9.4-24.6-9.4-34 0z"/>
    </symbol>
    <symbol id="envelope" viewBox="0 0 512 512">
        <path d="M502.3 190.8c3.9-3.1 9.7-.2 9.7 4.7V400c0 26.5-21.5 48-48 48H48c-26.5 0-48-21.5-48-48V195.6c0-5 5.7-7.8 9.7-4.7 22.4 17.4 52.1 39.5 154.1 113.6 21.1 15.4 56.7 47.8 92.2 47.6 35.7.3 72-32.8 92.3-47.6 102-74.1 131.6-96.3 154-113.7zM256 320c23.2.4 56.6-29.2 73.4-41.4 132.7-96.3 142.8-104.7 173.4-128.7 5.8-4.5 9.2-11.5 9.2-18.9v-19c0-26.5-21.5-48-48-48H48C21.5 64 0 85.5 0 112v19c0 7.4 3.4 14.3 9.2 18.9 30.6 23.9 40.7 32.4 173.4 128.7 16.8 12.2 50.2 41.8 73.4 41.4z"/>
    </symbol>
    <symbol id="fax" viewBox="0 0 512 512">
        <path d="M480 160V77.25a32 32 0 0 0-9.38-22.63L425.37 9.37A32 32 0 0 0 402.75 0H160a32 32 0 0 0-32 32v448a32 32 0 0 0 32 32h320a32 32 0 0 0 32-32V192a32 32 0 0 0-32-32zM288 432a16 16 0 0 1-16 16h-32a16 16 0 0 1-16-16v-32a16 16 0 0 1 16-16h32a16 16 0 0 1 16 16zm0-128a16 16 0 0 1-16 16h-32a16 16 0 0 1-16-16v-32a16 16 0 0 1 16-16h32a16 16 0 0 1 16 16zm128 128a16 16 0 0 1-16 16h-32a16 16 0 0 1-16-16v-32a16 16 0 0 1 16-16h32a16 16 0 0 1 16 16zm0-128a16 16 0 0 1-16 16h-32a16 16 0 0 1-16-16v-32a16 16 0 0 1 16-16h32a16 16 0 0 1 16 16zm0-112H192V64h160v48a16 16 0 0 0 16 16h48zM64 128H32a32 32 0 0 0-32 32v320a32 32 0 0 0 32 32h32a32 32 0 0 0 32-32V160a32 32 0 0 0-32-32z"/>
    </symbol>
    <symbol id="mobile" viewBox="0 0 320 512">
        <path d="M272 0H48C21.5 0 0 21.5 0 48v416c0 26.5 21.5 48 48 48h224c26.5 0 48-21.5 48-48V48c0-26.5-21.5-48-48-48zM160 480c-17.7 0-32-14.3-32-32s14.3-32 32-32 32 14.3 32 32-14.3 32-32 32z"/>
    </symbol>
    <symbol id="info-circle" viewBox="0 0 512 512">
        <path d="M256 8C119.043 8 8 119.083 8 256c0 136.997 111.043 248 248 248s248-111.003 248-248C504 119.083 392.957 8 256 8zm0 110c23.196 0 42 18.804 42 42s-18.804 42-42 42-42-18.804-42-42 18.804-42 42-42zm56 254c0 6.627-5.373 12-12 12h-88c-6.627 0-12-5.373-12-12v-24c0-6.627 5.373-12 12-12h12v-64h-12c-6.627 0-12-5.373-12-12v-24c0-6.627 5.373-12 12-12h64c6.627 0 12 5.373 12 12v100h12c6.627 0 12 5.373 12 12v24z"/>
    </symbol>
    <symbol id="user-circle" viewBox="0 0 496 512">
        <path d="M248 8C111 8 0 119 0 256s111 248 248 248 248-111 248-248S385 8 248 8zm0 96c48.6 0 88 39.4 88 88s-39.4 88-88 88-88-39.4-88-88 39.4-88 88-88zm0 344c-58.7 0-111.3-26.6-146.5-68.2 18.8-35.4 55.6-59.8 98.5-59.8 2.4 0 4.8.4 7.1 1.1 13 4.2 26.6 6.9 40.9 6.9 14.3 0 28-2.7 40.9-6.9 2.3-.7 4.7-1.1 7.1-1.1 42.9 0 79.7 24.4 98.5 59.8C359.3 421.4 306.7 448 248 448z"/>
    </symbol>
    <symbol id="check-circle" viewBox="0 0 512 512">
        <path d="M504 256c0 136.967-111.033 248-248 248S8 392.967 8 256 119.033 8 256 8s248 111.033 248 248zM227.314 387.314l184-184c6.248-6.248 6.248-16.379 0-22.627l-22.627-22.627c-6.248-6.249-16.379-6.249-22.628 0L216 308.118l-70.059-70.059c-6.248-6.248-16.379-6.248-22.628 0l-22.627 22.627c-6.248 6.248-6.248 16.379 0 22.627l104 104c6.249 6.249 16.379 6.249 22.628.001z"/>
    </symbol>
    <symbol id="accounttype0" viewBox="0 0 640 512">
        <path d="M96 224c35.3 0 64-28.7 64-64s-28.7-64-64-64-64 28.7-64 64 28.7 64 64 64zm448 0c35.3 0 64-28.7 64-64s-28.7-64-64-64-64 28.7-64 64 28.7 64 64 64zm32 32h-64c-17.6 0-33.5 7.1-45.1 18.6 40.3 22.1 68.9 62 75.1 109.4h66c17.7 0 32-14.3 32-32v-32c0-35.3-28.7-64-64-64zm-256 0c61.9 0 112-50.1 112-112S381.9 32 320 32 208 82.1 208 144s50.1 112 112 112zm76.8 32h-8.3c-20.8 10-43.9 16-68.5 16s-47.6-6-68.5-16h-8.3C179.6 288 128 339.6 128 403.2V432c0 26.5 21.5 48 48 48h288c26.5 0 48-21.5 48-48v-28.8c0-63.6-51.6-115.2-115.2-115.2zm-223.7-13.4C161.5 263.1 145.6 256 128 256H64c-35.3 0-64 28.7-64 64v32c0 17.7 14.3 32 32 32h65.9c6.3-47.4 34.9-87.3 75.2-109.4z"/>
    </symbol>
    <symbol id="accounttype1" viewBox="0 0 448 512">
        <path d="M436 480h-20V24c0-13.255-10.745-24-24-24H56C42.745 0 32 10.745 32 24v456H12c-6.627 0-12 5.373-12 12v20h448v-20c0-6.627-5.373-12-12-12zM128 76c0-6.627 5.373-12 12-12h40c6.627 0 12 5.373 12 12v40c0 6.627-5.373 12-12 12h-40c-6.627 0-12-5.373-12-12V76zm0 96c0-6.627 5.373-12 12-12h40c6.627 0 12 5.373 12 12v40c0 6.627-5.373 12-12 12h-40c-6.627 0-12-5.373-12-12v-40zm52 148h-40c-6.627 0-12-5.373-12-12v-40c0-6.627 5.373-12 12-12h40c6.627 0 12 5.373 12 12v40c0 6.627-5.373 12-12 12zm76 160h-64v-84c0-6.627 5.373-12 12-12h40c6.627 0 12 5.373 12 12v84zm64-172c0 6.627-5.373 12-12 12h-40c-6.627 0-12-5.373-12-12v-40c0-6.627 5.373-12 12-12h40c6.627 0 12 5.373 12 12v40zm0-96c0 6.627-5.373 12-12 12h-40c-6.627 0-12-5.373-12-12v-40c0-6.627 5.373-12 12-12h40c6.627 0 12 5.373 12 12v40zm0-96c0 6.627-5.373 12-12 12h-40c-6.627 0-12-5.373-12-12V76c0-6.627 5.373-12 12-12h40c6.627 0 12 5.373 12 12v40z"/>
    </symbol>
    <symbol id="cooperationtype0" viewBox="0 0 640 512">
        <path d="M96 224c35.3 0 64-28.7 64-64s-28.7-64-64-64-64 28.7-64 64 28.7 64 64 64zm448 0c35.3 0 64-28.7 64-64s-28.7-64-64-64-64 28.7-64 64 28.7 64 64 64zm32 32h-64c-17.6 0-33.5 7.1-45.1 18.6 40.3 22.1 68.9 62 75.1 109.4h66c17.7 0 32-14.3 32-32v-32c0-35.3-28.7-64-64-64zm-256 0c61.9 0 112-50.1 112-112S381.9 32 320 32 208 82.1 208 144s50.1 112 112 112zm76.8 32h-8.3c-20.8 10-43.9 16-68.5 16s-47.6-6-68.5-16h-8.3C179.6 288 128 339.6 128 403.2V432c0 26.5 21.5 48 48 48h288c26.5 0 48-21.5 48-48v-28.8c0-63.6-51.6-115.2-115.2-115.2zm-223.7-13.4C161.5 263.1 145.6 256 128 256H64c-35.3 0-64 28.7-64 64v32c0 17.7 14.3 32 32 32h65.9c6.3-47.4 34.9-87.3 75.2-109.4z"/>
    </symbol>
    <symbol id="cooperationtype1" viewBox="0 0 448 512">
        <path d="M436 480h-20V24c0-13.255-10.745-24-24-24H56C42.745 0 32 10.745 32 24v456H12c-6.627 0-12 5.373-12 12v20h448v-20c0-6.627-5.373-12-12-12zM128 76c0-6.627 5.373-12 12-12h40c6.627 0 12 5.373 12 12v40c0 6.627-5.373 12-12 12h-40c-6.627 0-12-5.373-12-12V76zm0 96c0-6.627 5.373-12 12-12h40c6.627 0 12 5.373 12 12v40c0 6.627-5.373 12-12 12h-40c-6.627 0-12-5.373-12-12v-40zm52 148h-40c-6.627 0-12-5.373-12-12v-40c0-6.627 5.373-12 12-12h40c6.627 0 12 5.373 12 12v40c0 6.627-5.373 12-12 12zm76 160h-64v-84c0-6.627 5.373-12 12-12h40c6.627 0 12 5.373 12 12v84zm64-172c0 6.627-5.373 12-12 12h-40c-6.627 0-12-5.373-12-12v-40c0-6.627 5.373-12 12-12h40c6.627 0 12 5.373 12 12v40zm0-96c0 6.627-5.373 12-12 12h-40c-6.627 0-12-5.373-12-12v-40c0-6.627 5.373-12 12-12h40c6.627 0 12 5.373 12 12v40zm0-96c0 6.627-5.373 12-12 12h-40c-6.627 0-12-5.373-12-12V76c0-6.627 5.373-12 12-12h40c6.627 0 12 5.373 12 12v40z"/>
    </symbol>
    <symbol id="user-check" viewBox="0 0 640 512">
        <path d="M636.6 159.6a12 12 0 0 1-.1 16.8L495.2 316.6a11.86 11.86 0 0 1-16.8-.1l-81.7-82.3a11.86 11.86 0 0 1 .1-16.8l28.1-27.9a11.86 11.86 0 0 1 16.8.1l45.5 45.8 104.8-104a11.86 11.86 0 0 1 16.8.1z" class="uk-text-success"/>
        <path d="M224 256A128 128 0 1 0 96 128a128 128 0 0 0 128 128zm89.6 32h-16.7a174.08 174.08 0 0 1-145.8 0h-16.7A134.43 134.43 0 0 0 0 422.4V464a48 48 0 0 0 48 48h352a48 48 0 0 0 48-48v-41.6A134.43 134.43 0 0 0 313.6 288z" class="uk-text-secondary"/>
    </symbol>
    <symbol id="filter" viewBox="0 0 512 512">
        <path d="M487.976 0H24.028C2.71 0-8.047 25.866 7.058 40.971L192 225.941V432c0 7.831 3.821 15.17 10.237 19.662l80 55.98C298.02 518.69 320 507.493 320 487.98V225.941l184.947-184.97C520.021 25.896 509.338 0 487.976 0z"/>
    </symbol>
    <symbol id="times-circle" viewBox="0 0 512 512">
        <path d="M256 8C119 8 8 119 8 256s111 248 248 248 248-111 248-248S393 8 256 8zm121.6 313.1c4.7 4.7 4.7 12.3 0 17L338 377.6c-4.7 4.7-12.3 4.7-17 0L256 312l-65.1 65.6c-4.7 4.7-12.3 4.7-17 0L134.4 338c-4.7-4.7-4.7-12.3 0-17l65.6-65-65.6-65.1c-4.7-4.7-4.7-12.3 0-17l39.6-39.6c4.7-4.7 12.3-4.7 17 0l65 65.7 65.1-65.6c4.7-4.7 12.3-4.7 17 0l39.6 39.6c4.7 4.7 4.7 12.3 0 17L312 256l65.6 65.1z"/>
    </symbol>
    <symbol id="home" viewBox="0 0 576 512">
        <path d="M280.37 148.26L96 300.11V464a16 16 0 0 0 16 16l112.06-.29a16 16 0 0 0 15.92-16V368a16 16 0 0 1 16-16h64a16 16 0 0 1 16 16v95.64a16 16 0 0 0 16 16.05L464 480a16 16 0 0 0 16-16V300L295.67 148.26a12.19 12.19 0 0 0-15.3 0zM571.6 251.47L488 182.56V44.05a12 12 0 0 0-12-12h-56a12 12 0 0 0-12 12v72.61L318.47 43a48 48 0 0 0-61 0L4.34 251.47a12 12 0 0 0-1.6 16.9l25.5 31A12 12 0 0 0 45.15 301l235.22-193.74a12.19 12.19 0 0 1 15.3 0L530.9 301a12 12 0 0 0 16.9-1.6l25.5-31a12 12 0 0 0-1.7-16.93z"/>
    </symbol>
    <symbol id="chevron-right" viewBox="0 0 320 512">
        <path d="M285.476 272.971L91.132 467.314c-9.373 9.373-24.569 9.373-33.941 0l-22.667-22.667c-9.357-9.357-9.375-24.522-.04-33.901L188.505 256 34.484 101.255c-9.335-9.379-9.317-24.544.04-33.901l22.667-22.667c9.373-9.373 24.569-9.373 33.941 0L285.475 239.03c9.373 9.372 9.373 24.568.001 33.941z"/>
    </symbol>
    <symbol id="file-search" viewBox="0 0 640 512">
        <path d="M300.59 257.71a160.1 160.1 0 0 0 83.41 209v21.45A23.94 23.94 0 0 1 360 512H23.88A23.94 23.94 0 0 1 0 488V23.88A23.94 23.94 0 0 1 24 0h232v112a16 16 0 0 0 16 16h112v45.33a160.34 160.34 0 0 0-83.41 84.38z" class="uk-text-lightgray"/>
        <path d="M384 121.9a23.9 23.9 0 0 0-7-16.9L279.1 7a24 24 0 0 0-17-7H256v112a16 16 0 0 0 16 16h112zm251.31 340.16l-77.41-77.41A126.65 126.65 0 0 0 576 320a128 128 0 1 0-128 128c23.7 0 45.61-6.88 64.65-18.11l77.41 77.42a16 16 0 0 0 22.63 0l22.62-22.62a16 16 0 0 0 0-22.63zM448 384a64 64 0 1 1 64-64 64 64 0 0 1-64 64z" class="uk-text-gray"/>
    </symbol>
    <symbol id="shopping-cart-duotone" viewBox="0 0 576 512">
        <path d="M552 64H159.21l52.36 256h293.15a24 24 0 0 0 23.4-18.68l47.27-208a24 24 0 0 0-18.08-28.72A23.69 23.69 0 0 0 552 64z" class="uk-text-lightgray"/>
        <path d="M218.12 352h268.42a24 24 0 0 1 23.4 29.32l-5.52 24.28a56 56 0 1 1-63.6 10.4H231.18a56 56 0 1 1-67.05-8.57L93.88 64H24A24 24 0 0 1 0 40V24A24 24 0 0 1 24 0h102.53A24 24 0 0 1 150 19.19z" class="uk-text-gray"/>
    </symbol>
    <symbol id="plus-circle" viewBox="0 0 512 512">
        <path d="M256 8C119 8 8 119 8 256s111 248 248 248 248-111 248-248S393 8 256 8zm144 276c0 6.6-5.4 12-12 12h-92v92c0 6.6-5.4 12-12 12h-56c-6.6 0-12-5.4-12-12v-92h-92c-6.6 0-12-5.4-12-12v-56c0-6.6 5.4-12 12-12h92v-92c0-6.6 5.4-12 12-12h56c6.6 0 12 5.4 12 12v92h92c6.6 0 12 5.4 12 12v56z"/>
    </symbol>
    <symbol id="minus-circle" viewBox="0 0 512 512">
        <path d="M256 8C119 8 8 119 8 256s111 248 248 248 248-111 248-248S393 8 256 8zM124 296c-6.6 0-12-5.4-12-12v-56c0-6.6 5.4-12 12-12h264c6.6 0 12 5.4 12 12v56c0 6.6-5.4 12-12 12H124z"/>
    </symbol>
    <symbol id="ellipsis-v" viewBox="0 0 192 512">
        <path d="M96 184c39.8 0 72 32.2 72 72s-32.2 72-72 72-72-32.2-72-72 32.2-72 72-72zM24 80c0 39.8 32.2 72 72 72s72-32.2 72-72S135.8 8 96 8 24 40.2 24 80zm0 352c0 39.8 32.2 72 72 72s72-32.2 72-72-32.2-72-72-72-72 32.2-72 72z"/>
    </symbol>
    <symbol id="ellipsis-h" viewBox="0 0 512 512">
        <path d="M328 256c0 39.8-32.2 72-72 72s-72-32.2-72-72 32.2-72 72-72 72 32.2 72 72zm104-72c-39.8 0-72 32.2-72 72s32.2 72 72 72 72-32.2 72-72-32.2-72-72-72zm-352 0c-39.8 0-72 32.2-72 72s32.2 72 72 72 72-32.2 72-72-32.2-72-72-72z"/>
    </symbol>
    <symbol id="map-marked-alt" viewBox="0 0 576 512">
        <path d="M554.06 161.16L416 224v288l139.88-55.95A32 32 0 0 0 576 426.34V176a16 16 0 0 0-21.94-14.84zM20.12 216A32 32 0 0 0 0 245.66V496a16 16 0 0 0 21.94 14.86L160 448V214.92a302.84 302.84 0 0 1-21.25-46.42zM288 359.67a47.78 47.78 0 0 1-36.51-17C231.83 319.51 210.92 293.09 192 266v182l192 64V266c-18.92 27.09-39.82 53.52-59.49 76.72A47.8 47.8 0 0 1 288 359.67z" class="uk-text-lightgray"/>
        <path d="M288 0a126 126 0 0 0-126 126c0 56.26 82.35 158.8 113.9 196a15.77 15.77 0 0 0 24.2 0C331.65 284.8 414 182.26 414 126A126 126 0 0 0 288 0zm0 168a42 42 0 1 1 42-42 42 42 0 0 1-42 42z" class="uk-text-gray"/>
    </symbol>
    <symbol id="box-open" viewBox="0 0 640 512">
        <path d="M439 254.14L576 215v178a32.07 32.07 0 0 1-24.2 31l-216.4 54.1a65 65 0 0 1-31 0L88.24 424A31.9 31.9 0 0 1 64 393V215l137 39.2a46 46 0 0 0 13.3 1.9 48.64 48.64 0 0 0 41.5-23.5L320 126l64.3 106.6a48.47 48.47 0 0 0 41.4 23.4 46 46 0 0 0 13.3-1.86z" class="uk-text-lightgray"/>
        <path d="M638.34 143.84L586.84 41a16.33 16.33 0 0 0-16.7-8.9L320 64l91.7 152.1a16.44 16.44 0 0 0 18.5 7.3l197.9-56.5a16.47 16.47 0 0 0 10.24-23.06zM53.24 41L1.74 143.84a16.3 16.3 0 0 0 10.1 23l197.9 56.5a16.44 16.44 0 0 0 18.5-7.3L320 64 69.84 32.14A16.34 16.34 0 0 0 53.24 41z" class="uk-text-gray"/>
    </symbol>

    <symbol id="receipt" viewBox="0 0 384 512">
        <path d="M358.4 3.2L320 48 265.6 3.2a15.9 15.9 0 0 0-19.2 0L192 48 137.6 3.2a15.9 15.9 0 0 0-19.2 0L64 48 25.6 3.2C15-4.7 0 2.8 0 16v480c0 13.2 15 20.7 25.6 12.8L64 464l54.4 44.8a15.9 15.9 0 0 0 19.2 0L192 464l54.4 44.8a15.9 15.9 0 0 0 19.2 0L320 464l38.4 44.8c10.5 7.9 25.6.4 25.6-12.8V16c0-13.2-15-20.7-25.6-12.8zM320 360c0 4.4-3.6 8-8 8H72c-4.4 0-8-3.6-8-8v-16c0-4.4 3.6-8 8-8h240c4.4 0 8 3.6 8 8v16zm0-96c0 4.4-3.6 8-8 8H72c-4.4 0-8-3.6-8-8v-16c0-4.4 3.6-8 8-8h240c4.4 0 8 3.6 8 8v16zm0-96c0 4.4-3.6 8-8 8H72c-4.4 0-8-3.6-8-8v-16c0-4.4 3.6-8 8-8h240c4.4 0 8 3.6 8 8v16z"/>
    </symbol>
    <symbol id="truck" viewBox="0 0 640 512">
        <path d="M624 352h-16V243.9c0-12.7-5.1-24.9-14.1-33.9L494 110.1c-9-9-21.2-14.1-33.9-14.1H416V48c0-26.5-21.5-48-48-48H48C21.5 0 0 21.5 0 48v320c0 26.5 21.5 48 48 48h16c0 53 43 96 96 96s96-43 96-96h128c0 53 43 96 96 96s96-43 96-96h48c8.8 0 16-7.2 16-16v-32c0-8.8-7.2-16-16-16zM160 464c-26.5 0-48-21.5-48-48s21.5-48 48-48 48 21.5 48 48-21.5 48-48 48zm320 0c-26.5 0-48-21.5-48-48s21.5-48 48-48 48 21.5 48 48-21.5 48-48 48zm80-208H416V144h44.1l99.9 99.9V256z"/>
    </symbol>

    <symbol id="shipping-fast" viewBox="0 0 640 512">
        <path d="M624 352h-16V243.9c0-12.7-5.1-24.9-14.1-33.9L494 110.1c-9-9-21.2-14.1-33.9-14.1H416V48c0-26.5-21.5-48-48-48H112C85.5 0 64 21.5 64 48v48H8c-4.4 0-8 3.6-8 8v16c0 4.4 3.6 8 8 8h272c4.4 0 8 3.6 8 8v16c0 4.4-3.6 8-8 8H40c-4.4 0-8 3.6-8 8v16c0 4.4 3.6 8 8 8h208c4.4 0 8 3.6 8 8v16c0 4.4-3.6 8-8 8H8c-4.4 0-8 3.6-8 8v16c0 4.4 3.6 8 8 8h208c4.4 0 8 3.6 8 8v16c0 4.4-3.6 8-8 8H64v128c0 53 43 96 96 96s96-43 96-96h128c0 53 43 96 96 96s96-43 96-96h48c8.8 0 16-7.2 16-16v-32c0-8.8-7.2-16-16-16zM160 464c-26.5 0-48-21.5-48-48s21.5-48 48-48 48 21.5 48 48-21.5 48-48 48zm320 0c-26.5 0-48-21.5-48-48s21.5-48 48-48 48 21.5 48 48-21.5 48-48 48zm80-208H416V144h44.1l99.9 99.9V256z"/>
    </symbol>

    <symbol id="credit-card" viewBox="0 0 576 512">
        <path d="M0 432c0 26.5 21.5 48 48 48h480c26.5 0 48-21.5 48-48V256H0v176zm192-68c0-6.6 5.4-12 12-12h136c6.6 0 12 5.4 12 12v40c0 6.6-5.4 12-12 12H204c-6.6 0-12-5.4-12-12v-40zm-128 0c0-6.6 5.4-12 12-12h72c6.6 0 12 5.4 12 12v40c0 6.6-5.4 12-12 12H76c-6.6 0-12-5.4-12-12v-40zM576 80v48H0V80c0-26.5 21.5-48 48-48h480c26.5 0 48 21.5 48 48z"/>
    </symbol>
    <symbol id="credit-card" viewBox="0 0 576 512">
        <path d="M0 432a48 48 0 0 0 48 48h480a48 48 0 0 0 48-48V256H0zm192-68a12 12 0 0 1 12-12h136a12 12 0 0 1 12 12v40a12 12 0 0 1-12 12H204a12 12 0 0 1-12-12zm-128 0a12 12 0 0 1 12-12h72a12 12 0 0 1 12 12v40a12 12 0 0 1-12 12H76a12 12 0 0 1-12-12zM528 32H48A48 48 0 0 0 0 80v48h576V80a48 48 0 0 0-48-48z" class="fa-secondary"/>
        <path d="M576 256H0V128h576z" class="fa-primary"/>
    </symbol>

    <symbol id="clipboard-check" viewBox="0 0 384 512">
        <path d="M336 64h-80c0-35.3-28.7-64-64-64s-64 28.7-64 64H48C21.5 64 0 85.5 0 112v352c0 26.5 21.5 48 48 48h288c26.5 0 48-21.5 48-48V112c0-26.5-21.5-48-48-48zM192 40c13.3 0 24 10.7 24 24s-10.7 24-24 24-24-10.7-24-24 10.7-24 24-24zm121.2 231.8l-143 141.8c-4.7 4.7-12.3 4.6-17-.1l-82.6-83.3c-4.7-4.7-4.6-12.3.1-17L99.1 285c4.7-4.7 12.3-4.6 17 .1l46 46.4 106-105.2c4.7-4.7 12.3-4.6 17 .1l28.2 28.4c4.7 4.8 4.6 12.3-.1 17z"/>
    </symbol>
    <symbol id="clipboard-check-duotone" viewBox="0 0 384 512">
        <path d="M336 64h-80a64 64 0 0 1 64 64H64a64 64 0 0 1 64-64H48a48 48 0 0 0-48 48v352a48 48 0 0 0 48 48h288a48 48 0 0 0 48-48V112a48 48 0 0 0-48-48zm-22.8 207.8l-143 141.8a12 12 0 0 1-17-.1l-82.6-83.3a12 12 0 0 1 .1-17L99.1 285a12 12 0 0 1 17 .1l46 46.4 106-105.2a12 12 0 0 1 17 .1l28.2 28.4a12 12 0 0 1-.1 17z" class="fa-secondary"/>
        <path d="M285.1 226.4a12 12 0 0 0-17-.1l-106 105.2-46-46.4a12 12 0 0 0-17-.1l-28.4 28.2a12 12 0 0 0-.1 17l82.6 83.3a12 12 0 0 0 17 .1l143-141.8a12 12 0 0 0 .1-17zM256 64a64 64 0 0 0-128 0 64 64 0 0 0-64 64h256a64 64 0 0 0-64-64zm-64 24a24 24 0 1 1 24-24 23.94 23.94 0 0 1-24 24z" class="fa-primary"/>
    </symbol>
</svg>